SplineFontDB: 3.0
FontName: Route159-Heavy
FullName: Route 159 Heavy
FamilyName: Route 159 Heavy
Weight: Bold
Copyright: __ 2015 Sora Sagano.
Version: 001.100
ItalicAngle: 0
UnderlinePosition: -100
UnderlineWidth: 50
Ascent: 770
Descent: 230
InvalidEm: 0
sfntRevision: 0x00011999
LayerCount: 2
Layer: 0 0 "Back" 1
Layer: 1 0 "Fore" 0
XUID: [1021 1017 285194369 23065]
StyleMap: 0x0040
FSType: 8
OS2Version: 0
OS2_WeightWidthSlopeOnly: 0
OS2_UseTypoMetrics: 0
CreationTime: 1458085815
ModificationTime: 1489042498
PfmFamily: 81
TTFWeight: 700
TTFWidth: 5
LineGap: 0
VLineGap: 0
Panose: 0 0 8 0 0 0 0 0 0 0
OS2TypoAscent: 770
OS2TypoAOffset: 0
OS2TypoDescent: -230
OS2TypoDOffset: 0
OS2TypoLinegap: 100
OS2WinAscent: 970
OS2WinAOffset: 0
OS2WinDescent: 230
OS2WinDOffset: 0
HheadAscent: 970
HheadAOffset: 0
HheadDescent: -230
HheadDOffset: 0
OS2SubXSize: 650
OS2SubYSize: 600
OS2SubXOff: 0
OS2SubYOff: 75
OS2SupXSize: 650
OS2SupYSize: 600
OS2SupXOff: 0
OS2SupYOff: 350
OS2StrikeYSize: 50
OS2StrikeYPos: 312
OS2CapHeight: 740
OS2XHeight: 520
OS2Vendor: 'UKWN'
OS2CodePages: 20000093.00000000
OS2UnicodeRanges: 00000007.00000000.00000000.00000000
Lookup: 6 0 0 "'locl' Localized Forms in Latin lookup 0" { "'locl' Localized Forms in Latin lookup 0 contextual 0"  "'locl' Localized Forms in Latin lookup 0 contextual 1"  } ['locl' ('latn' <'CAT ' > ) ]
Lookup: 4 0 1 "'liga' Standard Ligatures in Latin lookup 1" { "'liga' Standard Ligatures in Latin lookup 1 subtable"  } ['liga' ('DFLT' <'dflt' > 'latn' <'CAT ' 'dflt' > ) ]
Lookup: 4 0 0 "Ligature Substitution lookup 2" { "Ligature Substitution lookup 2 subtable"  } []
Lookup: 257 0 0 "'cpsp' Capital Spacing in Latin lookup 0" { "'cpsp' Capital Spacing in Latin lookup 0 subtable"  } ['cpsp' ('DFLT' <'dflt' > 'latn' <'CAT ' 'dflt' > ) ]

StartChar: .notdef
Encoding: 256 -1 0
Width: 500
Flags: HMW
HStem: -230 69<167 333 167 410> -128 47<167 237 231 231 231 237 301 333> -48 23<167 333 167 333> 8 47<200 300 200 300> 88 60<167 333 167 333> 181 24<233 267 233 300> 261 22<167 200 167 333 233 333 233 233> 317 23<167 267 167 300 167 267> 373 37<167 233 167 233> 443 27<167 333 167 333> 504 36<200 233 200 233 200 333 200 267> 574 26<167 267 167 333> 633 37<168 233 168 233 167 233 168 267 267 333> 703 67<168 333 168 168>
VStem: 93 74<-161 -128 -81 -48 -25 88 148 261 283 317 340 373 410 443 470 574 600 633> 200 33<205 261 205 261 205 261 504 540> 267 33<205 228 340 383> 333 77<-161 -128 -128 -128 -81 -48 -48 -48 -25 88 88 88 148 261 261 261 283 383 383 383 410 443 443 443 470 504 504 504 600 633 633 633 670 703 703 703>
LayerCount: 2
Fore
SplineSet
93 -230 m 1
 93 770 l 1
 410 770 l 1
 410 -230 l 1
 93 -230 l 1
167 600 m 1
 333 600 l 1
 333 633 l 1
 267 633 l 1
 267 670 l 1
 333 670 l 1
 333 703 l 1
 168 703 l 1
 168 670 l 1
 233 670 l 1
 233 633 l 1
 167 633 l 1
 167 600 l 1
167 470 m 1
 333 470 l 1
 333 504 l 1
 267 504 l 1
 267 574 l 1
 167 574 l 1
 167 470 l 1
200 504 m 1
 200 540 l 1
 233 540 l 1
 233 504 l 1
 200 504 l 1
167 340 m 1
 267 340 l 1
 267 410 l 1
 333 410 l 1
 333 443 l 1
 167 443 l 1
 167 410 l 1
 233 410 l 1
 233 373 l 1
 167 373 l 1
 167 340 l 1
167 283 m 1
 333 283 l 1
 333 383 l 1
 300 383 l 1
 300 317 l 1
 167 317 l 1
 167 283 l 1
167 148 m 1
 333 148 l 1
 333 261 l 1
 233 261 l 1
 233 205 l 1
 267 205 l 1
 267 228 l 1
 300 228 l 1
 300 181 l 1
 200 181 l 1
 200 261 l 1
 167 261 l 1
 167 148 l 1
167 -25 m 1
 333 -25 l 1
 333 88 l 1
 167 88 l 1
 167 -25 l 1
200 8 m 1
 200 55 l 1
 300 55 l 1
 300 8 l 1
 200 8 l 1
167 -48 m 1
 167 -81 l 1
 237 -81 l 1
 167 -128 l 1
 167 -161 l 1
 333 -161 l 1
 333 -128 l 1
 231 -128 l 1
 301 -81 l 1
 333 -81 l 1
 333 -48 l 1
 167 -48 l 1
EndSplineSet
Validated: 1
EndChar

StartChar: A
Encoding: 65 65 1
Width: 765
GlyphClass: 2
Flags: HMW
HStem: 0 21G<14 208 14 14 551 749 551 551> 199 136<308 457 308 492 272 457> 594 146<386 386> 720 20G<270 512 512 512>
VStem: 14 735<0 0>
LayerCount: 2
Fore
SplineSet
14 0 m 1xd8
 270 740 l 1
 512 740 l 1
 749 0 l 1
 551 0 l 1
 492 199 l 1
 272 199 l 1
 208 0 l 1
 14 0 l 1xd8
308 335 m 1
 457 335 l 1
 386 594 l 1xe8
 308 335 l 1
EndSplineSet
Validated: 1
Position2: "'cpsp' Capital Spacing in Latin lookup 0 subtable" dx=5 dy=0 dh=10 dv=0
EndChar

StartChar: Aacute
Encoding: 257 193 2
Width: 765
GlyphClass: 2
Flags: HMW
HStem: 0 21G<14 208 14 14 551 749 551 551> 199 136<308 457 308 492 272 457> 594 146<386 386> 720 20G<270 512 512 512> 789 156<432 444 350 615>
VStem: 14 735<0 0>
LayerCount: 2
Fore
SplineSet
350 789 m 1xcc
 432 945 l 1
 615 945 l 1
 444 789 l 1
 350 789 l 1xcc
14 0 m 1
 270 740 l 1
 512 740 l 1xdc
 749 0 l 1
 551 0 l 1
 492 199 l 1
 272 199 l 1
 208 0 l 1
 14 0 l 1
308 335 m 1
 457 335 l 1
 386 594 l 1xec
 308 335 l 1
EndSplineSet
Validated: 1
Position2: "'cpsp' Capital Spacing in Latin lookup 0 subtable" dx=5 dy=0 dh=10 dv=0
EndChar

StartChar: Abreve
Encoding: 258 258 3
Width: 765
GlyphClass: 2
Flags: HMW
HStem: 0 21G<14 208 14 14 551 749 551 551> 199 136<308 457 308 492 272 457> 594 146<386 386> 720 20G<270 512 512 512> 776 106<369.5 412.5 369.5 441.5>
VStem: 14 735<0 0>
LayerCount: 2
Fore
SplineSet
244 945 m 1xcc
 330 945 l 1
 327 899 348 882 391 882 c 0
 434 882 455 899 452 945 c 1
 538 945 l 1
 552 831 492 776 391 776 c 0
 289 776 230 831 244 945 c 1xcc
14 0 m 1
 270 740 l 1
 512 740 l 1xdc
 749 0 l 1
 551 0 l 1
 492 199 l 1
 272 199 l 1
 208 0 l 1
 14 0 l 1
308 335 m 1
 457 335 l 1
 386 594 l 1xec
 308 335 l 1
EndSplineSet
Validated: 33
Position2: "'cpsp' Capital Spacing in Latin lookup 0 subtable" dx=5 dy=0 dh=10 dv=0
EndChar

StartChar: Acircumflex
Encoding: 259 194 4
Width: 765
GlyphClass: 2
Flags: HMW
HStem: 0 21G<14 208 14 14 551 749 551 551> 199 136<308 457 308 492 272 457> 594 146<386 386> 720 20G<270 512 512 512> 789 156<221 457 221 457 452 452 452 457 325 561>
VStem: 14 735<0 0>
LayerCount: 2
Fore
SplineSet
221 789 m 1xcc
 325 945 l 1
 457 945 l 1
 561 789 l 1
 452 789 l 1
 390 864 l 1
 320 789 l 1
 221 789 l 1xcc
14 0 m 1
 270 740 l 1
 512 740 l 1xdc
 749 0 l 1
 551 0 l 1
 492 199 l 1
 272 199 l 1
 208 0 l 1
 14 0 l 1
308 335 m 1
 457 335 l 1
 386 594 l 1xec
 308 335 l 1
EndSplineSet
Validated: 1
Position2: "'cpsp' Capital Spacing in Latin lookup 0 subtable" dx=5 dy=0 dh=10 dv=0
EndChar

StartChar: Adieresis
Encoding: 260 196 5
Width: 765
GlyphClass: 2
Flags: HMW
HStem: 0 21G<14 208 14 14 551 749 551 551> 199 136<308 457 308 492 272 457> 594 146<386 386> 720 20G<270 512 512 512> 790 154<186 351 186 351 186 431 431 596>
VStem: 186 165<790 944 790 944> 431 165<790 944 790 944>
LayerCount: 2
Fore
SplineSet
186 790 m 1xce
 186 944 l 1
 228 951 309 951 351 944 c 1
 351 790 l 1
 309 783 228 783 186 790 c 1xce
431 790 m 1
 431 944 l 1
 473 951 554 951 596 944 c 1
 596 790 l 1
 554 783 473 783 431 790 c 1
14 0 m 1
 270 740 l 1
 512 740 l 1xde
 749 0 l 1
 551 0 l 1
 492 199 l 1
 272 199 l 1
 208 0 l 1
 14 0 l 1
308 335 m 1
 457 335 l 1
 386 594 l 1xee
 308 335 l 1
EndSplineSet
Validated: 33
Position2: "'cpsp' Capital Spacing in Latin lookup 0 subtable" dx=5 dy=0 dh=10 dv=0
EndChar

StartChar: Agrave
Encoding: 261 192 6
Width: 765
GlyphClass: 2
Flags: HMW
HStem: 0 21G<14 208 14 14 551 749 551 551> 199 136<308 457 308 492 272 457> 594 146<386 386> 720 20G<270 512 512 512> 789 156<349 361 178 443 349 349>
VStem: 14 735<0 0>
LayerCount: 2
Fore
SplineSet
178 945 m 1xcc
 361 945 l 1
 443 789 l 1
 349 789 l 1
 178 945 l 1xcc
14 0 m 1
 270 740 l 1
 512 740 l 1xdc
 749 0 l 1
 551 0 l 1
 492 199 l 1
 272 199 l 1
 208 0 l 1
 14 0 l 1
308 335 m 1
 457 335 l 1
 386 594 l 1xec
 308 335 l 1
EndSplineSet
Validated: 1
Position2: "'cpsp' Capital Spacing in Latin lookup 0 subtable" dx=5 dy=0 dh=10 dv=0
EndChar

StartChar: Amacron
Encoding: 262 256 7
Width: 765
GlyphClass: 2
Flags: HMW
HStem: 0 21G<14 208 14 14 551 749 551 551> 199 136<308 457 308 492 272 457> 594 146<386 386> 720 20G<270 512 512 512> 819 96<242 540 242 540>
VStem: 242 298<819 915 819 915>
LayerCount: 2
Fore
SplineSet
242 819 m 1xcc
 242 915 l 1
 540 915 l 1
 540 819 l 1
 242 819 l 1xcc
14 0 m 1
 270 740 l 1
 512 740 l 1xdc
 749 0 l 1
 551 0 l 1
 492 199 l 1
 272 199 l 1
 208 0 l 1
 14 0 l 1
308 335 m 1
 457 335 l 1
 386 594 l 1xec
 308 335 l 1
EndSplineSet
Validated: 1
Position2: "'cpsp' Capital Spacing in Latin lookup 0 subtable" dx=5 dy=0 dh=10 dv=0
EndChar

StartChar: Aogonek
Encoding: 263 260 8
Width: 765
GlyphClass: 2
Flags: HMW
HStem: -220 89<567 682> 0 21G<14 208 14 14 652.5 684 684 749> 199 136<308 457 308 492 272 457> 594 146<386 386> 720 20G<270 512 512 512>
VStem: 478 114<-89 -86>
LayerCount: 2
Fore
SplineSet
14 0 m 1xec
 270 740 l 1
 512 740 l 1
 749 0 l 1
 684 0 l 2
 621 0 592 -27 592 -71 c 0
 592 -107 623 -131 672 -131 c 0
 692 -131 710 -129 728 -123 c 1
 723 -195 l 1
 688 -212 657 -220 598 -220 c 0
 536 -220 478 -188 478 -109 c 0
 478 -63 499 -17 550 4 c 1
 492 199 l 1
 272 199 l 1
 208 0 l 1
 14 0 l 1xec
308 335 m 1
 457 335 l 1
 386 594 l 1xf4
 308 335 l 1
EndSplineSet
Validated: 1
Position2: "'cpsp' Capital Spacing in Latin lookup 0 subtable" dx=5 dy=0 dh=10 dv=0
EndChar

StartChar: Aring
Encoding: 264 197 9
Width: 765
GlyphClass: 2
Flags: HMW
HStem: 0 21G<14 208 14 14 551 749 551 551> 199 136<308 457 308 492 272 457> 594 146<386 386> 720 20G<270 512 512 512> 767 57<378.5 403.5 378.5 424.5> 910 57<378.5 403.5>
VStem: 277 72<853.5 880 853.5 897> 433 72<853.5 880>
LayerCount: 2
Fore
SplineSet
277 867 m 0xcf
 277 927 324 967 391 967 c 0
 458 967 505 927 505 867 c 0
 505 807 458 767 391 767 c 0
 324 767 277 807 277 867 c 0xcf
349 867 m 0
 349 840 366 824 391 824 c 0
 416 824 433 840 433 867 c 0
 433 893 416 910 391 910 c 0
 366 910 349 893 349 867 c 0
14 0 m 1
 270 740 l 1
 512 740 l 1xdf
 749 0 l 1
 551 0 l 1
 492 199 l 1
 272 199 l 1
 208 0 l 1
 14 0 l 1
308 335 m 1
 457 335 l 1
 386 594 l 1xef
 308 335 l 1
EndSplineSet
Validated: 1
Position2: "'cpsp' Capital Spacing in Latin lookup 0 subtable" dx=5 dy=0 dh=10 dv=0
EndChar

StartChar: Atilde
Encoding: 265 195 10
Width: 765
GlyphClass: 2
Flags: HMW
HStem: 0 21G<14 208 14 14 551 749 551 551> 199 136<308 457 308 492 272 457> 594 146<386 386> 720 20G<270 512 512 512> 787 112<442 493.5> 839 113<327 327.5 288.5 339.5>
VStem: 14 735<0 0>
LayerCount: 2
Fore
SplineSet
224 790 m 1xc6
 228 900 261 952 316 952 c 0xc6
 339 952 360 945 396 923 c 0
 422 907 437 899 447 899 c 0
 462 899 471 913 481 958 c 1
 558 949 l 1
 554 839 521 787 466 787 c 0xca
 443 787 423 794 386 816 c 0
 359 832 345 839 334 839 c 0
 320 839 311 827 301 781 c 1
 224 790 l 1xc6
14 0 m 1
 270 740 l 1
 512 740 l 1xd2
 749 0 l 1
 551 0 l 1
 492 199 l 1
 272 199 l 1
 208 0 l 1
 14 0 l 1
308 335 m 1
 457 335 l 1
 386 594 l 1xe2
 308 335 l 1
EndSplineSet
Validated: 1
Position2: "'cpsp' Capital Spacing in Latin lookup 0 subtable" dx=5 dy=0 dh=10 dv=0
EndChar

StartChar: AE
Encoding: 266 198 11
Width: 1031
GlyphClass: 2
Flags: HMW
HStem: 0 136<665 982> 179 136<333 481 333 481 260 481> 309 136<665 934 665 954> 604 136<665 975 665 665>
VStem: 481 184<136 136 136 179 179 179 445 589 589 589>
AnchorPoint: "Anchor-0" 721 0 basechar 0
LayerCount: 2
Fore
SplineSet
-29 0 m 1xd8
 393 740 l 1
 571 740 l 1
 995 740 l 1
 975 604 l 1
 665 604 l 1
 665 445 l 1
 954 445 l 1
 934 309 l 1
 665 309 l 1xb8
 665 136 l 1
 1002 136 l 1
 982 0 l 1
 481 0 l 1
 481 179 l 1
 260 179 l 1
 163 0 l 1
 -29 0 l 1xd8
333 315 m 1xd8
 481 315 l 1
 481 589 l 1
 333 315 l 1xd8
EndSplineSet
Validated: 1
Position2: "'cpsp' Capital Spacing in Latin lookup 0 subtable" dx=5 dy=0 dh=10 dv=0
EndChar

StartChar: B
Encoding: 66 66 12
Width: 658
GlyphClass: 2
Flags: HMW
HStem: 0 136<62 332 246 298> 312 136<246 339 246 354> 604 136<246 304 62 246>
VStem: 62 184<136 312 448 604> 406 184<529.5 558> 440 184<190.5 247>
LayerCount: 2
Fore
SplineSet
62 0 m 5xf4
 62 740 l 5
 246 740 l 5
 321 740 l 6
 353 740 383 740 413 738 c 4
 527 730 590 668 590 563 c 4xf8
 590 496 550 424 464 398 c 5
 577 375 624 313 624 217 c 4
 624 79 516 16 408 5 c 4
 376 2 339 0 298 0 c 6
 230 0 l 5
 62 0 l 5xf4
246 448 m 5
 354 448 l 6
 384 448 406 489 406 531 c 4
 406 585 369 604 304 604 c 6
 246 604 l 5
 246 448 l 5
246 136 m 5
 332 136 l 6
 388 136 440 159 440 222 c 4xf4
 440 272 413 312 339 312 c 6
 246 312 l 5
 246 136 l 5
EndSplineSet
Validated: 1
Position2: "'cpsp' Capital Spacing in Latin lookup 0 subtable" dx=5 dy=0 dh=10 dv=0
EndChar

StartChar: C
Encoding: 67 67 13
Width: 658
GlyphClass: 2
Flags: HMW
HStem: -14 140<362.5 432> 614 140<365.5 472.5>
VStem: 33 188<302 444 302 496.5>
AnchorPoint: "Anchor-0" 383 0 basechar 0
LayerCount: 2
Fore
SplineSet
33 365 m 0
 33 628 222 754 430 754 c 0
 517 754 594 735 651 704 c 1
 631 573 l 1
 573 599 515 614 430 614 c 0
 301 614 221 517 221 371 c 0
 221 233 291 126 434 126 c 0
 502 126 558 139 618 169 c 1
 636 41 l 1
 551 0 474 -14 390 -14 c 0
 200 -14 33 98 33 365 c 0
EndSplineSet
Validated: 1
Position2: "'cpsp' Capital Spacing in Latin lookup 0 subtable" dx=5 dy=0 dh=10 dv=0
EndChar

StartChar: Cacute
Encoding: 267 262 14
Width: 658
GlyphClass: 2
Flags: HMW
HStem: -14 140<362.5 432> 614 140<365.5 472.5> 789 156<331 596 413 425>
VStem: 33 188<302 444 302 496.5>
AnchorPoint: "Anchor-0" 383 0 basechar 0
LayerCount: 2
Fore
SplineSet
331 789 m 1
 413 945 l 1
 596 945 l 1
 425 789 l 1
 331 789 l 1
33 365 m 0
 33 628 222 754 430 754 c 0
 517 754 594 735 651 704 c 1
 631 573 l 1
 573 599 515 614 430 614 c 0
 301 614 221 517 221 371 c 0
 221 233 291 126 434 126 c 0
 502 126 558 139 618 169 c 1
 636 41 l 1
 551 0 474 -14 390 -14 c 0
 200 -14 33 98 33 365 c 0
EndSplineSet
Validated: 1
Position2: "'cpsp' Capital Spacing in Latin lookup 0 subtable" dx=5 dy=0 dh=10 dv=0
EndChar

StartChar: Ccaron
Encoding: 268 268 15
Width: 658
GlyphClass: 2
Flags: HMW
HStem: -14 140<362.5 432> 614 140<365.5 472.5> 789 156<306 311 202 438 306 306>
VStem: 33 188<302 444 302 496.5>
AnchorPoint: "Anchor-0" 383 0 basechar 0
LayerCount: 2
Fore
SplineSet
202 945 m 1
 311 945 l 1
 373 870 l 1
 443 945 l 1
 542 945 l 1
 438 789 l 1
 306 789 l 1
 202 945 l 1
33 365 m 0
 33 628 222 754 430 754 c 0
 517 754 594 735 651 704 c 1
 631 573 l 1
 573 599 515 614 430 614 c 0
 301 614 221 517 221 371 c 0
 221 233 291 126 434 126 c 0
 502 126 558 139 618 169 c 1
 636 41 l 1
 551 0 474 -14 390 -14 c 0
 200 -14 33 98 33 365 c 0
EndSplineSet
Validated: 1
Position2: "'cpsp' Capital Spacing in Latin lookup 0 subtable" dx=5 dy=0 dh=10 dv=0
EndChar

StartChar: Ccedilla
Encoding: 269 199 16
Width: 658
GlyphClass: 2
Flags: HMW
HStem: -210 63<340 350 326.5 395.5> -12 21G<344 344> 614 140<365.5 472.5>
VStem: 33 188<302 444 302 496.5> 384 108<-125.5 -101.5>
AnchorPoint: "Anchor-0" 383 0 basechar 0
LayerCount: 2
Fore
SplineSet
33 365 m 0
 33 628 222 754 430 754 c 0
 517 754 594 735 651 704 c 1
 631 573 l 1
 573 599 515 614 430 614 c 0
 301 614 221 517 221 371 c 0
 221 233 291 126 434 126 c 0
 502 126 558 139 618 169 c 1
 636 41 l 1
 559 4 489 -11 414 -14 c 1
 403 -31 l 1
 460 -40 492 -68 492 -114 c 0
 492 -173 432 -210 359 -210 c 0
 321 -210 289 -202 266 -187 c 1
 289 -140 l 1
 302 -145 316 -147 337 -147 c 0
 363 -147 384 -137 384 -114 c 0
 384 -89 357 -73 309 -78 c 1
 344 -12 l 1
 174 5 33 120 33 365 c 0
EndSplineSet
Validated: 33
Position2: "'cpsp' Capital Spacing in Latin lookup 0 subtable" dx=5 dy=0 dh=10 dv=0
EndChar

StartChar: Cdotaccent
Encoding: 270 266 17
Width: 658
GlyphClass: 2
Flags: HMW
HStem: -14 140<362.5 432> 614 140<365.5 472.5> 790 154<282 462 282 462>
VStem: 33 188<302 444 302 496.5> 282 180<790 944 790 944>
AnchorPoint: "Anchor-0" 383 0 basechar 0
LayerCount: 2
Fore
SplineSet
282 790 m 1
 282 944 l 1
 324 951 420 951 462 944 c 1
 462 790 l 1
 420 783 324 783 282 790 c 1
33 365 m 0
 33 628 222 754 430 754 c 0
 517 754 594 735 651 704 c 1
 631 573 l 1
 573 599 515 614 430 614 c 0
 301 614 221 517 221 371 c 0
 221 233 291 126 434 126 c 0
 502 126 558 139 618 169 c 1
 636 41 l 1
 551 0 474 -14 390 -14 c 0
 200 -14 33 98 33 365 c 0
EndSplineSet
Validated: 33
Position2: "'cpsp' Capital Spacing in Latin lookup 0 subtable" dx=5 dy=0 dh=10 dv=0
EndChar

StartChar: D
Encoding: 68 68 18
Width: 779
GlyphClass: 2
Flags: MW
HStem: 0 136<246 333> 604 136<246 347 347 363 246 246>
VStem: 62 184<136 136 136 604> 558 188<301 452.5>
LayerCount: 2
Fore
SplineSet
62 0 m 1
 62 740 l 1
 347 740 l 2
 383 740 425 739 456 735 c 0
 621 712 746 601 746 391 c 0
 746 159 612 40 463 10 c 0
 426 3 376 0 333 0 c 2
 62 0 l 1
246 136 m 1
 367 136 l 2
 482 136 558 222 558 380 c 0
 558 525 498 604 363 604 c 2
 246 604 l 1
 246 136 l 1
EndSplineSet
Validated: 1
Position2: "'cpsp' Capital Spacing in Latin lookup 0 subtable" dx=5 dy=0 dh=10 dv=0
EndChar

StartChar: Eth
Encoding: 271 208 19
Width: 779
GlyphClass: 2
Flags: HMW
HStem: 0 136<246 333> 297 126<9 62 9 62 246 399> 604 136<246 347 347 363 246 246>
VStem: 62 184<136 297 136 297 136 297 423 604> 558 188<301 452.5>
LayerCount: 2
Fore
SplineSet
9 297 m 1
 9 423 l 1
 62 423 l 1
 62 740 l 1
 347 740 l 2
 383 740 425 739 456 735 c 0
 621 712 746 601 746 391 c 0
 746 159 612 40 463 10 c 0
 426 3 376 0 333 0 c 2
 62 0 l 1
 62 297 l 1
 9 297 l 1
246 136 m 1
 367 136 l 2
 482 136 558 222 558 380 c 0
 558 525 498 604 363 604 c 2
 246 604 l 1
 246 423 l 1
 399 423 l 1
 399 297 l 1
 246 297 l 1
 246 136 l 1
EndSplineSet
Validated: 1
Position2: "'cpsp' Capital Spacing in Latin lookup 0 subtable" dx=5 dy=0 dh=10 dv=0
EndChar

StartChar: Dcaron
Encoding: 272 270 20
Width: 779
GlyphClass: 2
Flags: HMW
HStem: 0 136<246 333> 604 136<246 347 347 363 246 246> 789 156<316 321 212 448 316 316>
VStem: 62 184<136 604 136 740 136 740> 558 188<301 452.5>
LayerCount: 2
Fore
SplineSet
212 945 m 1
 321 945 l 1
 383 870 l 1
 453 945 l 1
 552 945 l 1
 448 789 l 1
 316 789 l 1
 212 945 l 1
62 0 m 1
 62 740 l 1
 347 740 l 2
 383 740 425 739 456 735 c 0
 621 712 746 601 746 391 c 0
 746 159 612 40 463 10 c 0
 426 3 376 0 333 0 c 2
 62 0 l 1
246 136 m 1
 367 136 l 2
 482 136 558 222 558 380 c 0
 558 525 498 604 363 604 c 2
 246 604 l 1
 246 136 l 1
EndSplineSet
Validated: 1
Position2: "'cpsp' Capital Spacing in Latin lookup 0 subtable" dx=5 dy=0 dh=10 dv=0
EndChar

StartChar: Dcroat
Encoding: 273 272 21
Width: 779
GlyphClass: 2
Flags: HMW
HStem: 0 136<246 333> 297 126<9 62 9 62 246 399> 604 136<246 347 347 363 246 246>
VStem: 62 184<136 297 136 297 136 297 423 604> 558 188<301 452.5>
LayerCount: 2
Fore
SplineSet
9 297 m 1
 9 423 l 1
 62 423 l 1
 62 740 l 1
 347 740 l 2
 383 740 425 739 456 735 c 0
 621 712 746 601 746 391 c 0
 746 159 612 40 463 10 c 0
 426 3 376 0 333 0 c 2
 62 0 l 1
 62 297 l 1
 9 297 l 1
246 136 m 1
 367 136 l 2
 482 136 558 222 558 380 c 0
 558 525 498 604 363 604 c 2
 246 604 l 1
 246 423 l 1
 399 423 l 1
 399 297 l 1
 246 297 l 1
 246 136 l 1
EndSplineSet
Validated: 1
Position2: "'cpsp' Capital Spacing in Latin lookup 0 subtable" dx=5 dy=0 dh=10 dv=0
EndChar

StartChar: E
Encoding: 69 69 22
Width: 612
GlyphClass: 2
Flags: MW
HStem: 0 136<246 563> 309 136<246 515 246 535> 604 136<246 556 246 246>
VStem: 62 184<136 309 445 604>
AnchorPoint: "Anchor-0" 302 0 basechar 0
LayerCount: 2
Fore
SplineSet
62 0 m 5
 62 740 l 5
 576 740 l 5
 556 604 l 5
 246 604 l 5
 246 445 l 5
 535 445 l 5
 515 309 l 5
 246 309 l 5
 246 136 l 5
 583 136 l 5
 563 0 l 5
 62 0 l 5
EndSplineSet
Validated: 1
Position2: "'cpsp' Capital Spacing in Latin lookup 0 subtable" dx=5 dy=0 dh=10 dv=0
EndChar

StartChar: Eacute
Encoding: 274 201 23
Width: 612
GlyphClass: 2
Flags: MW
HStem: 0 136<246 563> 309 136<246 515 246 535> 604 136<246 556 246 246> 789 156<271 536 353 365>
VStem: 62 184<136 309 445 604>
AnchorPoint: "Anchor-0" 302 0 basechar 0
LayerCount: 2
Fore
SplineSet
271 789 m 1
 353 945 l 1
 536 945 l 1
 365 789 l 1
 271 789 l 1
62 0 m 1
 62 740 l 1
 576 740 l 1
 556 604 l 1
 246 604 l 1
 246 445 l 1
 535 445 l 1
 515 309 l 1
 246 309 l 1
 246 136 l 1
 583 136 l 1
 563 0 l 1
 62 0 l 1
EndSplineSet
Validated: 1
Position2: "'cpsp' Capital Spacing in Latin lookup 0 subtable" dx=5 dy=0 dh=10 dv=0
EndChar

StartChar: Ecaron
Encoding: 275 282 24
Width: 612
GlyphClass: 2
Flags: HMW
HStem: 0 136<246 563> 309 136<246 515 246 535> 604 136<246 556 246 246> 789 156<246 251 142 378 246 246>
VStem: 62 184<136 136 136 309 445 604>
AnchorPoint: "Anchor-0" 302 0 basechar 0
LayerCount: 2
Fore
SplineSet
142 945 m 1
 251 945 l 1
 313 870 l 1
 383 945 l 1
 482 945 l 1
 378 789 l 1
 246 789 l 1
 142 945 l 1
62 0 m 1
 62 740 l 1
 576 740 l 1
 556 604 l 1
 246 604 l 1
 246 445 l 1
 535 445 l 1
 515 309 l 1
 246 309 l 1
 246 136 l 1
 583 136 l 1
 563 0 l 1
 62 0 l 1
EndSplineSet
Validated: 1
Position2: "'cpsp' Capital Spacing in Latin lookup 0 subtable" dx=5 dy=0 dh=10 dv=0
EndChar

StartChar: Ecircumflex
Encoding: 276 202 25
Width: 612
GlyphClass: 2
Flags: HMW
HStem: 0 136<246 563> 309 136<246 515 246 535> 604 136<246 556 246 246> 789 156<142 378 142 378 373 373 373 378 246 482>
VStem: 62 184<136 136 136 309 445 604>
AnchorPoint: "Anchor-0" 302 0 basechar 0
LayerCount: 2
Fore
SplineSet
142 789 m 1
 246 945 l 1
 378 945 l 1
 482 789 l 1
 373 789 l 1
 311 864 l 1
 241 789 l 1
 142 789 l 1
62 0 m 1
 62 740 l 1
 576 740 l 1
 556 604 l 1
 246 604 l 1
 246 445 l 1
 535 445 l 1
 515 309 l 1
 246 309 l 1
 246 136 l 1
 583 136 l 1
 563 0 l 1
 62 0 l 1
EndSplineSet
Validated: 1
Position2: "'cpsp' Capital Spacing in Latin lookup 0 subtable" dx=5 dy=0 dh=10 dv=0
EndChar

StartChar: Edieresis
Encoding: 277 203 26
Width: 612
GlyphClass: 2
Flags: MW
HStem: 0 136<246 563> 309 136<246 515 246 535> 604 136<246 556 246 246> 790 154<107 272 107 272 352 517 107 352>
VStem: 62 184<136 309 445 604> 107 165<790 944 790 944> 352 165<790 944 790 944>
AnchorPoint: "Anchor-0" 302 0 basechar 0
LayerCount: 2
Fore
SplineSet
107 790 m 1xf6
 107 944 l 1
 149 951 230 951 272 944 c 1
 272 790 l 1
 230 783 149 783 107 790 c 1xf6
352 790 m 1
 352 944 l 1
 394 951 475 951 517 944 c 1
 517 790 l 1
 475 783 394 783 352 790 c 1
62 0 m 1xfa
 62 740 l 1
 576 740 l 1
 556 604 l 1
 246 604 l 1
 246 445 l 1
 535 445 l 1
 515 309 l 1
 246 309 l 1
 246 136 l 1
 583 136 l 1
 563 0 l 1
 62 0 l 1xfa
EndSplineSet
Validated: 33
Position2: "'cpsp' Capital Spacing in Latin lookup 0 subtable" dx=5 dy=0 dh=10 dv=0
EndChar

StartChar: Edotaccent
Encoding: 278 278 27
Width: 612
GlyphClass: 2
Flags: MW
HStem: 0 136<246 563> 309 136<246 515 246 535> 604 136<246 556 246 246> 790 154<222 402 222 402>
VStem: 62 184<136 309 445 604> 222 180<790 944 790 944>
AnchorPoint: "Anchor-0" 302 0 basechar 0
LayerCount: 2
Fore
SplineSet
222 790 m 1xf4
 222 944 l 1
 264 951 360 951 402 944 c 1
 402 790 l 1
 360 783 264 783 222 790 c 1xf4
62 0 m 1xf8
 62 740 l 1
 576 740 l 1
 556 604 l 1
 246 604 l 1
 246 445 l 1
 535 445 l 1
 515 309 l 1
 246 309 l 1
 246 136 l 1
 583 136 l 1
 563 0 l 1
 62 0 l 1xf8
EndSplineSet
Validated: 33
Position2: "'cpsp' Capital Spacing in Latin lookup 0 subtable" dx=5 dy=0 dh=10 dv=0
EndChar

StartChar: Egrave
Encoding: 279 200 28
Width: 612
GlyphClass: 2
Flags: HMW
HStem: 0 136<246 563> 309 136<246 515 246 535> 604 136<246 556 246 246> 789 156<270 282 99 364 270 270>
VStem: 62 184<136 309 445 604>
AnchorPoint: "Anchor-0" 302 0 basechar 0
LayerCount: 2
Fore
SplineSet
99 945 m 1
 282 945 l 1
 364 789 l 1
 270 789 l 1
 99 945 l 1
62 0 m 1
 62 740 l 1
 576 740 l 1
 556 604 l 1
 246 604 l 1
 246 445 l 1
 535 445 l 1
 515 309 l 1
 246 309 l 1
 246 136 l 1
 583 136 l 1
 563 0 l 1
 62 0 l 1
EndSplineSet
Validated: 1
Position2: "'cpsp' Capital Spacing in Latin lookup 0 subtable" dx=5 dy=0 dh=10 dv=0
EndChar

StartChar: Emacron
Encoding: 280 274 29
Width: 612
GlyphClass: 2
Flags: MW
HStem: 0 136<246 563> 309 136<246 515 246 535> 604 136<246 556 246 246> 819 96<163 461 163 461>
VStem: 62 184<136 309 445 604> 163 298<819 915 819 915>
AnchorPoint: "Anchor-0" 302 0 basechar 0
LayerCount: 2
Fore
SplineSet
163 819 m 1xf4
 163 915 l 1
 461 915 l 1
 461 819 l 1
 163 819 l 1xf4
62 0 m 1xf8
 62 740 l 1
 576 740 l 1
 556 604 l 1
 246 604 l 1
 246 445 l 1
 535 445 l 1
 515 309 l 1
 246 309 l 1
 246 136 l 1
 583 136 l 1
 563 0 l 1
 62 0 l 1xf8
EndSplineSet
Validated: 1
Position2: "'cpsp' Capital Spacing in Latin lookup 0 subtable" dx=5 dy=0 dh=10 dv=0
EndChar

StartChar: Eogonek
Encoding: 281 280 30
Width: 612
GlyphClass: 2
Flags: HMW
HStem: -220 89<397 512> 0 136<246 371 482.5 514 514 563> 309 136<246 515 246 535> 604 136<246 556 246 246>
VStem: 62 184<136 309 445 604> 308 114<-89 -87.5>
AnchorPoint: "Anchor-0" 302 0 basechar 0
LayerCount: 2
Fore
SplineSet
62 0 m 1
 62 740 l 1
 576 740 l 1
 556 604 l 1
 246 604 l 1
 246 445 l 1
 535 445 l 1
 515 309 l 1
 246 309 l 1
 246 136 l 1
 583 136 l 1
 563 0 l 1
 514 0 l 2
 451 0 422 -27 422 -71 c 0
 422 -107 453 -131 502 -131 c 0
 522 -131 540 -129 558 -123 c 1
 553 -195 l 1
 518 -212 487 -220 428 -220 c 0
 366 -220 308 -188 308 -109 c 0
 308 -66 327 -23 371 0 c 1
 62 0 l 1
EndSplineSet
Validated: 1
Position2: "'cpsp' Capital Spacing in Latin lookup 0 subtable" dx=5 dy=0 dh=10 dv=0
EndChar

StartChar: F
Encoding: 70 70 31
Width: 590
GlyphClass: 2
Flags: MW
HStem: 0 21G<62 62 62 246> 301 136<246 521 246 541> 604 136<246 556 246 246>
VStem: 62 184<0 301 437 604>
LayerCount: 2
Fore
SplineSet
62 0 m 1
 62 740 l 1
 576 740 l 1
 556 604 l 1
 246 604 l 1
 246 437 l 1
 541 437 l 1
 521 301 l 1
 246 301 l 1
 246 0 l 1
 62 0 l 1
EndSplineSet
Validated: 1
Position2: "'cpsp' Capital Spacing in Latin lookup 0 subtable" dx=5 dy=0 dh=10 dv=0
EndChar

StartChar: G
Encoding: 71 71 32
Width: 722
GlyphClass: 2
Flags: HMW
HStem: -14 140<360 431.5 360 453> 614 140<374.5 486 330 489.5>
VStem: 33 188<288.5 442 288.5 496> 492 184<136 402 40 402>
AnchorPoint: "Anchor-0" 395 0 basechar 0
LayerCount: 2
Fore
SplineSet
33 359 m 0
 33 633 222 754 438 754 c 0
 534 754 609 740 675 706 c 1
 647 580 l 1
 589 604 531 614 448 614 c 0
 301 614 221 515 221 369 c 0
 221 208 301 126 419 126 c 0
 444 126 464 129 492 136 c 1
 492 402 l 1
 676 402 l 1
 676 40 l 1
 581 3 504 -14 402 -14 c 0
 187 -14 33 113 33 359 c 0
EndSplineSet
Validated: 1
Position2: "'cpsp' Capital Spacing in Latin lookup 0 subtable" dx=5 dy=0 dh=10 dv=0
EndChar

StartChar: Gbreve
Encoding: 282 286 33
Width: 722
GlyphClass: 2
Flags: HMW
HStem: -14 140<360 431.5 360 453> 614 140<374.5 486 330 489.5> 776 106<365.5 408.5 365.5 437.5>
VStem: 33 188<288.5 442 288.5 496> 492 184<136 402 40 402>
AnchorPoint: "Anchor-0" 395 0 basechar 0
LayerCount: 2
Fore
SplineSet
240 945 m 1
 326 945 l 1
 323 899 344 882 387 882 c 0
 430 882 451 899 448 945 c 1
 534 945 l 1
 548 831 488 776 387 776 c 0
 285 776 226 831 240 945 c 1
33 359 m 0
 33 633 222 754 438 754 c 0
 534 754 609 740 675 706 c 1
 647 580 l 1
 589 604 531 614 448 614 c 0xd8
 301 614 221 515 221 369 c 0
 221 208 301 126 419 126 c 0
 444 126 464 129 492 136 c 1
 492 402 l 1
 676 402 l 1
 676 40 l 1
 581 3 504 -14 402 -14 c 0
 187 -14 33 113 33 359 c 0
EndSplineSet
Validated: 33
Position2: "'cpsp' Capital Spacing in Latin lookup 0 subtable" dx=5 dy=0 dh=10 dv=0
EndChar

StartChar: Gcommaaccent
Encoding: 283 290 34
Width: 722
GlyphClass: 2
Flags: HMW
HStem: -14 140<360 431.5 360 453> 614 140<374.5 486 330 489.5>
VStem: 33 188<288.5 442 288.5 496> 492 184<136 402 40 402>
AnchorPoint: "Anchor-0" 395 0 basechar 0
LayerCount: 2
Fore
SplineSet
33 359 m 0
 33 633 222 754 438 754 c 0
 534 754 609 740 675 706 c 1
 647 580 l 1
 589 604 531 614 448 614 c 0
 301 614 221 515 221 369 c 0
 221 208 301 126 419 126 c 0
 444 126 464 129 492 136 c 1
 492 402 l 1
 676 402 l 1
 676 40 l 1
 581 3 504 -14 402 -14 c 0
 187 -14 33 113 33 359 c 0
260 -290 m 1
 303 -196 320 -131 323 -62 c 1
 344 -50 436 -40 462 -42 c 1
 456 -131 421 -229 361 -290 c 1
 260 -290 l 1
EndSplineSet
Validated: 33
Position2: "'cpsp' Capital Spacing in Latin lookup 0 subtable" dx=5 dy=0 dh=10 dv=0
EndChar

StartChar: Gdotaccent
Encoding: 284 288 35
Width: 722
GlyphClass: 2
Flags: HMW
HStem: -14 140<360 431.5 360 453> 614 140<374.5 486 330 489.5> 790 154<297 477 297 477>
VStem: 33 188<288.5 442 288.5 496> 297 180<790 944 790 944> 492 184<136 402 40 402>
AnchorPoint: "Anchor-0" 395 0 basechar 0
LayerCount: 2
Fore
SplineSet
297 790 m 1
 297 944 l 1
 339 951 435 951 477 944 c 1
 477 790 l 1
 435 783 339 783 297 790 c 1
33 359 m 0
 33 633 222 754 438 754 c 0
 534 754 609 740 675 706 c 1
 647 580 l 1
 589 604 531 614 448 614 c 0
 301 614 221 515 221 369 c 0
 221 208 301 126 419 126 c 0
 444 126 464 129 492 136 c 1
 492 402 l 1xf4
 676 402 l 1
 676 40 l 1
 581 3 504 -14 402 -14 c 0
 187 -14 33 113 33 359 c 0
EndSplineSet
Validated: 33
Position2: "'cpsp' Capital Spacing in Latin lookup 0 subtable" dx=5 dy=0 dh=10 dv=0
EndChar

StartChar: H
Encoding: 72 72 36
Width: 798
GlyphClass: 2
Flags: MW
HStem: 0 21G<62 62 62 246 552 552 552 736> 305 136<246 552 246 552> 720 20G<62 246 246 246 552 736 736 736>
VStem: 62 184<0 305 441 740> 552 184<0 305 305 305 441 740 0 740>
LayerCount: 2
Fore
SplineSet
62 0 m 5
 62 740 l 5
 246 740 l 5
 246 441 l 5
 552 441 l 5
 552 740 l 5
 736 740 l 5
 736 0 l 5
 552 0 l 5
 552 305 l 5
 246 305 l 5
 246 0 l 5
 62 0 l 5
EndSplineSet
Validated: 1
Position2: "'cpsp' Capital Spacing in Latin lookup 0 subtable" dx=5 dy=0 dh=10 dv=0
EndChar

StartChar: Hbar
Encoding: 285 294 37
Width: 820
GlyphClass: 2
Flags: HMW
HStem: 0 21G<68 252 68 68 558 742 558 558> 305 136<252 558 252 558> 508 126<22 68 22 68 252 558 742 798> 508 232<22 252 22 252 68 252 68 558>
VStem: 68 184<0 305 0 441 441 508 634 740> 558 184<0 305 305 305 441 508 0 508 634 740>
LayerCount: 2
Fore
SplineSet
22 508 m 1xdc
 22 634 l 1
 68 634 l 1xec
 68 740 l 1
 252 740 l 1xdc
 252 634 l 1
 558 634 l 1xec
 558 740 l 1
 742 740 l 1xdc
 742 634 l 1
 798 634 l 1xec
 798 508 l 1
 742 508 l 1
 742 0 l 1
 558 0 l 1
 558 305 l 1
 252 305 l 1
 252 0 l 1
 68 0 l 1
 68 508 l 1
 22 508 l 1xdc
252 441 m 1
 558 441 l 1
 558 508 l 1
 252 508 l 1
 252 441 l 1
EndSplineSet
Validated: 1
Position2: "'cpsp' Capital Spacing in Latin lookup 0 subtable" dx=5 dy=0 dh=10 dv=0
EndChar

StartChar: I
Encoding: 73 73 38
Width: 308
GlyphClass: 2
Flags: MW
HStem: 0 21G<62 62 62 246> 720 20G<62 246 246 246>
VStem: 62 184<0 740 0 740>
LayerCount: 2
Fore
SplineSet
62 0 m 5
 62 740 l 5
 246 740 l 5
 246 0 l 5
 62 0 l 5
EndSplineSet
Validated: 1
Position2: "'cpsp' Capital Spacing in Latin lookup 0 subtable" dx=5 dy=0 dh=10 dv=0
EndChar

StartChar: IJ
Encoding: 286 306 39
Width: 751
GlyphClass: 2
Flags: HMW
HStem: -14 140<428 445 398.5 532.5> 0 21G<62 62 62 246> 720 20G<62 246 246 246 505 689 689 689>
VStem: 62 184<0 740 0 740> 505 184<263 280 280 740>
LayerCount: 2
Fore
SplineSet
62 0 m 1x78
 62 740 l 1
 246 740 l 1
 246 0 l 1
 62 0 l 1x78
315 15 m 1
 348 134 l 1
 370 128 387 126 410 126 c 0
 480 126 505 162 505 254 c 2
 505 740 l 1
 689 740 l 1
 689 280 l 2
 689 246 688 218 686 186 c 0
 678 75 610 -14 455 -14 c 0xb8
 401 -14 365 -10 315 15 c 1
EndSplineSet
Validated: 1
Position2: "'cpsp' Capital Spacing in Latin lookup 0 subtable" dx=5 dy=0 dh=10 dv=0
EndChar

StartChar: Iacute
Encoding: 287 205 40
Width: 308
GlyphClass: 2
Flags: MW
HStem: 0 21G<62 62 62 246> 720 20G<62 246 246 246> 789 156<113 378 195 207>
VStem: 62 184<0 740 0 740>
LayerCount: 2
Fore
SplineSet
113 789 m 1
 195 945 l 1
 378 945 l 1
 207 789 l 1
 113 789 l 1
62 0 m 1
 62 740 l 1
 246 740 l 1
 246 0 l 1
 62 0 l 1
EndSplineSet
Validated: 1
Position2: "'cpsp' Capital Spacing in Latin lookup 0 subtable" dx=5 dy=0 dh=10 dv=0
EndChar

StartChar: Icircumflex
Encoding: 288 206 41
Width: 308
GlyphClass: 2
Flags: HMW
HStem: 0 21G<62 62 62 246> 720 20G<62 246 246 246> 789 156<-16 220 -16 220 215 215 215 220 88 324>
VStem: 62 184<0 740 0 740>
LayerCount: 2
Fore
SplineSet
-16 789 m 1
 88 945 l 1
 220 945 l 1
 324 789 l 1
 215 789 l 1
 153 864 l 1
 83 789 l 1
 -16 789 l 1
62 0 m 1
 62 740 l 1
 246 740 l 1
 246 0 l 1
 62 0 l 1
EndSplineSet
Validated: 1
Position2: "'cpsp' Capital Spacing in Latin lookup 0 subtable" dx=5 dy=0 dh=10 dv=0
EndChar

StartChar: Idieresis
Encoding: 289 207 42
Width: 308
GlyphClass: 2
Flags: MW
HStem: 0 21G<62 62 62 246> 720 20G<62 246 246 246> 790 154<-51 114 -51 114 194 359 -51 194>
VStem: -51 165<790 944 790 944> 62 184<0 740 0 740> 194 165<790 944 790 944>
LayerCount: 2
Fore
SplineSet
-51 790 m 1xf0
 -51 944 l 1xf0
 -9 951 72 951 114 944 c 1
 114 790 l 1xe8
 72 783 -9 783 -51 790 c 1xf0
194 790 m 1xe8
 194 944 l 1xe8
 236 951 317 951 359 944 c 1
 359 790 l 1xe4
 317 783 236 783 194 790 c 1xe8
62 0 m 1
 62 740 l 1
 246 740 l 1
 246 0 l 1
 62 0 l 1
EndSplineSet
Validated: 33
Position2: "'cpsp' Capital Spacing in Latin lookup 0 subtable" dx=5 dy=0 dh=10 dv=0
EndChar

StartChar: Idotaccent
Encoding: 290 304 43
Width: 308
GlyphClass: 2
Flags: MW
HStem: 0 21G<62 62 62 246> 720 20G<62 246 246 246> 790 154<64 244 64 244>
VStem: 62 184<0 740 0 740>
LayerCount: 2
Fore
SplineSet
64 790 m 1
 64 944 l 1
 106 951 202 951 244 944 c 1
 244 790 l 1
 202 783 106 783 64 790 c 1
62 0 m 1
 62 740 l 1
 246 740 l 1
 246 0 l 1
 62 0 l 1
EndSplineSet
Validated: 33
Position2: "'cpsp' Capital Spacing in Latin lookup 0 subtable" dx=5 dy=0 dh=10 dv=0
EndChar

StartChar: Igrave
Encoding: 291 204 44
Width: 308
GlyphClass: 2
Flags: HMW
HStem: 0 21G<62 62 62 246> 720 20G<62 246 246 246> 789 156<112 124 -59 206 112 112>
VStem: 62 184<0 740 0 740>
LayerCount: 2
Fore
SplineSet
-59 945 m 1
 124 945 l 1
 206 789 l 1
 112 789 l 1
 -59 945 l 1
62 0 m 1
 62 740 l 1
 246 740 l 1
 246 0 l 1
 62 0 l 1
EndSplineSet
Validated: 1
Position2: "'cpsp' Capital Spacing in Latin lookup 0 subtable" dx=5 dy=0 dh=10 dv=0
EndChar

StartChar: Imacron
Encoding: 292 298 45
Width: 308
GlyphClass: 2
Flags: MW
HStem: 0 21G<62 62 62 246> 720 20G<62 246 246 246> 819 96<5 303 5 303>
VStem: 62 184<0 740 0 740>
LayerCount: 2
Fore
SplineSet
5 819 m 1
 5 915 l 1
 303 915 l 1
 303 819 l 1
 5 819 l 1
62 0 m 1
 62 740 l 1
 246 740 l 1
 246 0 l 1
 62 0 l 1
EndSplineSet
Validated: 1
Position2: "'cpsp' Capital Spacing in Latin lookup 0 subtable" dx=5 dy=0 dh=10 dv=0
EndChar

StartChar: Iogonek
Encoding: 293 302 46
Width: 308
GlyphClass: 2
Flags: HMW
HStem: -220 89<78 193> 0 21G<163.5 195 195 246> 720 20G<62 246 246 246>
VStem: 62 184<4 740 0 740>
LayerCount: 2
Fore
SplineSet
-11 -109 m 0
 -11 -63 10 -17 62 4 c 1
 62 740 l 1
 246 740 l 1
 246 0 l 1
 195 0 l 2
 132 0 103 -27 103 -71 c 0
 103 -107 134 -131 183 -131 c 0
 203 -131 221 -129 239 -123 c 1
 234 -195 l 1
 199 -212 168 -220 109 -220 c 0
 47 -220 -11 -188 -11 -109 c 0
EndSplineSet
Validated: 1
Position2: "'cpsp' Capital Spacing in Latin lookup 0 subtable" dx=5 dy=0 dh=10 dv=0
EndChar

StartChar: J
Encoding: 74 74 47
Width: 443
GlyphClass: 2
Flags: HMW
HStem: -14 140<120 137 90.5 224.5> 720 20G<197 381 381 381>
VStem: 197 184<263 280 280 740>
LayerCount: 2
Fore
SplineSet
7 15 m 1
 40 134 l 1
 62 128 79 126 102 126 c 0
 172 126 197 162 197 254 c 2
 197 740 l 1
 381 740 l 1
 381 280 l 2
 381 246 380 218 378 186 c 0
 370 75 302 -14 147 -14 c 0
 93 -14 57 -10 7 15 c 1
EndSplineSet
Validated: 1
Position2: "'cpsp' Capital Spacing in Latin lookup 0 subtable" dx=5 dy=0 dh=10 dv=0
EndChar

StartChar: K
Encoding: 75 75 48
Width: 723
GlyphClass: 2
Flags: HMW
HStem: 0 21G<62 246 62 62 499 721 499 499> 720 20G<62 246 246 246 509 509>
VStem: 62 184<0 362 0 389 389 740>
AnchorPoint: "Anchor-0" 345 0 basechar 0
LayerCount: 2
Fore
SplineSet
62 0 m 5
 62 740 l 5
 246 740 l 5
 246 389 l 5
 509 740 l 5
 718 730 l 5
 422 384 l 5
 721 0 l 5
 499 0 l 5
 246 362 l 5
 246 0 l 5
 62 0 l 5
EndSplineSet
Validated: 1
Position2: "'cpsp' Capital Spacing in Latin lookup 0 subtable" dx=5 dy=0 dh=10 dv=0
EndChar

StartChar: Kcommaaccent
Encoding: 294 310 49
Width: 723
GlyphClass: 2
Flags: HMW
HStem: 0 21G<62 246 62 62 499 721 499 499> 720 20G<62 246 246 246 509 509>
VStem: 62 184<0 362 0 389 389 740>
AnchorPoint: "Anchor-0" 345 0 basechar 0
LayerCount: 2
Fore
SplineSet
62 0 m 1
 62 740 l 1
 246 740 l 1
 246 389 l 1
 509 740 l 1
 718 730 l 1
 422 384 l 1
 721 0 l 1
 499 0 l 1
 246 362 l 1
 246 0 l 1
 62 0 l 1
210 -290 m 1
 253 -196 270 -131 273 -62 c 1
 294 -50 386 -40 412 -42 c 1
 406 -131 371 -229 311 -290 c 1
 210 -290 l 1
EndSplineSet
Validated: 33
Position2: "'cpsp' Capital Spacing in Latin lookup 0 subtable" dx=5 dy=0 dh=10 dv=0
EndChar

StartChar: L
Encoding: 76 76 50
Width: 605
GlyphClass: 2
Flags: MW
HStem: 0 136<246 575> 720 20G<62 246 246 246>
VStem: 62 184<136 740 136 740 136 740>
AnchorPoint: "Anchor-0" 342 0 basechar 0
LayerCount: 2
Fore
SplineSet
62 0 m 1
 62 740 l 1
 246 740 l 1
 246 136 l 1
 595 136 l 1
 575 0 l 1
 62 0 l 1
EndSplineSet
Validated: 1
Position2: "'cpsp' Capital Spacing in Latin lookup 0 subtable" dx=5 dy=0 dh=10 dv=0
EndChar

StartChar: Lacute
Encoding: 295 313 51
Width: 605
GlyphClass: 2
Flags: MW
HStem: 0 136<246 575> 720 20G<62 246 246 246> 789 156<113 378 195 207>
VStem: 62 184<136 740 136 740 136 740>
AnchorPoint: "Anchor-0" 342 0 basechar 0
LayerCount: 2
Fore
SplineSet
113 789 m 1
 195 945 l 1
 378 945 l 1
 207 789 l 1
 113 789 l 1
62 0 m 1
 62 740 l 1
 246 740 l 1
 246 136 l 1
 595 136 l 1
 575 0 l 1
 62 0 l 1
EndSplineSet
Validated: 1
Position2: "'cpsp' Capital Spacing in Latin lookup 0 subtable" dx=5 dy=0 dh=10 dv=0
EndChar

StartChar: Lcaron
Encoding: 296 317 52
Width: 605
GlyphClass: 2
Flags: MW
HStem: 0 136<246 575> 514 226<62 286 62 387> 742 20G
VStem: 62 184<136 740 136 740 136 740> 349 139
AnchorPoint: "Anchor-0" 342 0 basechar 0
LayerCount: 2
Fore
SplineSet
286 514 m 1
 329 608 346 673 349 742 c 1
 370 754 462 764 488 762 c 1xb8
 482 673 447 575 387 514 c 1
 286 514 l 1
62 0 m 1xd0
 62 740 l 1
 246 740 l 1
 246 136 l 1
 595 136 l 1
 575 0 l 1
 62 0 l 1xd0
EndSplineSet
Validated: 33
Position2: "'cpsp' Capital Spacing in Latin lookup 0 subtable" dx=5 dy=0 dh=10 dv=0
EndChar

StartChar: Lcommaaccent
Encoding: 297 315 53
Width: 605
GlyphClass: 2
Flags: MW
HStem: 0 136<246 575> 720 20G<62 246 246 246>
VStem: 62 184<136 740 136 740 136 740> 270 139
AnchorPoint: "Anchor-0" 342 0 basechar 0
LayerCount: 2
Fore
SplineSet
62 0 m 1
 62 740 l 1
 246 740 l 1
 246 136 l 1
 595 136 l 1
 575 0 l 1
 62 0 l 1
207 -290 m 1xf0
 250 -196 267 -131 270 -62 c 1
 291 -50 383 -40 409 -42 c 1
 403 -131 368 -229 308 -290 c 1
 207 -290 l 1xf0
EndSplineSet
Validated: 33
Position2: "'cpsp' Capital Spacing in Latin lookup 0 subtable" dx=5 dy=0 dh=10 dv=0
EndChar

StartChar: Ldot
Encoding: 298 319 54
Width: 605
GlyphClass: 2
Flags: MW
HStem: 0 136<246 575> 293 164<396 576 396 576> 720 20G<62 246 246 246>
VStem: 62 184<136 740 136 740 136 740> 396 180<293 457 293 457>
AnchorPoint: "Anchor-0" 342 0 basechar 0
LayerCount: 2
Fore
SplineSet
62 0 m 1
 62 740 l 1
 246 740 l 1
 246 136 l 1
 595 136 l 1
 575 0 l 1
 62 0 l 1
396 293 m 1
 396 457 l 1
 438 464 534 464 576 457 c 1
 576 293 l 1
 534 286 438 286 396 293 c 1
EndSplineSet
Validated: 33
Ligature2: "Ligature Substitution lookup 2 subtable" L periodcentered
Position2: "'cpsp' Capital Spacing in Latin lookup 0 subtable" dx=5 dy=0 dh=10 dv=0
EndChar

StartChar: Lslash
Encoding: 299 321 55
Width: 605
GlyphClass: 2
Flags: HMW
HStem: 0 136<246 575> 720 20G<62 246 246 246>
VStem: 62 184<136 136 136 222 222 222 481 740>
AnchorPoint: "Anchor-0" 342 0 basechar 0
LayerCount: 2
Fore
SplineSet
-6 185 m 1
 -6 342 l 1
 62 379 l 1
 62 740 l 1
 246 740 l 1
 246 481 l 1
 374 551 l 1
 374 394 l 1
 246 324 l 1
 246 136 l 1
 595 136 l 1
 575 0 l 1
 62 0 l 1
 62 222 l 1
 -6 185 l 1
EndSplineSet
Validated: 1
Position2: "'cpsp' Capital Spacing in Latin lookup 0 subtable" dx=5 dy=0 dh=10 dv=0
EndChar

StartChar: M
Encoding: 77 77 56
Width: 969
GlyphClass: 2
Flags: HMW
HStem: 1.75438 150
LayerCount: 2
Fore
SplineSet
45 0 m 5
 126 740 l 5
 338 740 l 5
 479 241 l 5
 644 740 l 5
 864 740 l 5
 917 0 l 5
 737 0 l 5
 711 500 l 5
 543 20 l 5
 393 20 l 5
 255 482 l 5
 216 0 l 5
 45 0 l 5
EndSplineSet
Validated: 1
Position2: "'cpsp' Capital Spacing in Latin lookup 0 subtable" dx=5 dy=0 dh=10 dv=0
EndChar

StartChar: N
Encoding: 78 78 57
Width: 776
GlyphClass: 2
Flags: HMW
HStem: 0 21G<62 238 62 62 552 714 552 552> 720 20G<62 224 224 224 538 714 714 714>
VStem: 62 176<0 456 0 740> 538 176<284 740 0 740>
AnchorPoint: "Anchor-0" 388 0 basechar 0
LayerCount: 2
Fore
SplineSet
62 0 m 1
 62 740 l 1
 224 740 l 1
 538 284 l 1
 538 740 l 1
 714 740 l 1
 714 0 l 1
 552 0 l 1
 238 456 l 1
 238 0 l 1
 62 0 l 1
EndSplineSet
Validated: 1
Position2: "'cpsp' Capital Spacing in Latin lookup 0 subtable" dx=5 dy=0 dh=10 dv=0
EndChar

StartChar: Nacute
Encoding: 300 323 58
Width: 776
GlyphClass: 2
Flags: HMW
HStem: 0 21G<62 238 62 62 552 714 552 552> 720 20G<62 224 224 224 538 714 714 714> 789 156<419 431 337 602>
VStem: 62 176<0 456 0 740> 538 176<284 740 0 740>
AnchorPoint: "Anchor-0" 388 0 basechar 0
LayerCount: 2
Fore
SplineSet
337 789 m 1
 419 945 l 1
 602 945 l 1
 431 789 l 1
 337 789 l 1
62 0 m 1
 62 740 l 1
 224 740 l 1
 538 284 l 1
 538 740 l 1
 714 740 l 1
 714 0 l 1
 552 0 l 1
 238 456 l 1
 238 0 l 1
 62 0 l 1
EndSplineSet
Validated: 1
Position2: "'cpsp' Capital Spacing in Latin lookup 0 subtable" dx=5 dy=0 dh=10 dv=0
EndChar

StartChar: Ncaron
Encoding: 301 327 59
Width: 776
GlyphClass: 2
Flags: HMW
HStem: 0 21G<62 238 62 62 552 714 552 552> 720 20G<62 224 224 224 538 714 714 714> 789 156<312 317 208 444 312 312>
VStem: 62 176<0 456 0 740> 538 176<284 740 0 740>
AnchorPoint: "Anchor-0" 388 0 basechar 0
LayerCount: 2
Fore
SplineSet
208 945 m 1
 317 945 l 1
 379 870 l 1
 449 945 l 1
 548 945 l 1
 444 789 l 1
 312 789 l 1
 208 945 l 1
62 0 m 1
 62 740 l 1
 224 740 l 1
 538 284 l 1
 538 740 l 1
 714 740 l 1
 714 0 l 1
 552 0 l 1
 238 456 l 1
 238 0 l 1
 62 0 l 1
EndSplineSet
Validated: 1
Position2: "'cpsp' Capital Spacing in Latin lookup 0 subtable" dx=5 dy=0 dh=10 dv=0
EndChar

StartChar: Ncommaaccent
Encoding: 302 325 60
Width: 776
GlyphClass: 2
Flags: HMW
HStem: 0 21G<62 238 62 62 552 714 552 552> 720 20G<62 224 224 224 538 714 714 714>
VStem: 62 176<0 456 0 740> 538 176<284 740 0 740>
AnchorPoint: "Anchor-0" 388 0 basechar 0
LayerCount: 2
Fore
SplineSet
62 0 m 1
 62 740 l 1
 224 740 l 1
 538 284 l 1
 538 740 l 1
 714 740 l 1
 714 0 l 1
 552 0 l 1
 238 456 l 1
 238 0 l 1
 62 0 l 1
253 -290 m 1
 296 -196 313 -131 316 -62 c 1
 337 -50 429 -40 455 -42 c 1
 449 -131 414 -229 354 -290 c 1
 253 -290 l 1
EndSplineSet
Validated: 33
Position2: "'cpsp' Capital Spacing in Latin lookup 0 subtable" dx=5 dy=0 dh=10 dv=0
EndChar

StartChar: Eng
Encoding: 303 330 61
Width: 776
GlyphClass: 2
Flags: HMW
HStem: -225.43 138.43 0 21G<62 238 62 62 714 714> 720 20G<62 224 224 224 538 714 714 714>
VStem: 62 176<0 456 0 740> 538 176<284 740>
AnchorPoint: "Anchor-0" 388 0 basechar 0
LayerCount: 2
Fore
SplineSet
62 0 m 1
 62 740 l 1
 224 740 l 1
 538 284 l 1
 538 740 l 1
 714 740 l 1
 714 0 l 2
 714 -22 714 -37 712 -61 c 0
 704 -148 647 -243 440 -223 c 1
 440 -87 l 1
 526 -92 549 -58 551 2 c 1
 238 456 l 1
 238 0 l 1
 62 0 l 1
EndSplineSet
Validated: 33
Position2: "'cpsp' Capital Spacing in Latin lookup 0 subtable" dx=5 dy=0 dh=10 dv=0
EndChar

StartChar: Ntilde
Encoding: 304 209 62
Width: 776
GlyphClass: 2
Flags: HMW
HStem: 0 21G<62 238 62 62 552 714 552 552> 720 20G<62 224 224 224 538 714 714 714> 787 112<429 480.5> 839 113<314 314.5 275.5 326.5>
VStem: 62 176<0 456 0 740> 538 176<284 740 0 740>
AnchorPoint: "Anchor-0" 388 0 basechar 0
LayerCount: 2
Fore
SplineSet
211 790 m 1xdc
 215 900 248 952 303 952 c 0xdc
 326 952 347 945 383 923 c 0
 409 907 424 899 434 899 c 0
 449 899 458 913 468 958 c 1
 545 949 l 1
 541 839 508 787 453 787 c 0xec
 430 787 410 794 373 816 c 0
 346 832 332 839 321 839 c 0
 307 839 298 827 288 781 c 1
 211 790 l 1xdc
62 0 m 1
 62 740 l 1
 224 740 l 1
 538 284 l 1
 538 740 l 1
 714 740 l 1
 714 0 l 1
 552 0 l 1
 238 456 l 1
 238 0 l 1
 62 0 l 1
EndSplineSet
Validated: 1
Position2: "'cpsp' Capital Spacing in Latin lookup 0 subtable" dx=5 dy=0 dh=10 dv=0
EndChar

StartChar: O
Encoding: 79 79 63
Width: 810
GlyphClass: 2
Flags: HMW
HStem: -14 140<349 461 349 504.5> 614 140<349 461>
VStem: 33 188<293.5 446.5 293.5 499.5> 589 188<293.5 446.5>
LayerCount: 2
Fore
SplineSet
33 370 m 4
 33 629 206 754 405 754 c 4
 604 754 777 629 777 370 c 4
 777 111 604 -14 405 -14 c 4
 206 -14 33 111 33 370 c 4
221 370 m 4
 221 217 293 126 405 126 c 4
 517 126 589 217 589 370 c 4
 589 523 517 614 405 614 c 4
 293 614 221 523 221 370 c 4
EndSplineSet
Validated: 1
Position2: "'cpsp' Capital Spacing in Latin lookup 0 subtable" dx=5 dy=0 dh=10 dv=0
EndChar

StartChar: Oacute
Encoding: 305 211 64
Width: 810
GlyphClass: 2
Flags: HMW
HStem: -14 140<349 461 349 504.5> 614 140<349 461> 789 156<443 455 361 626>
VStem: 33 188<293.5 446.5 293.5 499.5> 589 188<293.5 446.5>
LayerCount: 2
Fore
SplineSet
361 789 m 1
 443 945 l 1
 626 945 l 1
 455 789 l 1
 361 789 l 1
33 370 m 0
 33 629 206 754 405 754 c 0
 604 754 777 629 777 370 c 0
 777 111 604 -14 405 -14 c 0
 206 -14 33 111 33 370 c 0
221 370 m 0
 221 217 293 126 405 126 c 0
 517 126 589 217 589 370 c 0
 589 523 517 614 405 614 c 0
 293 614 221 523 221 370 c 0
EndSplineSet
Validated: 1
Position2: "'cpsp' Capital Spacing in Latin lookup 0 subtable" dx=5 dy=0 dh=10 dv=0
EndChar

StartChar: Ocircumflex
Encoding: 306 212 65
Width: 810
GlyphClass: 2
Flags: HMW
HStem: -14 140<349 461 349 504.5> 614 140<349 461> 789 156<232 468 232 468 463 463 463 468 336 572>
VStem: 33 188<293.5 446.5 293.5 499.5> 589 188<293.5 446.5>
LayerCount: 2
Fore
SplineSet
232 789 m 1
 336 945 l 1
 468 945 l 1
 572 789 l 1
 463 789 l 1
 401 864 l 1
 331 789 l 1
 232 789 l 1
33 370 m 0
 33 629 206 754 405 754 c 0
 604 754 777 629 777 370 c 0
 777 111 604 -14 405 -14 c 0
 206 -14 33 111 33 370 c 0
221 370 m 0
 221 217 293 126 405 126 c 0
 517 126 589 217 589 370 c 0
 589 523 517 614 405 614 c 0
 293 614 221 523 221 370 c 0
EndSplineSet
Validated: 1
Position2: "'cpsp' Capital Spacing in Latin lookup 0 subtable" dx=5 dy=0 dh=10 dv=0
EndChar

StartChar: Odieresis
Encoding: 307 214 66
Width: 810
GlyphClass: 2
Flags: HMW
HStem: -14 140<349 461 349 504.5> 614 140<349 461> 790 154<197 362 197 362 197 442 442 607>
VStem: 33 188<293.5 446.5 293.5 499.5> 197 165<790 944 790 944> 442 165<790 944 790 944> 589 188<293.5 446.5>
LayerCount: 2
Fore
SplineSet
197 790 m 1xe8
 197 944 l 1
 239 951 320 951 362 944 c 1
 362 790 l 1
 320 783 239 783 197 790 c 1xe8
442 790 m 1xe4
 442 944 l 1
 484 951 565 951 607 944 c 1
 607 790 l 1
 565 783 484 783 442 790 c 1xe4
33 370 m 0xf2
 33 629 206 754 405 754 c 0
 604 754 777 629 777 370 c 0
 777 111 604 -14 405 -14 c 0
 206 -14 33 111 33 370 c 0xf2
221 370 m 0
 221 217 293 126 405 126 c 0
 517 126 589 217 589 370 c 0
 589 523 517 614 405 614 c 0
 293 614 221 523 221 370 c 0
EndSplineSet
Validated: 33
Position2: "'cpsp' Capital Spacing in Latin lookup 0 subtable" dx=5 dy=0 dh=10 dv=0
EndChar

StartChar: Ograve
Encoding: 308 210 67
Width: 810
GlyphClass: 2
Flags: HMW
HStem: -14 140<349 461 349 504.5> 614 140<349 461> 789 156<360 372 189 454 360 360>
VStem: 33 188<293.5 446.5 293.5 499.5> 589 188<293.5 446.5>
LayerCount: 2
Fore
SplineSet
189 945 m 1
 372 945 l 1
 454 789 l 1
 360 789 l 1
 189 945 l 1
33 370 m 0
 33 629 206 754 405 754 c 0
 604 754 777 629 777 370 c 0
 777 111 604 -14 405 -14 c 0
 206 -14 33 111 33 370 c 0
221 370 m 0
 221 217 293 126 405 126 c 0
 517 126 589 217 589 370 c 0
 589 523 517 614 405 614 c 0
 293 614 221 523 221 370 c 0
EndSplineSet
Validated: 1
Position2: "'cpsp' Capital Spacing in Latin lookup 0 subtable" dx=5 dy=0 dh=10 dv=0
EndChar

StartChar: Ohungarumlaut
Encoding: 309 336 68
Width: 810
GlyphClass: 2
Flags: HMW
HStem: -14 140<349 461 349 504.5> 614 140<349 461> 789 156<308 320 226 491 457 457 457 491 539 551>
VStem: 33 188<293.5 446.5 293.5 499.5> 589 188<293.5 446.5>
LayerCount: 2
Fore
SplineSet
226 789 m 1
 308 945 l 1
 491 945 l 1
 320 789 l 1
 226 789 l 1
457 789 m 1
 539 945 l 1
 722 945 l 1
 551 789 l 1
 457 789 l 1
33 370 m 0
 33 629 206 754 405 754 c 0
 604 754 777 629 777 370 c 0
 777 111 604 -14 405 -14 c 0
 206 -14 33 111 33 370 c 0
221 370 m 0
 221 217 293 126 405 126 c 0
 517 126 589 217 589 370 c 0
 589 523 517 614 405 614 c 0
 293 614 221 523 221 370 c 0
EndSplineSet
Validated: 1
Position2: "'cpsp' Capital Spacing in Latin lookup 0 subtable" dx=5 dy=0 dh=10 dv=0
EndChar

StartChar: Omacron
Encoding: 310 332 69
Width: 810
GlyphClass: 2
Flags: HMW
HStem: -14 140<349 461 349 504.5> 614 140<349 461> 819 96<253 551 253 551>
VStem: 33 188<293.5 446.5 293.5 499.5> 253 298<819 915 819 915> 589 188<293.5 446.5>
LayerCount: 2
Fore
SplineSet
253 819 m 1
 253 915 l 1
 551 915 l 1
 551 819 l 1
 253 819 l 1
33 370 m 0
 33 629 206 754 405 754 c 0
 604 754 777 629 777 370 c 0
 777 111 604 -14 405 -14 c 0
 206 -14 33 111 33 370 c 0
221 370 m 0
 221 217 293 126 405 126 c 0
 517 126 589 217 589 370 c 0
 589 523 517 614 405 614 c 0
 293 614 221 523 221 370 c 0
EndSplineSet
Validated: 1
Position2: "'cpsp' Capital Spacing in Latin lookup 0 subtable" dx=5 dy=0 dh=10 dv=0
EndChar

StartChar: Oslash
Encoding: 311 216 70
Width: 808
GlyphClass: 2
Flags: HMW
HStem: -14 140<388.5 461 388.5 504.5> 614 140<349 421>
VStem: 33 188<345.5 446.5 345.5 499.5> 589 188<293.5 395>
LayerCount: 2
Fore
SplineSet
33 370 m 0
 33 629 206 754 405 754 c 0
 467 754 527 742 579 717 c 1
 617 770 l 1
 730 730 l 1
 674 651 l 1
 737 587 777 494 777 370 c 0
 777 111 604 -14 405 -14 c 0
 342 -14 282 -2 229 24 c 1
 191 -30 l 1
 78 10 l 1
 135 90 l 1
 72 154 33 247 33 370 c 0
221 370 m 0
 221 321 229 278 243 242 c 1
 491 592 l 1
 466 606 437 614 405 614 c 0
 293 614 221 523 221 370 c 0
318 149 m 1
 343 134 372 126 405 126 c 0
 517 126 589 217 589 370 c 0
 589 420 581 464 567 500 c 1
 318 149 l 1
EndSplineSet
Validated: 1
Position2: "'cpsp' Capital Spacing in Latin lookup 0 subtable" dx=5 dy=0 dh=10 dv=0
EndChar

StartChar: Otilde
Encoding: 312 213 71
Width: 810
GlyphClass: 2
Flags: HMW
HStem: -14 140<349 461 349 504.5> 614 140<349 461> 787 112<453 504.5> 839 113<338 338.5 299.5 350.5>
VStem: 33 188<293.5 446.5 293.5 499.5> 589 188<293.5 446.5>
LayerCount: 2
Fore
SplineSet
235 790 m 1xdc
 239 900 272 952 327 952 c 0xdc
 350 952 371 945 407 923 c 0
 433 907 448 899 458 899 c 0
 473 899 482 913 492 958 c 1
 569 949 l 1
 565 839 532 787 477 787 c 0xec
 454 787 434 794 397 816 c 0
 370 832 356 839 345 839 c 0
 331 839 322 827 312 781 c 1
 235 790 l 1xdc
33 370 m 0
 33 629 206 754 405 754 c 0
 604 754 777 629 777 370 c 0
 777 111 604 -14 405 -14 c 0
 206 -14 33 111 33 370 c 0
221 370 m 0
 221 217 293 126 405 126 c 0
 517 126 589 217 589 370 c 0
 589 523 517 614 405 614 c 0
 293 614 221 523 221 370 c 0
EndSplineSet
Validated: 1
Position2: "'cpsp' Capital Spacing in Latin lookup 0 subtable" dx=5 dy=0 dh=10 dv=0
EndChar

StartChar: OE
Encoding: 313 338 72
Width: 1123
GlyphClass: 2
Flags: HMW
HStem: -14 140<349 434 349 435.5> 0 136<757 1074> 309 136<757 1026 757 1046> 604 136<757 1067 757 757> 614 140<349 434>
VStem: 33 188<293.5 446.5 293.5 499.5> 573 184<149 309 445 591 591 591>
AnchorPoint: "Anchor-0" 813 0 basechar 0
LayerCount: 2
Fore
SplineSet
33 370 m 0xae
 33 629 206 754 405 754 c 0
 466 754 540 740 581 740 c 2
 1087 740 l 1
 1067 604 l 1
 757 604 l 1
 757 445 l 1
 1046 445 l 1
 1026 309 l 1
 757 309 l 1
 757 136 l 1x76
 1094 136 l 1
 1074 0 l 1
 581 0 l 2x76
 540 0 466 -14 405 -14 c 0
 206 -14 33 111 33 370 c 0xae
221 370 m 0xae
 221 217 293 126 405 126 c 0
 463 126 517 133 573 149 c 1
 573 591 l 1
 517 607 463 614 405 614 c 0
 293 614 221 523 221 370 c 0xae
EndSplineSet
Validated: 1
Position2: "'cpsp' Capital Spacing in Latin lookup 0 subtable" dx=5 dy=0 dh=10 dv=0
EndChar

StartChar: P
Encoding: 80 80 73
Width: 620
GlyphClass: 2
Flags: HMW
HStem: 0 21G<62 246 62 62> 255 137<246 257 246 307> 604 136<246 251 251 279 62 307 246 246>
VStem: 62 184<0 255 0 392 392 604> 417 188<458.5 536>
LayerCount: 2
Fore
SplineSet
62 0 m 1
 62 740 l 1
 251 740 l 2
 307 740 360 739 392 736 c 0
 522 722 605 641 605 510 c 0
 605 367 516 279 363 261 c 0
 332 257 290 255 257 255 c 2
 246 255 l 1
 246 0 l 1
 62 0 l 1
246 392 m 1
 307 392 l 2
 364 392 417 418 417 499 c 0
 417 573 371 604 307 604 c 2
 246 604 l 1
 246 392 l 1
EndSplineSet
Validated: 1
Position2: "'cpsp' Capital Spacing in Latin lookup 0 subtable" dx=5 dy=0 dh=10 dv=0
EndChar

StartChar: Thorn
Encoding: 314 222 74
Width: 651
GlyphClass: 2
Flags: HMW
HStem: 0 21G<70 254 70 70> 138 137<254 265 254 315> 487 136<254 271 271 296.5 254 315 254 271> 720 20G<70 254 254 254>
VStem: 70 184<0 138 0 275 275 487 623 740> 425 188<341.5 419>
LayerCount: 2
Fore
SplineSet
70 0 m 1
 70 740 l 1
 254 740 l 1
 254 623 l 1
 271 623 l 2
 322 623 370 621 400 619 c 0
 530 605 613 524 613 393 c 0
 613 250 524 162 371 144 c 0
 340 140 298 138 265 138 c 2
 254 138 l 1
 254 0 l 1
 70 0 l 1
254 275 m 1
 315 275 l 2
 372 275 425 301 425 382 c 0
 425 456 379 487 315 487 c 2
 254 487 l 1
 254 275 l 1
EndSplineSet
Validated: 1
Position2: "'cpsp' Capital Spacing in Latin lookup 0 subtable" dx=5 dy=0 dh=10 dv=0
EndChar

StartChar: Q
Encoding: 81 81 75
Width: 810
GlyphClass: 2
Flags: HMW
HStem: -213 21G<652 652> -14 140<349 405> 614 140<349 461>
VStem: 33 188<293.5 446.5 293.5 499.5> 589 188<293.5 446.5>
LayerCount: 2
Fore
SplineSet
33 370 m 0
 33 629 206 754 405 754 c 0
 604 754 777 629 777 370 c 0
 777 205 706 94 604 35 c 1
 823 -143 l 1
 652 -213 l 1
 526 -77 l 2
 486 -34 452 -18 405 -14 c 1
 206 -14 33 111 33 370 c 0
221 370 m 0
 221 217 293 126 405 126 c 0
 517 126 589 217 589 370 c 0
 589 523 517 614 405 614 c 0
 293 614 221 523 221 370 c 0
EndSplineSet
Validated: 1
Position2: "'cpsp' Capital Spacing in Latin lookup 0 subtable" dx=5 dy=0 dh=10 dv=0
EndChar

StartChar: R
Encoding: 82 82 76
Width: 656
GlyphClass: 2
Flags: HMW
HStem: 0 21G<62 246 62 62 426 632 426 426> 272 130<246 316 246 339> 604 136<246 246 246 266 266 294 62 322>
VStem: 62 184<0 272 0 402 402 604> 425 190<475.5 539>
AnchorPoint: "Anchor-0" 323 0 basechar 0
LayerCount: 2
Fore
SplineSet
62 0 m 5
 62 740 l 5
 266 740 l 6
 322 740 357 740 409 735 c 4
 512 726 615 658 615 508 c 4
 615 418 564 347 486 311 c 5
 632 0 l 5
 426 0 l 5
 316 272 l 5
 246 272 l 5
 246 0 l 5
 62 0 l 5
246 402 m 5
 339 402 l 6
 396 402 425 447 425 504 c 4
 425 574 387 604 322 604 c 6
 246 604 l 5
 246 402 l 5
EndSplineSet
Validated: 1
Position2: "'cpsp' Capital Spacing in Latin lookup 0 subtable" dx=5 dy=0 dh=10 dv=0
EndChar

StartChar: Racute
Encoding: 315 340 77
Width: 656
GlyphClass: 2
Flags: HMW
HStem: 0 21G<62 246 62 62 426 632 426 426> 272 130<246 316 246 339> 604 136<246 246 246 266 266 294 62 322> 789 156<364 376 282 547>
VStem: 62 184<0 272 0 402 402 604> 425 190<475.5 539>
AnchorPoint: "Anchor-0" 323 0 basechar 0
LayerCount: 2
Fore
SplineSet
282 789 m 1
 364 945 l 1
 547 945 l 1
 376 789 l 1
 282 789 l 1
62 0 m 1
 62 740 l 1
 266 740 l 2
 322 740 357 740 409 735 c 0
 512 726 615 658 615 508 c 0
 615 418 564 347 486 311 c 1
 632 0 l 1
 426 0 l 1
 316 272 l 1
 246 272 l 1
 246 0 l 1
 62 0 l 1
246 402 m 1
 339 402 l 2
 396 402 425 447 425 504 c 0
 425 574 387 604 322 604 c 2
 246 604 l 1
 246 402 l 1
EndSplineSet
Validated: 1
Position2: "'cpsp' Capital Spacing in Latin lookup 0 subtable" dx=5 dy=0 dh=10 dv=0
EndChar

StartChar: Rcaron
Encoding: 316 344 78
Width: 656
GlyphClass: 2
Flags: HMW
HStem: 0 21G<62 246 62 62 426 632 426 426> 272 130<246 316 246 339> 604 136<246 246 246 266 266 294 62 322> 789 156<257 262 153 389 257 257>
VStem: 62 184<0 272 0 402 402 604> 425 190<475.5 539>
AnchorPoint: "Anchor-0" 323 0 basechar 0
LayerCount: 2
Fore
SplineSet
153 945 m 1
 262 945 l 1
 324 870 l 1
 394 945 l 1
 493 945 l 1
 389 789 l 1
 257 789 l 1
 153 945 l 1
62 0 m 1
 62 740 l 1
 266 740 l 2
 322 740 357 740 409 735 c 0
 512 726 615 658 615 508 c 0
 615 418 564 347 486 311 c 1
 632 0 l 1
 426 0 l 1
 316 272 l 1
 246 272 l 1
 246 0 l 1
 62 0 l 1
246 402 m 1
 339 402 l 2
 396 402 425 447 425 504 c 0
 425 574 387 604 322 604 c 2
 246 604 l 1
 246 402 l 1
EndSplineSet
Validated: 1
Position2: "'cpsp' Capital Spacing in Latin lookup 0 subtable" dx=5 dy=0 dh=10 dv=0
EndChar

StartChar: Rcommaaccent
Encoding: 317 342 79
Width: 656
GlyphClass: 2
Flags: HMW
HStem: 0 21G<62 246 62 62 426 632 426 426> 272 130<246 316 246 339> 604 136<246 266 266 294 62 322 246 246>
VStem: 62 184<0 272 0 402 402 604> 425 190<475.5 539>
AnchorPoint: "Anchor-0" 323 0 basechar 0
LayerCount: 2
Fore
SplineSet
62 0 m 1
 62 740 l 1
 266 740 l 2
 322 740 357 740 409 735 c 0
 512 726 615 658 615 508 c 0
 615 418 564 347 486 311 c 1
 632 0 l 1
 426 0 l 1
 316 272 l 1
 246 272 l 1
 246 0 l 1
 62 0 l 1
246 402 m 1
 339 402 l 2
 396 402 425 447 425 504 c 0
 425 574 387 604 322 604 c 2
 246 604 l 1
 246 402 l 1
188 -290 m 1
 231 -196 248 -131 251 -62 c 1
 272 -50 364 -40 390 -42 c 1
 384 -131 349 -229 289 -290 c 1
 188 -290 l 1
EndSplineSet
Validated: 33
Position2: "'cpsp' Capital Spacing in Latin lookup 0 subtable" dx=5 dy=0 dh=10 dv=0
EndChar

StartChar: S
Encoding: 83 83 80
Width: 573
GlyphClass: 2
Flags: HMW
HStem: -14 140<212 281 212 319> 614 140<313 357 242 365.5>
VStem: 51 184<527 567.5 527 592> 358 184<183.5 226>
AnchorPoint: "Anchor-0" 267 0 basechar 0
LayerCount: 2
Fore
SplineSet
23 38 m 1
 52 166 l 1
 122 136 184 126 240 126 c 0
 322 126 358 163 358 204 c 0
 358 248 332 275 231 318 c 0
 126 363 51 411 51 530 c 0
 51 654 162 754 322 754 c 0
 392 754 465 739 518 711 c 1
 489 588 l 1
 441 604 392 614 339 614 c 0
 287 614 235 588 235 547 c 0
 235 507 259 475 347 441 c 0
 468 394 542 337 542 229 c 0
 542 76 409 -14 229 -14 c 0
 162 -14 79 4 23 38 c 1
EndSplineSet
Validated: 1
Position2: "'cpsp' Capital Spacing in Latin lookup 0 subtable" dx=5 dy=0 dh=10 dv=0
EndChar

StartChar: Sacute
Encoding: 318 346 81
Width: 573
GlyphClass: 2
Flags: HMW
HStem: -14 140<212 281 212 319> 614 140<313 357 242 365.5> 789 156<261 526 343 355>
VStem: 51 184<527 567.5 527 592> 358 184<183.5 226>
AnchorPoint: "Anchor-0" 267 0 basechar 0
LayerCount: 2
Fore
SplineSet
261 789 m 1
 343 945 l 1
 526 945 l 1
 355 789 l 1
 261 789 l 1
23 38 m 1
 52 166 l 1
 122 136 184 126 240 126 c 0
 322 126 358 163 358 204 c 0
 358 248 332 275 231 318 c 0
 126 363 51 411 51 530 c 0
 51 654 162 754 322 754 c 0
 392 754 465 739 518 711 c 1
 489 588 l 1
 441 604 392 614 339 614 c 0
 287 614 235 588 235 547 c 0
 235 507 259 475 347 441 c 0
 468 394 542 337 542 229 c 0
 542 76 409 -14 229 -14 c 0
 162 -14 79 4 23 38 c 1
EndSplineSet
Validated: 1
Position2: "'cpsp' Capital Spacing in Latin lookup 0 subtable" dx=5 dy=0 dh=10 dv=0
EndChar

StartChar: Scaron
Encoding: 319 352 82
Width: 573
GlyphClass: 2
Flags: HMW
HStem: -14 140<212 281 212 319> 614 140<313 357 242 365.5> 789 156<236 241 132 368 236 236>
VStem: 51 184<527 567.5 527 592> 358 184<183.5 226>
AnchorPoint: "Anchor-0" 267 0 basechar 0
LayerCount: 2
Fore
SplineSet
132 945 m 1
 241 945 l 1
 303 870 l 1
 373 945 l 1
 472 945 l 1
 368 789 l 1
 236 789 l 1
 132 945 l 1
23 38 m 1
 52 166 l 1
 122 136 184 126 240 126 c 0
 322 126 358 163 358 204 c 0
 358 248 332 275 231 318 c 0
 126 363 51 411 51 530 c 0
 51 654 162 754 322 754 c 0
 392 754 465 739 518 711 c 1
 489 588 l 1
 441 604 392 614 339 614 c 0
 287 614 235 588 235 547 c 0
 235 507 259 475 347 441 c 0
 468 394 542 337 542 229 c 0
 542 76 409 -14 229 -14 c 0
 162 -14 79 4 23 38 c 1
EndSplineSet
Validated: 1
Position2: "'cpsp' Capital Spacing in Latin lookup 0 subtable" dx=5 dy=0 dh=10 dv=0
EndChar

StartChar: Scedilla
Encoding: 320 350 83
Width: 573
GlyphClass: 2
Flags: HMW
HStem: -210 63<224 234 210.5 279.5> -14 140<212 227> 614 140<313 357 242 365.5>
VStem: 51 184<527 567.5 527 592> 268 108<-125.5 -101.5> 358 184<183.5 226>
AnchorPoint: "Anchor-0" 267 0 basechar 0
LayerCount: 2
Fore
SplineSet
23 38 m 1xf8
 52 166 l 1
 122 136 184 126 240 126 c 0
 322 126 358 163 358 204 c 0
 358 248 332 275 231 318 c 0
 126 363 51 411 51 530 c 0
 51 654 162 754 322 754 c 0
 392 754 465 739 518 711 c 1
 489 588 l 1
 441 604 392 614 339 614 c 0
 287 614 235 588 235 547 c 0
 235 507 259 475 347 441 c 0
 468 394 542 337 542 229 c 0xf4
 542 97 443 12 301 -9 c 1
 287 -31 l 1
 344 -40 376 -68 376 -114 c 0
 376 -173 316 -210 243 -210 c 0
 205 -210 173 -202 150 -187 c 1
 173 -140 l 1
 186 -145 200 -147 221 -147 c 0
 247 -147 268 -137 268 -114 c 0
 268 -89 241 -73 193 -78 c 1
 227 -14 l 1
 160 -14 78 4 23 38 c 1xf8
EndSplineSet
Validated: 33
Position2: "'cpsp' Capital Spacing in Latin lookup 0 subtable" dx=5 dy=0 dh=10 dv=0
EndChar

StartChar: T
Encoding: 84 84 84
Width: 658
GlyphClass: 2
Flags: HMW
HStem: 0 21G<232 232 232 416> 604 136<15 232 15 648 416 416 416 628>
VStem: 232 184<0 604 0 604>
AnchorPoint: "Anchor-0" 325 0 basechar 0
LayerCount: 2
Fore
SplineSet
15 604 m 1
 15 740 l 1
 648 740 l 1
 628 604 l 1
 416 604 l 1
 416 0 l 1
 232 0 l 1
 232 604 l 1
 15 604 l 1
EndSplineSet
Validated: 1
Position2: "'cpsp' Capital Spacing in Latin lookup 0 subtable" dx=5 dy=0 dh=10 dv=0
EndChar

StartChar: Tbar
Encoding: 321 358 85
Width: 658
GlyphClass: 2
Flags: HMW
HStem: 0 21G<232 416 232 232> 307 126<130 232 130 232 416 520> 604 136<15 232 15 648 416 628 416 416>
VStem: 232 184<0 307 0 307 433 604>
AnchorPoint: "Anchor-0" 325 0 basechar 0
LayerCount: 2
Fore
SplineSet
15 604 m 1
 15 740 l 1
 648 740 l 1
 628 604 l 1
 416 604 l 1
 416 433 l 1
 520 433 l 1
 520 307 l 1
 416 307 l 1
 416 0 l 1
 232 0 l 1
 232 307 l 1
 130 307 l 1
 130 433 l 1
 232 433 l 1
 232 604 l 1
 15 604 l 1
EndSplineSet
Validated: 1
Position2: "'cpsp' Capital Spacing in Latin lookup 0 subtable" dx=5 dy=0 dh=10 dv=0
EndChar

StartChar: Tcaron
Encoding: 322 356 86
Width: 658
GlyphClass: 2
Flags: HMW
HStem: 0 21G<232 416 232 232> 604 136<15 232 15 648 416 628 416 416> 799 156<259 264 155 391 259 259>
VStem: 232 184<0 604 0 604>
AnchorPoint: "Anchor-0" 325 0 basechar 0
LayerCount: 2
Fore
SplineSet
155 955 m 1
 264 955 l 1
 326 880 l 1
 396 955 l 1
 495 955 l 1
 391 799 l 1
 259 799 l 1
 155 955 l 1
15 604 m 1
 15 740 l 1
 648 740 l 1
 628 604 l 1
 416 604 l 1
 416 0 l 1
 232 0 l 1
 232 604 l 1
 15 604 l 1
EndSplineSet
Validated: 1
Position2: "'cpsp' Capital Spacing in Latin lookup 0 subtable" dx=5 dy=0 dh=10 dv=0
EndChar

StartChar: uni0162
Encoding: 323 354 87
Width: 658
GlyphClass: 2
Flags: HMW
HStem: -210 63<282 292 268.5 337.5> 0 21G<232 292 232 232 364 416 364 364> 604 136<15 232 15 648 416 416 416 628>
VStem: 232 184<0 604> 326 108<-125.5 -101.5>
AnchorPoint: "Anchor-0" 325 0 basechar 0
LayerCount: 2
Fore
SplineSet
15 604 m 1xf0
 15 740 l 1
 648 740 l 1
 628 604 l 1
 416 604 l 1
 416 0 l 1xf0
 364 0 l 1
 345 -31 l 1
 402 -40 434 -68 434 -114 c 0
 434 -173 374 -210 301 -210 c 0
 263 -210 231 -202 208 -187 c 1
 231 -140 l 1
 244 -145 258 -147 279 -147 c 0
 305 -147 326 -137 326 -114 c 0xe8
 326 -89 299 -73 251 -78 c 1
 292 0 l 1
 232 0 l 1
 232 604 l 1
 15 604 l 1xf0
EndSplineSet
Validated: 33
Position2: "'cpsp' Capital Spacing in Latin lookup 0 subtable" dx=5 dy=0 dh=10 dv=0
EndChar

StartChar: U
Encoding: 85 85 88
Width: 702
GlyphClass: 2
Flags: HMW
HStem: -14 140<318.5 394.5 318.5 442.5> 720 20G<55 239 239 239 471 647 647 647>
VStem: 55 184<332 740> 471 176<311.5 332 332 740>
LayerCount: 2
Fore
SplineSet
55 332 m 6
 55 740 l 5
 239 740 l 5
 239 264 l 6
 239 170 279 126 358 126 c 4
 431 126 471 177 471 262 c 6
 471 740 l 5
 647 740 l 5
 647 332 l 6
 647 291 647 253 645 220 c 4
 635 76 535 -14 350 -14 c 4
 163 -14 67 76 57 220 c 4
 55 253 55 291 55 332 c 6
EndSplineSet
Validated: 1
Position2: "'cpsp' Capital Spacing in Latin lookup 0 subtable" dx=5 dy=0 dh=10 dv=0
EndChar

StartChar: Uacute
Encoding: 324 218 89
Width: 702
GlyphClass: 2
Flags: HMW
HStem: -14 140<318.5 394.5 318.5 442.5> 720 20G<55 239 239 239 471 647 647 647> 789 156<314 579 396 408>
VStem: 55 184<332 740> 471 176<311.5 332 332 740>
LayerCount: 2
Fore
SplineSet
314 789 m 1
 396 945 l 1
 579 945 l 1
 408 789 l 1
 314 789 l 1
55 332 m 2
 55 740 l 1
 239 740 l 1
 239 264 l 2
 239 170 279 126 358 126 c 0
 431 126 471 177 471 262 c 2
 471 740 l 1
 647 740 l 1
 647 332 l 2
 647 291 647 253 645 220 c 0
 635 76 535 -14 350 -14 c 0
 163 -14 67 76 57 220 c 0
 55 253 55 291 55 332 c 2
EndSplineSet
Validated: 1
Position2: "'cpsp' Capital Spacing in Latin lookup 0 subtable" dx=5 dy=0 dh=10 dv=0
EndChar

StartChar: Ucircumflex
Encoding: 325 219 90
Width: 702
GlyphClass: 2
Flags: HMW
HStem: -14 140<318.5 394.5 318.5 442.5> 720 20G<55 239 239 239 471 647 647 647> 789 156<185 421 185 421 416 416 416 421 289 525>
VStem: 55 184<332 740> 471 176<311.5 332 332 740>
LayerCount: 2
Fore
SplineSet
185 789 m 1
 289 945 l 1
 421 945 l 1
 525 789 l 1
 416 789 l 1
 354 864 l 1
 284 789 l 1
 185 789 l 1
55 332 m 2
 55 740 l 1
 239 740 l 1
 239 264 l 2
 239 170 279 126 358 126 c 0
 431 126 471 177 471 262 c 2
 471 740 l 1
 647 740 l 1
 647 332 l 2
 647 291 647 253 645 220 c 0
 635 76 535 -14 350 -14 c 0
 163 -14 67 76 57 220 c 0
 55 253 55 291 55 332 c 2
EndSplineSet
Validated: 1
Position2: "'cpsp' Capital Spacing in Latin lookup 0 subtable" dx=5 dy=0 dh=10 dv=0
EndChar

StartChar: Udieresis
Encoding: 326 220 91
Width: 702
GlyphClass: 2
Flags: HMW
HStem: -14 140<318.5 394.5 318.5 442.5> 720 20G<55 239 239 239 471 647 647 647> 790 154<150 315 150 315 395 560 150 395>
VStem: 55 184<332 740> 150 165<790 944 790 944> 395 165<790 944 790 944> 471 176<311.5 332 332 740>
LayerCount: 2
Fore
SplineSet
150 790 m 1xf2
 150 944 l 1xf4
 192 951 273 951 315 944 c 1
 315 790 l 1xea
 273 783 192 783 150 790 c 1xf2
395 790 m 1
 395 944 l 1xf4
 437 951 518 951 560 944 c 1
 560 790 l 1xf2
 518 783 437 783 395 790 c 1
55 332 m 2
 55 740 l 1
 239 740 l 1
 239 264 l 2
 239 170 279 126 358 126 c 0
 431 126 471 177 471 262 c 2
 471 740 l 1
 647 740 l 1
 647 332 l 2
 647 291 647 253 645 220 c 0xf2
 635 76 535 -14 350 -14 c 0
 163 -14 67 76 57 220 c 0
 55 253 55 291 55 332 c 2
EndSplineSet
Validated: 33
Position2: "'cpsp' Capital Spacing in Latin lookup 0 subtable" dx=5 dy=0 dh=10 dv=0
EndChar

StartChar: Ugrave
Encoding: 327 217 92
Width: 702
GlyphClass: 2
Flags: HMW
HStem: -14 140<318.5 394.5 318.5 442.5> 720 20G<55 239 239 239 471 647 647 647> 789 156<313 325 142 407 313 313>
VStem: 55 184<332 740> 471 176<311.5 332 332 740>
LayerCount: 2
Fore
SplineSet
142 945 m 1
 325 945 l 1
 407 789 l 1
 313 789 l 1
 142 945 l 1
55 332 m 2
 55 740 l 1
 239 740 l 1
 239 264 l 2
 239 170 279 126 358 126 c 0
 431 126 471 177 471 262 c 2
 471 740 l 1
 647 740 l 1
 647 332 l 2
 647 291 647 253 645 220 c 0
 635 76 535 -14 350 -14 c 0
 163 -14 67 76 57 220 c 0
 55 253 55 291 55 332 c 2
EndSplineSet
Validated: 1
Position2: "'cpsp' Capital Spacing in Latin lookup 0 subtable" dx=5 dy=0 dh=10 dv=0
EndChar

StartChar: Uhungarumlaut
Encoding: 328 368 93
Width: 702
GlyphClass: 2
Flags: HMW
HStem: -14 140<318.5 394.5 318.5 442.5> 720 20G<55 239 239 239 471 647 647 647> 789 156<179 444 261 273 410 444 492 504 410 410>
VStem: 55 184<332 740> 471 176<311.5 332 332 740>
LayerCount: 2
Fore
SplineSet
179 789 m 1
 261 945 l 1
 444 945 l 1
 273 789 l 1
 179 789 l 1
410 789 m 1
 492 945 l 1
 675 945 l 1
 504 789 l 1
 410 789 l 1
55 332 m 2
 55 740 l 1
 239 740 l 1
 239 264 l 2
 239 170 279 126 358 126 c 0
 431 126 471 177 471 262 c 2
 471 740 l 1
 647 740 l 1
 647 332 l 2
 647 291 647 253 645 220 c 0
 635 76 535 -14 350 -14 c 0
 163 -14 67 76 57 220 c 0
 55 253 55 291 55 332 c 2
EndSplineSet
Validated: 1
Position2: "'cpsp' Capital Spacing in Latin lookup 0 subtable" dx=5 dy=0 dh=10 dv=0
EndChar

StartChar: Umacron
Encoding: 329 362 94
Width: 702
GlyphClass: 2
Flags: HMW
HStem: -14 140<318.5 394.5 318.5 442.5> 720 20G<55 239 239 239 471 647 647 647> 819 96<206 504 206 504>
VStem: 55 184<332 740> 471 176<311.5 332 332 740>
LayerCount: 2
Fore
SplineSet
206 819 m 1
 206 915 l 1
 504 915 l 1
 504 819 l 1
 206 819 l 1
55 332 m 2
 55 740 l 1
 239 740 l 1
 239 264 l 2
 239 170 279 126 358 126 c 0
 431 126 471 177 471 262 c 2
 471 740 l 1
 647 740 l 1
 647 332 l 2
 647 291 647 253 645 220 c 0
 635 76 535 -14 350 -14 c 0
 163 -14 67 76 57 220 c 0
 55 253 55 291 55 332 c 2
EndSplineSet
Validated: 1
Position2: "'cpsp' Capital Spacing in Latin lookup 0 subtable" dx=5 dy=0 dh=10 dv=0
EndChar

StartChar: Uogonek
Encoding: 330 370 95
Width: 702
GlyphClass: 2
Flags: HMW
HStem: -220 89<406 521> -14 140<318.5 350 350 366> 720 20G<55 239 239 239 471 647 647 647>
VStem: 55 184<332 740> 317 114<-148.5 -52.5> 471 176<311.5 332 332 740>
LayerCount: 2
Fore
SplineSet
55 332 m 2
 55 740 l 1
 239 740 l 1
 239 264 l 2
 239 170 279 126 358 126 c 0
 431 126 471 177 471 262 c 2
 471 740 l 1
 647 740 l 1
 647 332 l 2
 647 291 647 253 645 220 c 0
 638 118 586 43 490 8 c 0
 450 -10 431 -34 431 -71 c 0
 431 -107 462 -131 511 -131 c 0
 531 -131 549 -129 567 -123 c 1
 562 -195 l 1
 527 -212 496 -220 437 -220 c 0
 375 -220 317 -188 317 -109 c 0
 317 -70 336 -36 366 -14 c 1
 350 -14 l 2
 163 -14 67 76 57 220 c 0
 55 253 55 291 55 332 c 2
EndSplineSet
Validated: 1
Position2: "'cpsp' Capital Spacing in Latin lookup 0 subtable" dx=5 dy=0 dh=10 dv=0
EndChar

StartChar: Uring
Encoding: 331 366 96
Width: 702
GlyphClass: 2
Flags: HMW
HStem: -14 140<318.5 394.5 318.5 442.5> 720 20G<55 239 239 239 471 647 647 647> 767 57<342.5 367.5 342.5 388.5> 910 57<342.5 367.5>
VStem: 55 184<332 740> 241 72<853.5 880 853.5 897> 397 72<853.5 880> 471 176<311.5 332 332 740>
LayerCount: 2
Fore
SplineSet
241 867 m 0
 241 927 288 967 355 967 c 0
 422 967 469 927 469 867 c 0
 469 807 422 767 355 767 c 0
 288 767 241 807 241 867 c 0
313 867 m 0
 313 840 330 824 355 824 c 0
 380 824 397 840 397 867 c 0
 397 893 380 910 355 910 c 0
 330 910 313 893 313 867 c 0
55 332 m 2
 55 740 l 1
 239 740 l 1
 239 264 l 2
 239 170 279 126 358 126 c 0
 431 126 471 177 471 262 c 2
 471 740 l 1
 647 740 l 1
 647 332 l 2
 647 291 647 253 645 220 c 0
 635 76 535 -14 350 -14 c 0xd9
 163 -14 67 76 57 220 c 0
 55 253 55 291 55 332 c 2
EndSplineSet
Validated: 1
Position2: "'cpsp' Capital Spacing in Latin lookup 0 subtable" dx=5 dy=0 dh=10 dv=0
EndChar

StartChar: V
Encoding: 86 86 97
Width: 764
GlyphClass: 2
Flags: HMW
HStem: 0 21G<256 498 256 256> 0 160<381 381 381 498 256 381> 720 20G<19 218 218 218 559 754 754 754>
VStem: 19 735<740 740>
LayerCount: 2
Fore
SplineSet
19 740 m 1xb0
 218 740 l 1
 381 160 l 1x70
 559 740 l 1
 754 740 l 1
 498 0 l 1
 256 0 l 1
 19 740 l 1xb0
EndSplineSet
Validated: 1
Position2: "'cpsp' Capital Spacing in Latin lookup 0 subtable" dx=5 dy=0 dh=10 dv=0
EndChar

StartChar: W
Encoding: 87 87 98
Width: 1070
GlyphClass: 2
Flags: HMW
HStem: 0 21G<206 412 206 206 650 854 650 650> 720 20G<19 229 229 229 861 1060 1060 1060>
VStem: 19 1041<740 740>
LayerCount: 2
Fore
SplineSet
19 740 m 1
 229 740 l 1
 323 194 l 1
 452 727 l 1
 621 727 l 1
 756 184 l 1
 861 740 l 1
 1060 740 l 1
 854 0 l 1
 650 0 l 1
 527 483 l 1
 412 0 l 1
 206 0 l 1
 19 740 l 1
EndSplineSet
Validated: 1
Position2: "'cpsp' Capital Spacing in Latin lookup 0 subtable" dx=5 dy=0 dh=10 dv=0
EndChar

StartChar: Wacute
Encoding: 332 7810 99
Width: 1070
GlyphClass: 2
Flags: HMW
HStem: 0 21G<206 412 206 206 650 854 650 650> 720 20G<19 229 229 229 861 1060 1060 1060> 789 156<577 589 495 760>
VStem: 19 1041<740 740>
LayerCount: 2
Fore
SplineSet
495 789 m 1
 577 945 l 1
 760 945 l 1
 589 789 l 1
 495 789 l 1
19 740 m 1
 229 740 l 1
 323 194 l 1
 452 727 l 1
 621 727 l 1
 756 184 l 1
 861 740 l 1
 1060 740 l 1
 854 0 l 1
 650 0 l 1
 527 483 l 1
 412 0 l 1
 206 0 l 1
 19 740 l 1
EndSplineSet
Validated: 1
Position2: "'cpsp' Capital Spacing in Latin lookup 0 subtable" dx=5 dy=0 dh=10 dv=0
EndChar

StartChar: Wcircumflex
Encoding: 333 372 100
Width: 1070
GlyphClass: 2
Flags: HMW
HStem: 0 21G<206 412 206 206 650 854 650 650> 720 20G<19 229 229 229 861 1060 1060 1060> 789 156<366 602 366 602 597 597 597 602 470 706>
VStem: 19 1041<740 740>
LayerCount: 2
Fore
SplineSet
366 789 m 1
 470 945 l 1
 602 945 l 1
 706 789 l 1
 597 789 l 1
 535 864 l 1
 465 789 l 1
 366 789 l 1
19 740 m 1
 229 740 l 1
 323 194 l 1
 452 727 l 1
 621 727 l 1
 756 184 l 1
 861 740 l 1
 1060 740 l 1
 854 0 l 1
 650 0 l 1
 527 483 l 1
 412 0 l 1
 206 0 l 1
 19 740 l 1
EndSplineSet
Validated: 1
Position2: "'cpsp' Capital Spacing in Latin lookup 0 subtable" dx=5 dy=0 dh=10 dv=0
EndChar

StartChar: Wdieresis
Encoding: 334 7812 101
Width: 1070
GlyphClass: 2
Flags: HMW
HStem: 0 21G<206 412 206 206 650 854 650 650> 720 20G<19 229 229 229 861 1060 1060 1060> 790 154<331 496 331 496 331 576 576 741>
VStem: 331 165<790 944 790 944> 576 165<790 944 790 944>
LayerCount: 2
Fore
SplineSet
331 790 m 1
 331 944 l 1
 373 951 454 951 496 944 c 1
 496 790 l 1
 454 783 373 783 331 790 c 1
576 790 m 1
 576 944 l 1
 618 951 699 951 741 944 c 1
 741 790 l 1
 699 783 618 783 576 790 c 1
19 740 m 1
 229 740 l 1
 323 194 l 1
 452 727 l 1
 621 727 l 1
 756 184 l 1
 861 740 l 1
 1060 740 l 1
 854 0 l 1
 650 0 l 1
 527 483 l 1
 412 0 l 1
 206 0 l 1
 19 740 l 1
EndSplineSet
Validated: 33
Position2: "'cpsp' Capital Spacing in Latin lookup 0 subtable" dx=5 dy=0 dh=10 dv=0
EndChar

StartChar: Wgrave
Encoding: 335 7808 102
Width: 1070
GlyphClass: 2
Flags: HMW
HStem: 0 21G<206 412 206 206 650 854 650 650> 720 20G<19 229 229 229 861 1060 1060 1060> 789 156<494 506 323 588 494 494>
VStem: 19 1041<740 740>
LayerCount: 2
Fore
SplineSet
323 945 m 1
 506 945 l 1
 588 789 l 1
 494 789 l 1
 323 945 l 1
19 740 m 1
 229 740 l 1
 323 194 l 1
 452 727 l 1
 621 727 l 1
 756 184 l 1
 861 740 l 1
 1060 740 l 1
 854 0 l 1
 650 0 l 1
 527 483 l 1
 412 0 l 1
 206 0 l 1
 19 740 l 1
EndSplineSet
Validated: 1
Position2: "'cpsp' Capital Spacing in Latin lookup 0 subtable" dx=5 dy=0 dh=10 dv=0
EndChar

StartChar: X
Encoding: 88 88 103
Width: 706
GlyphClass: 2
Flags: HMW
HStem: 0 21G<7 209 7 7 488 689 488 488> 720 20G<24 224 224 224 490 685 685 685>
VStem: 7 682<0 0>
LayerCount: 2
Fore
SplineSet
7 0 m 1
 255 372 l 1
 24 740 l 1
 224 740 l 1
 354 492 l 1
 490 740 l 1
 685 740 l 5
 451 382 l 1
 689 0 l 1
 488 0 l 1
 349 257 l 1
 209 0 l 1
 7 0 l 1
EndSplineSet
Validated: 1
Position2: "'cpsp' Capital Spacing in Latin lookup 0 subtable" dx=5 dy=0 dh=10 dv=0
EndChar

StartChar: Y
Encoding: 89 89 104
Width: 709
GlyphClass: 2
Flags: HMW
HStem: 0 21G<260 444 260 260> 720 20G<12 220 220 220 499 697 697 697>
VStem: 260 184<0 303 303 303>
LayerCount: 2
Fore
SplineSet
12 740 m 1
 220 740 l 1
 357 442 l 1
 499 740 l 1
 697 740 l 1
 444 305 l 1
 444 0 l 1
 260 0 l 1
 260 303 l 1
 12 740 l 1
EndSplineSet
Validated: 1
Position2: "'cpsp' Capital Spacing in Latin lookup 0 subtable" dx=5 dy=0 dh=10 dv=0
EndChar

StartChar: Yacute
Encoding: 336 221 105
Width: 709
GlyphClass: 2
Flags: HMW
HStem: 0 21G<260 444 260 260> 720 20G<12 220 220 220 499 697 697 697> 789 156<396 408 314 579>
VStem: 260 184<0 303 303 303>
LayerCount: 2
Fore
SplineSet
314 789 m 1
 396 945 l 1
 579 945 l 1
 408 789 l 1
 314 789 l 1
12 740 m 1
 220 740 l 1
 357 442 l 1
 499 740 l 1
 697 740 l 1
 444 305 l 1
 444 0 l 1
 260 0 l 1
 260 303 l 1
 12 740 l 1
EndSplineSet
Validated: 1
Position2: "'cpsp' Capital Spacing in Latin lookup 0 subtable" dx=5 dy=0 dh=10 dv=0
EndChar

StartChar: Ycircumflex
Encoding: 337 374 106
Width: 709
GlyphClass: 2
Flags: HMW
HStem: 0 21G<260 444 260 260> 720 20G<12 220 220 220 499 697 697 697> 789 156<185 421 185 421 416 416 416 421 289 525>
VStem: 260 184<0 303 303 303>
LayerCount: 2
Fore
SplineSet
185 789 m 1
 289 945 l 1
 421 945 l 1
 525 789 l 1
 416 789 l 1
 354 864 l 1
 284 789 l 1
 185 789 l 1
12 740 m 1
 220 740 l 1
 357 442 l 1
 499 740 l 1
 697 740 l 1
 444 305 l 1
 444 0 l 1
 260 0 l 1
 260 303 l 1
 12 740 l 1
EndSplineSet
Validated: 1
Position2: "'cpsp' Capital Spacing in Latin lookup 0 subtable" dx=5 dy=0 dh=10 dv=0
EndChar

StartChar: Ydieresis
Encoding: 338 376 107
Width: 709
GlyphClass: 2
Flags: HMW
HStem: 0 21G<260 444 260 260> 720 20G<12 220 220 220 499 697 697 697> 790 154<150 315 150 315 150 395 395 560>
VStem: 150 165<790 944 790 944> 260 184<0 303 303 303> 395 165<790 944 790 944>
LayerCount: 2
Fore
SplineSet
150 790 m 1xf0
 150 944 l 1
 192 951 273 951 315 944 c 1
 315 790 l 1
 273 783 192 783 150 790 c 1xf0
395 790 m 1xe4
 395 944 l 1
 437 951 518 951 560 944 c 1
 560 790 l 1
 518 783 437 783 395 790 c 1xe4
12 740 m 1
 220 740 l 1
 357 442 l 1
 499 740 l 1
 697 740 l 1
 444 305 l 1
 444 0 l 1
 260 0 l 1
 260 303 l 1xe8
 12 740 l 1
EndSplineSet
Validated: 33
Position2: "'cpsp' Capital Spacing in Latin lookup 0 subtable" dx=5 dy=0 dh=10 dv=0
EndChar

StartChar: Ygrave
Encoding: 339 7922 108
Width: 709
GlyphClass: 2
Flags: HMW
HStem: 0 21G<260 444 260 260> 720 20G<12 220 220 220 499 697 697 697> 789 156<313 325 142 407 313 313>
VStem: 260 184<0 303 303 303>
LayerCount: 2
Fore
SplineSet
142 945 m 1
 325 945 l 1
 407 789 l 1
 313 789 l 1
 142 945 l 1
12 740 m 1
 220 740 l 1
 357 442 l 1
 499 740 l 1
 697 740 l 1
 444 305 l 1
 444 0 l 1
 260 0 l 1
 260 303 l 1
 12 740 l 1
EndSplineSet
Validated: 1
Position2: "'cpsp' Capital Spacing in Latin lookup 0 subtable" dx=5 dy=0 dh=10 dv=0
EndChar

StartChar: Z
Encoding: 90 90 109
Width: 658
GlyphClass: 2
Flags: HMW
HStem: 0 136<266 619> 604 136<63 361 63 594>
VStem: 34 595<0 136 83 136>
LayerCount: 2
Fore
SplineSet
34 0 m 1
 34 83 l 1
 361 604 l 1
 63 604 l 1
 63 740 l 1
 594 740 l 1
 594 661 l 1
 266 136 l 1
 629 136 l 1
 619 0 l 1
 34 0 l 1
EndSplineSet
Validated: 1
Position2: "'cpsp' Capital Spacing in Latin lookup 0 subtable" dx=5 dy=0 dh=10 dv=0
EndChar

StartChar: Zacute
Encoding: 340 377 110
Width: 658
GlyphClass: 2
Flags: HMW
HStem: 0 136<266 619> 604 136<63 361 63 594> 789 156<377 389 295 560>
VStem: 34 595<0 136 83 136>
LayerCount: 2
Fore
SplineSet
295 789 m 1
 377 945 l 1
 560 945 l 1
 389 789 l 1
 295 789 l 1
34 0 m 1
 34 83 l 1
 361 604 l 1
 63 604 l 1
 63 740 l 1
 594 740 l 1
 594 661 l 1
 266 136 l 1
 629 136 l 1
 619 0 l 1
 34 0 l 1
EndSplineSet
Validated: 1
Position2: "'cpsp' Capital Spacing in Latin lookup 0 subtable" dx=5 dy=0 dh=10 dv=0
EndChar

StartChar: Zcaron
Encoding: 341 381 111
Width: 658
GlyphClass: 2
Flags: HMW
HStem: 0 136<266 619> 604 136<63 361 63 594> 789 156<270 275 166 402 270 270>
VStem: 34 595<0 136 83 136>
LayerCount: 2
Fore
SplineSet
166 945 m 1
 275 945 l 1
 337 870 l 1
 407 945 l 1
 506 945 l 1
 402 789 l 1
 270 789 l 1
 166 945 l 1
34 0 m 1
 34 83 l 1
 361 604 l 1
 63 604 l 1
 63 740 l 1
 594 740 l 1
 594 661 l 1
 266 136 l 1
 629 136 l 1
 619 0 l 1
 34 0 l 1
EndSplineSet
Validated: 1
Position2: "'cpsp' Capital Spacing in Latin lookup 0 subtable" dx=5 dy=0 dh=10 dv=0
EndChar

StartChar: Zdotaccent
Encoding: 342 379 112
Width: 658
GlyphClass: 2
Flags: HMW
HStem: 0 136<266 619> 604 136<63 361 63 594> 790 154<246 426 246 426>
VStem: 246 180<790 944 790 944>
LayerCount: 2
Fore
SplineSet
246 790 m 1
 246 944 l 1
 288 951 384 951 426 944 c 1
 426 790 l 1
 384 783 288 783 246 790 c 1
34 0 m 1
 34 83 l 1
 361 604 l 1
 63 604 l 1
 63 740 l 1
 594 740 l 1
 594 661 l 1
 266 136 l 1
 629 136 l 1
 619 0 l 1
 34 0 l 1
EndSplineSet
Validated: 33
Position2: "'cpsp' Capital Spacing in Latin lookup 0 subtable" dx=5 dy=0 dh=10 dv=0
EndChar

StartChar: a
Encoding: 97 97 113
Width: 548
GlyphClass: 2
Flags: HMW
HStem: -14 21G<147 214.5> -14 124<147 279.5> -8 21G<336 336> 0 21G<510 510> 224 97<187.5 290> 402 136<234 251>
VStem: 36 176<149 184.5 149 213.5> 322 180<118 135 135 222 222 222>
LayerCount: 2
Fore
SplineSet
36 154 m 0x8f
 36 273 131 321 244 321 c 0
 277 321 299 319 323 314 c 1
 324 327 l 2
 327 384 277 402 225 402 c 0
 189 402 139 392 94 368 c 1
 76 487 l 1
 133 521 201 538 267 538 c 0
 420 538 487 478 500 368 c 0
 503 343 502 307 502 265 c 2
 502 135 l 2
 502 82 504 47 510 0 c 1x1f
 336 -8 l 1x2f
 328 24 l 1
 283 -1 236 -14 193 -14 c 0
 101 -14 36 38 36 154 c 0x8f
212 167 m 0
 212 131 235 110 268 110 c 0x4f
 291 110 306 112 322 118 c 1
 322 222 l 1
 308 223 295 224 285 224 c 0
 242 224 212 202 212 167 c 0
EndSplineSet
Validated: 33
EndChar

StartChar: aacute
Encoding: 343 225 114
Width: 548
GlyphClass: 2
Flags: HMW
HStem: -14 21G<147 214.5> -14 124<147 279.5> -8 21G<336 336> 0 21G<510 510> 224 97<187.5 290> 402 136<234 251> 604 176<296 309 224 470>
VStem: 36 176<149 184.5 149 213.5> 322 180<118 135 135 222 222 222>
LayerCount: 2
Fore
SplineSet
224 604 m 1x0f80
 296 780 l 1
 470 780 l 1
 309 604 l 1
 224 604 l 1x0f80
36 154 m 0
 36 273 131 321 244 321 c 0
 277 321 299 319 323 314 c 1
 324 327 l 2
 327 384 277 402 225 402 c 0
 189 402 139 392 94 368 c 1
 76 487 l 1
 133 521 201 538 267 538 c 0
 420 538 487 478 500 368 c 0
 503 343 502 307 502 265 c 2
 502 135 l 2
 502 82 504 47 510 0 c 1x1f80
 336 -8 l 1x2f80
 328 24 l 1
 283 -1 236 -14 193 -14 c 0x8f80
 101 -14 36 38 36 154 c 0
212 167 m 0
 212 131 235 110 268 110 c 0x4f80
 291 110 306 112 322 118 c 1
 322 222 l 1
 308 223 295 224 285 224 c 0
 242 224 212 202 212 167 c 0
EndSplineSet
Validated: 33
EndChar

StartChar: abreve
Encoding: 344 259 115
Width: 548
GlyphClass: 2
Flags: HMW
HStem: -14 21G<147 214.5> -14 124<147 279.5> -8 21G<336 336> 0 21G<510 510> 224 97<187.5 290> 402 136<234 251> 584 106<274.5 309.5 274.5 337.5>
VStem: 36 176<149 184.5 149 213.5> 153 86<780 780> 322 180<118 135 135 222 222 222> 345 86<780 780>
LayerCount: 2
Fore
SplineSet
153 780 m 1x0ea0
 239 780 l 1
 236 714 257 690 292 690 c 0
 327 690 348 714 345 780 c 1
 431 780 l 1
 445 629 383 584 292 584 c 0
 200 584 139 629 153 780 c 1x0ea0
36 154 m 0x8f40
 36 273 131 321 244 321 c 0
 277 321 299 319 323 314 c 1
 324 327 l 2
 327 384 277 402 225 402 c 0
 189 402 139 392 94 368 c 1
 76 487 l 1
 133 521 201 538 267 538 c 0
 420 538 487 478 500 368 c 0
 503 343 502 307 502 265 c 2
 502 135 l 2
 502 82 504 47 510 0 c 1x1f40
 336 -8 l 1x2f40
 328 24 l 1
 283 -1 236 -14 193 -14 c 0
 101 -14 36 38 36 154 c 0x8f40
212 167 m 0
 212 131 235 110 268 110 c 0x4f40
 291 110 306 112 322 118 c 1
 322 222 l 1
 308 223 295 224 285 224 c 0
 242 224 212 202 212 167 c 0
EndSplineSet
Validated: 33
EndChar

StartChar: acircumflex
Encoding: 345 226 116
Width: 548
GlyphClass: 2
Flags: HMW
HStem: -14 21G<147 214.5> -14 124<147 279.5> -8 21G<336 336> 0 21G<510 510> 224 97<187.5 290> 402 136<234 251> 604 176<130 355 130 355 353 353 353 355 229 454>
VStem: 36 176<149 184.5 149 213.5> 322 180<118 135 135 222 222 222>
LayerCount: 2
Fore
SplineSet
130 604 m 1x0f80
 229 780 l 1
 355 780 l 1
 454 604 l 1
 353 604 l 1
 291 689 l 1
 221 604 l 1
 130 604 l 1x0f80
36 154 m 0
 36 273 131 321 244 321 c 0
 277 321 299 319 323 314 c 1
 324 327 l 2
 327 384 277 402 225 402 c 0
 189 402 139 392 94 368 c 1
 76 487 l 1
 133 521 201 538 267 538 c 0
 420 538 487 478 500 368 c 0
 503 343 502 307 502 265 c 2
 502 135 l 2
 502 82 504 47 510 0 c 1x1f80
 336 -8 l 1x2f80
 328 24 l 1
 283 -1 236 -14 193 -14 c 0x8f80
 101 -14 36 38 36 154 c 0
212 167 m 0
 212 131 235 110 268 110 c 0x4f80
 291 110 306 112 322 118 c 1
 322 222 l 1
 308 223 295 224 285 224 c 0
 242 224 212 202 212 167 c 0
EndSplineSet
Validated: 33
EndChar

StartChar: adieresis
Encoding: 346 228 117
Width: 548
GlyphClass: 2
Flags: HMW
HStem: -14 21G<147 214.5> -14 124<147 279.5> -8 21G<336 336> 0 21G<510 510> 224 97<187.5 290> 402 136<234 251> 602 154<87 252 87 252 87 332 332 497> 602 159.25
VStem: 36 176<149 184.5 149 213.5> 87 165<602 756 602 756> 322 180<118 135 135 222 222 222> 332 165<602 756 602 756>
LayerCount: 2
Fore
SplineSet
87 602 m 1x1e50
 87 756 l 1x1d50
 129 763 210 763 252 756 c 1
 252 602 l 1x1e50
 210 595 129 595 87 602 c 1x1e50
332 602 m 1x1e50
 332 756 l 1x1d50
 374 763 455 763 497 756 c 1
 497 602 l 1
 455 595 374 595 332 602 c 1x1e50
36 154 m 0
 36 273 131 321 244 321 c 0
 277 321 299 319 323 314 c 1
 324 327 l 2
 327 384 277 402 225 402 c 0
 189 402 139 392 94 368 c 1
 76 487 l 1
 133 521 201 538 267 538 c 0
 420 538 487 478 500 368 c 0
 503 343 502 307 502 265 c 2
 502 135 l 2
 502 82 504 47 510 0 c 1x1ea0
 336 -8 l 1x2e50
 328 24 l 1
 283 -1 236 -14 193 -14 c 0x8e90
 101 -14 36 38 36 154 c 0
212 167 m 0x4ea0
 212 131 235 110 268 110 c 0
 291 110 306 112 322 118 c 1
 322 222 l 1
 308 223 295 224 285 224 c 0
 242 224 212 202 212 167 c 0x4ea0
EndSplineSet
Validated: 33
EndChar

StartChar: agrave
Encoding: 347 224 118
Width: 548
GlyphClass: 2
Flags: HMW
HStem: -14 21G<147 214.5> -14 124<147 279.5> -8 21G<336 336> 0 21G<510 510> 224 97<187.5 290> 402 136<234 251> 604 176<260 273 99 345 260 260>
VStem: 36 176<149 184.5 149 213.5> 322 180<118 135 135 222 222 222>
LayerCount: 2
Fore
SplineSet
99 780 m 1x0f80
 273 780 l 1
 345 604 l 1
 260 604 l 1
 99 780 l 1x0f80
36 154 m 0
 36 273 131 321 244 321 c 0
 277 321 299 319 323 314 c 1
 324 327 l 2
 327 384 277 402 225 402 c 0
 189 402 139 392 94 368 c 1
 76 487 l 1
 133 521 201 538 267 538 c 0
 420 538 487 478 500 368 c 0
 503 343 502 307 502 265 c 2
 502 135 l 2
 502 82 504 47 510 0 c 1x1f80
 336 -8 l 1x2f80
 328 24 l 1
 283 -1 236 -14 193 -14 c 0x8f80
 101 -14 36 38 36 154 c 0
212 167 m 0
 212 131 235 110 268 110 c 0x4f80
 291 110 306 112 322 118 c 1
 322 222 l 1
 308 223 295 224 285 224 c 0
 242 224 212 202 212 167 c 0
EndSplineSet
Validated: 33
EndChar

StartChar: amacron
Encoding: 348 257 119
Width: 548
GlyphClass: 2
Flags: HMW
HStem: -14 21G<147 214.5> -14 124<147 279.5> -8 21G<336 336> 0 21G<510 510> 224 97<187.5 290> 402 136<234 251> 644 96<153 431 153 431>
VStem: 36 176<149 184.5 149 213.5> 153 278<644 740 644 740> 322 180<118 135 135 222 222 222>
LayerCount: 2
Fore
SplineSet
153 644 m 1x0e80
 153 740 l 1
 431 740 l 1
 431 644 l 1
 153 644 l 1x0e80
36 154 m 0x8f40
 36 273 131 321 244 321 c 0
 277 321 299 319 323 314 c 1
 324 327 l 2
 327 384 277 402 225 402 c 0
 189 402 139 392 94 368 c 1
 76 487 l 1
 133 521 201 538 267 538 c 0
 420 538 487 478 500 368 c 0
 503 343 502 307 502 265 c 2
 502 135 l 2
 502 82 504 47 510 0 c 1x1f40
 336 -8 l 1x2f40
 328 24 l 1
 283 -1 236 -14 193 -14 c 0
 101 -14 36 38 36 154 c 0x8f40
212 167 m 0
 212 131 235 110 268 110 c 0x4f40
 291 110 306 112 322 118 c 1
 322 222 l 1
 308 223 295 224 285 224 c 0
 242 224 212 202 212 167 c 0
EndSplineSet
Validated: 33
EndChar

StartChar: aogonek
Encoding: 349 261 120
Width: 565
GlyphClass: 2
Flags: HMW
HStem: -220 89<366 481> -14 21G<147 214.5> -14 124<147 279.5> -3 21G<335 335> 0 21G<524 524> 224 97<187.5 290> 402 136<234 251>
VStem: 36 176<149 184.5 149 213.5> 277 114<-89 -88.5> 322 180<118 135 135 222 222 222>
LayerCount: 2
Fore
SplineSet
36 154 m 0xc780
 36 273 131 321 244 321 c 0
 277 321 299 319 323 314 c 1
 324 327 l 2
 327 384 277 402 225 402 c 0
 189 402 139 392 94 368 c 1
 76 487 l 1
 133 521 201 538 267 538 c 0
 420 538 487 478 500 368 c 0
 503 343 502 307 502 265 c 2
 502 135 l 2
 502 82 504 47 510 1 c 1
 524 0 l 1x8f40
 420 -8 391 -32 391 -71 c 0
 391 -107 422 -131 471 -131 c 0
 491 -131 509 -129 527 -123 c 1
 522 -195 l 1
 487 -212 456 -220 397 -220 c 0
 335 -220 277 -188 277 -109 c 0
 277 -68 294 -26 335 -3 c 1x9780
 328 24 l 1
 283 -1 236 -14 193 -14 c 0
 101 -14 36 38 36 154 c 0xc780
212 167 m 0
 212 131 235 110 268 110 c 0xa740
 291 110 306 112 322 118 c 1
 322 222 l 1
 308 223 295 224 285 224 c 0
 242 224 212 202 212 167 c 0
EndSplineSet
Validated: 33
EndChar

StartChar: aring
Encoding: 350 229 121
Width: 548
GlyphClass: 2
Flags: HMW
HStem: -14 21G<147 214.5> -14 124<147 279.5> -8 21G<336 336> 0 21G<510 510> 224 97<187.5 290> 402 136<234 251> 590 55<280 304 280 325.5> 739 55<280 304>
VStem: 36 176<149 184.5 149 213.5> 180 72<677 706.5 677 722> 322 180<118 135 135 222 222 222> 332 72<677 706.5>
LayerCount: 2
Fore
SplineSet
180 692 m 0x0f50
 180 752 225 794 292 794 c 0
 359 794 404 752 404 692 c 0
 404 632 359 590 292 590 c 0
 225 590 180 632 180 692 c 0x0f50
252 692 m 0
 252 662 268 645 292 645 c 0
 316 645 332 662 332 692 c 0
 332 721 316 739 292 739 c 0
 268 739 252 721 252 692 c 0
36 154 m 0x8fa0
 36 273 131 321 244 321 c 0
 277 321 299 319 323 314 c 1
 324 327 l 2
 327 384 277 402 225 402 c 0
 189 402 139 392 94 368 c 1
 76 487 l 1
 133 521 201 538 267 538 c 0
 420 538 487 478 500 368 c 0
 503 343 502 307 502 265 c 2
 502 135 l 2
 502 82 504 47 510 0 c 1x1fa0
 336 -8 l 1x2fa0
 328 24 l 1
 283 -1 236 -14 193 -14 c 0
 101 -14 36 38 36 154 c 0x8fa0
212 167 m 0
 212 131 235 110 268 110 c 0x4fa0
 291 110 306 112 322 118 c 1
 322 222 l 1
 308 223 295 224 285 224 c 0
 242 224 212 202 212 167 c 0
EndSplineSet
Validated: 33
EndChar

StartChar: atilde
Encoding: 351 227 122
Width: 548
GlyphClass: 2
Flags: HMW
HStem: -14 21G<147 214.5> -14 124<147 279.5> -8 21G<336 336> 0 21G<510 510> 224 97<187.5 290> 402 136<234 251> 610 112<331 382.5> 662 113<216 216.5 177.5 228.5>
VStem: 36 176<149 184.5 149 213.5> 322 180<118 135 135 222 222 222>
LayerCount: 2
Fore
SplineSet
113 613 m 1x0dc0
 117 723 150 775 205 775 c 0x0dc0
 228 775 249 768 285 746 c 0
 311 730 326 722 336 722 c 0
 351 722 360 736 370 781 c 1
 447 772 l 1
 443 662 410 610 355 610 c 0x0ec0
 332 610 312 617 275 639 c 0
 248 655 234 662 223 662 c 0
 209 662 200 650 190 604 c 1
 113 613 l 1x0dc0
36 154 m 0
 36 273 131 321 244 321 c 0
 277 321 299 319 323 314 c 1
 324 327 l 2
 327 384 277 402 225 402 c 0
 189 402 139 392 94 368 c 1
 76 487 l 1
 133 521 201 538 267 538 c 0
 420 538 487 478 500 368 c 0
 503 343 502 307 502 265 c 2
 502 135 l 2
 502 82 504 47 510 0 c 1x1cc0
 336 -8 l 1x2cc0
 328 24 l 1
 283 -1 236 -14 193 -14 c 0x8cc0
 101 -14 36 38 36 154 c 0
212 167 m 0
 212 131 235 110 268 110 c 0x4cc0
 291 110 306 112 322 118 c 1
 322 222 l 1
 308 223 295 224 285 224 c 0
 242 224 212 202 212 167 c 0
EndSplineSet
Validated: 33
EndChar

StartChar: ae
Encoding: 352 230 123
Width: 851
GlyphClass: 2
Flags: HMW
HStem: -14 130<255 265.5> -14 136<607.5 647> 217 99<519 642 519 817 515 642> 221 105<275.5 285.5 202.5 309> 402 136<247 279 560.5 608>
VStem: 36 177<148.5 186 148.5 211.5>
AnchorPoint: "Anchor-0" 610 0 basechar 0
LayerCount: 2
Fore
SplineSet
36 156 m 0x6c
 36 267 132 326 273 326 c 0x5c
 298 326 322 324 343 321 c 1
 344 328 346 335 347 342 c 0
 342 389 306 402 252 402 c 0
 207 402 173 397 124 374 c 1
 98 489 l 1
 142 519 208 538 286 538 c 0
 353 538 402 523 435 491 c 1
 475 521 527 538 592 538 c 0
 761 538 808 424 815 298 c 0
 817 265 817 244 817 217 c 1
 515 217 l 1
 526 150 563 122 652 122 c 0
 702 122 735 128 783 141 c 1
 803 28 l 1
 740 -3 683 -14 611 -14 c 0
 520 -14 451 7 405 54 c 1
 349 3 301 -14 230 -14 c 0
 121 -14 36 38 36 156 c 0x6c
519 316 m 1x2c
 642 316 l 1
 639 360 630 402 586 402 c 0
 535 402 522 366 519 316 c 1x2c
213 168 m 0
 213 129 235 116 275 116 c 0
 300 116 331 121 357 135 c 1
 348 160 343 188 340 220 c 1
 328 221 315 221 303 221 c 0x9c
 248 221 213 204 213 168 c 0
EndSplineSet
Validated: 1
EndChar

StartChar: b
Encoding: 98 98 124
Width: 595
GlyphClass: 2
Flags: HMW
HStem: -14 136<263.5 308 263.5 383.5> 402 136<295.5 305.5> 725 20G<59 59> 735 20G<239 239>
VStem: 59 180<124 401 536 745 745 745> 389 180<208 320.5>
LayerCount: 2
Fore
SplineSet
59 22 m 1xdc
 59 745 l 1xec
 239 755 l 1
 239 536 l 1
 261 537 284 538 307 538 c 0
 471 538 569 467 569 273 c 0
 569 85 477 -14 290 -14 c 0
 205 -14 126 -1 59 22 c 1xdc
239 124 m 1
 249 122 259 122 268 122 c 0
 348 122 389 149 389 267 c 0
 389 374 350 402 261 402 c 0
 254 402 246 402 239 401 c 1
 239 124 l 1
EndSplineSet
Validated: 1
EndChar

StartChar: c
Encoding: 99 99 125
Width: 479
GlyphClass: 2
Flags: HMW
HStem: -14 136<300.5 325.5> 402 136<295.5 334.5 218.5 360>
VStem: 26 180<209 306.5 209 354>
AnchorPoint: "Anchor-0" 269 0 basechar 0
LayerCount: 2
Fore
SplineSet
26 261 m 4
 26 447 139 538 298 538 c 4
 371 538 427 522 463 498 c 5
 449 385 l 5
 412 398 378 402 342 402 c 4
 249 402 206 354 206 259 c 4
 206 159 265 122 336 122 c 4
 375 122 405 127 442 139 c 5
 462 26 l 5
 412 -4 362 -14 289 -14 c 4
 141 -14 26 58 26 261 c 4
EndSplineSet
Validated: 1
EndChar

StartChar: cacute
Encoding: 353 263 126
Width: 479
GlyphClass: 2
Flags: HMW
HStem: -14 136<300.5 325.5> 402 136<295.5 334.5 218.5 360> 604 176<200 446 272 285>
VStem: 26 180<209 306.5 209 354>
AnchorPoint: "Anchor-0" 269 0 basechar 0
LayerCount: 2
Fore
SplineSet
200 604 m 1
 272 780 l 1
 446 780 l 1
 285 604 l 1
 200 604 l 1
26 261 m 0
 26 447 139 538 298 538 c 0
 371 538 427 522 463 498 c 1
 449 385 l 1
 412 398 378 402 342 402 c 0
 249 402 206 354 206 259 c 0
 206 159 265 122 336 122 c 0
 375 122 405 127 442 139 c 1
 462 26 l 1
 412 -4 362 -14 289 -14 c 0
 141 -14 26 58 26 261 c 0
EndSplineSet
Validated: 1
EndChar

StartChar: ccaron
Encoding: 354 269 127
Width: 479
GlyphClass: 2
Flags: HMW
HStem: -14 136<300.5 325.5> 402 136<295.5 334.5 218.5 360> 604 176<205 207 106 331 205 205>
VStem: 26 180<209 306.5 209 354>
AnchorPoint: "Anchor-0" 269 0 basechar 0
LayerCount: 2
Fore
SplineSet
106 780 m 1
 207 780 l 1
 269 695 l 1
 339 780 l 1
 430 780 l 1
 331 604 l 1
 205 604 l 1
 106 780 l 1
26 261 m 0
 26 447 139 538 298 538 c 0
 371 538 427 522 463 498 c 1
 449 385 l 1
 412 398 378 402 342 402 c 0
 249 402 206 354 206 259 c 0
 206 159 265 122 336 122 c 0
 375 122 405 127 442 139 c 1
 462 26 l 1
 412 -4 362 -14 289 -14 c 0
 141 -14 26 58 26 261 c 0
EndSplineSet
Validated: 1
EndChar

StartChar: ccedilla
Encoding: 355 231 128
Width: 479
GlyphClass: 2
Flags: HMW
HStem: -210 63<226 236 212.5 281.5> -10 21G<231 231> 402 136<295.5 334.5 218.5 360>
VStem: 26 180<209 306.5 209 354> 270 108<-125.5 -101.5>
AnchorPoint: "Anchor-0" 269 0 basechar 0
LayerCount: 2
Fore
SplineSet
26 261 m 0
 26 447 139 538 298 538 c 0
 371 538 427 522 463 498 c 1
 449 385 l 1
 412 398 378 402 342 402 c 0
 249 402 206 354 206 259 c 0
 206 159 265 122 336 122 c 0
 375 122 405 127 442 139 c 1
 462 26 l 1
 414 -3 367 -13 300 -14 c 1
 289 -31 l 1
 346 -40 378 -68 378 -114 c 0
 378 -173 318 -210 245 -210 c 0
 207 -210 175 -202 152 -187 c 1
 175 -140 l 1
 188 -145 202 -147 223 -147 c 0
 249 -147 270 -137 270 -114 c 0
 270 -89 243 -73 195 -78 c 1
 231 -10 l 1
 112 8 26 85 26 261 c 0
EndSplineSet
Validated: 33
EndChar

StartChar: cdotaccent
Encoding: 356 267 129
Width: 479
GlyphClass: 2
Flags: HMW
HStem: -14 136<300.5 325.5> 402 136<295.5 334.5 218.5 360> 602 154<178 358 178 358> 602 159.25
VStem: 26 180<209 306.5 209 354> 178 180<602 756 602 756>
AnchorPoint: "Anchor-0" 269 0 basechar 0
LayerCount: 2
Fore
SplineSet
178 602 m 1xe4
 178 756 l 1xd4
 220 763 316 763 358 756 c 1
 358 602 l 1
 316 595 220 595 178 602 c 1xe4
26 261 m 0
 26 447 139 538 298 538 c 0
 371 538 427 522 463 498 c 1
 449 385 l 1
 412 398 378 402 342 402 c 0
 249 402 206 354 206 259 c 0
 206 159 265 122 336 122 c 0
 375 122 405 127 442 139 c 1
 462 26 l 1
 412 -4 362 -14 289 -14 c 0xe8
 141 -14 26 58 26 261 c 0
EndSplineSet
Validated: 33
EndChar

StartChar: d
Encoding: 100 100 130
Width: 595
GlyphClass: 2
Flags: HMW
HStem: -14 136<289.5 332.5> 402 136<287 313.5 211.5 331.5> 725 20G<356 356> 735 20G<536 536>
VStem: 26 180<203.5 316 203.5 345> 356 180<123 400 400 400 536 745 745 745>
LayerCount: 2
Fore
SplineSet
26 251 m 0xdc
 26 439 118 538 305 538 c 0
 322 538 339 537 356 536 c 1
 356 745 l 1xec
 536 755 l 1
 536 22 l 1
 459 -3 377 -14 288 -14 c 0
 124 -14 26 57 26 251 c 0xdc
206 257 m 0
 206 150 245 122 334 122 c 0
 341 122 349 122 356 123 c 1
 356 400 l 1
 346 402 336 402 327 402 c 0
 247 402 206 375 206 257 c 0
EndSplineSet
Validated: 1
EndChar

StartChar: eth
Encoding: 357 240 131
Width: 621
GlyphClass: 2
Flags: HMW
HStem: -14 134<272.5 337.5 272.5 371> 408 130<286 329.5 235.5 344> 740 20G<382 382>
VStem: 26 184<212 304 212 351.5> 397 184<245 324>
LayerCount: 2
Fore
SplineSet
26 263 m 0
 26 440 145 538 326 538 c 0
 333 538 342 537 351 536 c 1
 342 553 333 569 321 585 c 1
 184 560 l 1
 184 640 l 1
 264 655 l 1
 246 674 226 693 204 712 c 1
 382 760 l 1
 409 739 433 716 455 690 c 1
 567 711 l 1
 567 631 l 1
 505 619 l 1
 555 531 581 422 581 295 c 0
 581 67 447 -14 295 -14 c 0
 139 -14 26 67 26 263 c 0
210 260 m 0
 210 164 244 120 301 120 c 0
 374 120 397 183 397 307 c 0
 397 341 395 372 391 401 c 1
 371 406 352 408 336 408 c 0
 236 408 210 348 210 260 c 0
EndSplineSet
Validated: 1
EndChar

StartChar: dcaron
Encoding: 358 271 132
Width: 802
GlyphClass: 2
Flags: HMW
HStem: -14 136<289.5 332.5> 402 136<287 313.5 211.5 331.5> 516 20G<356 356> 725 20G<356 356> 735 20G<536 536> 742 20G
VStem: 26 180<203.5 316 203.5 345> 356 180<123 400 400 400 536 745 745 745> 653 139
LayerCount: 2
Fore
SplineSet
590 514 m 1xa780
 633 608 650 673 653 742 c 1
 674 754 766 764 792 762 c 1
 786 673 751 575 691 514 c 1
 590 514 l 1xa780
26 251 m 0
 26 439 118 538 305 538 c 0
 322 538 339 537 356 536 c 1
 356 745 l 1xd3
 536 755 l 1xcb
 536 22 l 1
 459 -3 377 -14 288 -14 c 0
 124 -14 26 57 26 251 c 0
206 257 m 0
 206 150 245 122 334 122 c 0
 341 122 349 122 356 123 c 1
 356 400 l 1
 346 402 336 402 327 402 c 0
 247 402 206 375 206 257 c 0
EndSplineSet
Validated: 33
EndChar

StartChar: dcroat
Encoding: 359 273 133
Width: 595
GlyphClass: 2
Flags: HMW
HStem: -14 136<289.5 332.5> 402 136<287 313.5 211.5 331.5> 579 100<230 356 230 356 536 600> 725 20G<356 356> 735 20G<536 536>
VStem: 26 180<203.5 316 203.5 345> 356 180<123 400 400 400 536 579 22 579 679 745 745 745>
LayerCount: 2
Fore
SplineSet
26 251 m 0xee
 26 439 118 538 305 538 c 0
 322 538 339 537 356 536 c 1
 356 579 l 1
 230 579 l 1
 230 679 l 1
 356 679 l 1
 356 745 l 1xf6
 536 755 l 1
 536 679 l 1
 600 679 l 1
 600 579 l 1
 536 579 l 1
 536 22 l 1
 459 -3 377 -14 288 -14 c 0
 124 -14 26 57 26 251 c 0xee
206 257 m 0
 206 150 245 122 334 122 c 0
 341 122 349 122 356 123 c 1
 356 400 l 1
 346 402 336 402 327 402 c 0
 247 402 206 375 206 257 c 0
EndSplineSet
Validated: 1
EndChar

StartChar: e
Encoding: 101 101 134
Width: 538
GlyphClass: 2
Flags: HMW
HStem: -14 136<294.5 334> 217 99<206 329 206 504 202 329> 402 136<247.5 295>
VStem: 26 180<316 316 316 342>
AnchorPoint: "Anchor-0" 297 0 basechar 0
LayerCount: 2
Fore
SplineSet
26 260 m 0
 26 424 110 538 279 538 c 0
 448 538 495 424 502 298 c 0
 504 265 504 244 504 217 c 1
 202 217 l 5
 213 150 250 122 339 122 c 0
 389 122 422 128 470 141 c 1
 490 28 l 1
 427 -3 370 -14 298 -14 c 0
 120 -14 26 67 26 260 c 0
206 316 m 1
 329 316 l 1
 326 360 317 402 273 402 c 0
 222 402 209 366 206 316 c 1
EndSplineSet
Validated: 1
EndChar

StartChar: eacute
Encoding: 360 233 135
Width: 538
GlyphClass: 2
Flags: HMW
HStem: -14 136<294.5 334> 217 99<206 329 206 504 202 329> 402 136<247.5 295> 604 176<277 290 205 451>
VStem: 26 180<316 316 316 342>
AnchorPoint: "Anchor-0" 297 0 basechar 0
LayerCount: 2
Fore
SplineSet
205 604 m 1
 277 780 l 1
 451 780 l 1
 290 604 l 1
 205 604 l 1
26 260 m 0
 26 424 110 538 279 538 c 0
 448 538 495 424 502 298 c 0
 504 265 504 244 504 217 c 1
 202 217 l 1
 213 150 250 122 339 122 c 0
 389 122 422 128 470 141 c 1
 490 28 l 1
 427 -3 370 -14 298 -14 c 0
 120 -14 26 67 26 260 c 0
206 316 m 1
 329 316 l 1
 326 360 317 402 273 402 c 0
 222 402 209 366 206 316 c 1
EndSplineSet
Validated: 1
EndChar

StartChar: ecaron
Encoding: 361 283 136
Width: 538
GlyphClass: 2
Flags: HMW
HStem: -14 136<294.5 334> 217 99<206 329 206 504 202 329> 402 136<247.5 295> 604 176<210 212 111 336 210 210>
VStem: 26 180<316 316 316 342>
AnchorPoint: "Anchor-0" 297 0 basechar 0
LayerCount: 2
Fore
SplineSet
111 780 m 1
 212 780 l 1
 274 695 l 1
 344 780 l 1
 435 780 l 1
 336 604 l 1
 210 604 l 1
 111 780 l 1
26 260 m 0
 26 424 110 538 279 538 c 0
 448 538 495 424 502 298 c 0
 504 265 504 244 504 217 c 1
 202 217 l 1
 213 150 250 122 339 122 c 0
 389 122 422 128 470 141 c 1
 490 28 l 1
 427 -3 370 -14 298 -14 c 0
 120 -14 26 67 26 260 c 0
206 316 m 1
 329 316 l 1
 326 360 317 402 273 402 c 0
 222 402 209 366 206 316 c 1
EndSplineSet
Validated: 1
EndChar

StartChar: ecircumflex
Encoding: 362 234 137
Width: 538
GlyphClass: 2
Flags: HMW
HStem: -14 136<294.5 334> 217 99<206 329 206 504 202 329> 402 136<247.5 295> 604 176<111 336 111 336 334 334 334 336 210 435>
VStem: 26 180<316 316 316 342>
AnchorPoint: "Anchor-0" 297 0 basechar 0
LayerCount: 2
Fore
SplineSet
111 604 m 1
 210 780 l 1
 336 780 l 1
 435 604 l 1
 334 604 l 1
 272 689 l 1
 202 604 l 1
 111 604 l 1
26 260 m 0
 26 424 110 538 279 538 c 0
 448 538 495 424 502 298 c 0
 504 265 504 244 504 217 c 1
 202 217 l 1
 213 150 250 122 339 122 c 0
 389 122 422 128 470 141 c 1
 490 28 l 1
 427 -3 370 -14 298 -14 c 0
 120 -14 26 67 26 260 c 0
206 316 m 1
 329 316 l 1
 326 360 317 402 273 402 c 0
 222 402 209 366 206 316 c 1
EndSplineSet
Validated: 1
EndChar

StartChar: edieresis
Encoding: 363 235 138
Width: 538
GlyphClass: 2
Flags: HMW
HStem: -14 136<294.5 334> 217 99<206 329 206 504 202 329> 402 136<247.5 295> 602 154<68 233 68 233 68 313 313 478> 602 159.25
VStem: 26 180<316 316 316 342> 68 165<602 756 602 756> 313 165<602 756 602 756>
AnchorPoint: "Anchor-0" 297 0 basechar 0
LayerCount: 2
Fore
SplineSet
68 602 m 1xf3
 68 756 l 1xeb
 110 763 191 763 233 756 c 1
 233 602 l 1xf3
 191 595 110 595 68 602 c 1xf3
313 602 m 1xf3
 313 756 l 1xeb
 355 763 436 763 478 756 c 1
 478 602 l 1
 436 595 355 595 313 602 c 1xf3
26 260 m 0xf5
 26 424 110 538 279 538 c 0
 448 538 495 424 502 298 c 0
 504 265 504 244 504 217 c 1
 202 217 l 1
 213 150 250 122 339 122 c 0
 389 122 422 128 470 141 c 1
 490 28 l 1
 427 -3 370 -14 298 -14 c 0
 120 -14 26 67 26 260 c 0xf5
206 316 m 1
 329 316 l 1
 326 360 317 402 273 402 c 0xf5
 222 402 209 366 206 316 c 1
EndSplineSet
Validated: 33
EndChar

StartChar: edotaccent
Encoding: 364 279 139
Width: 538
GlyphClass: 2
Flags: HMW
HStem: -14 136<294.5 334> 217 99<206 329 206 504 202 329> 402 136<247.5 295> 602 154<183 363 183 363> 602 159.25
VStem: 26 180<316 316 316 342> 183 180<602 756 602 756>
AnchorPoint: "Anchor-0" 297 0 basechar 0
LayerCount: 2
Fore
SplineSet
183 602 m 1xf2
 183 756 l 1xea
 225 763 321 763 363 756 c 1
 363 602 l 1xf2
 321 595 225 595 183 602 c 1xf2
26 260 m 0xf4
 26 424 110 538 279 538 c 0
 448 538 495 424 502 298 c 0
 504 265 504 244 504 217 c 1
 202 217 l 1
 213 150 250 122 339 122 c 0
 389 122 422 128 470 141 c 1
 490 28 l 1
 427 -3 370 -14 298 -14 c 0
 120 -14 26 67 26 260 c 0xf4
206 316 m 1
 329 316 l 1
 326 360 317 402 273 402 c 0xf4
 222 402 209 366 206 316 c 1
EndSplineSet
Validated: 33
EndChar

StartChar: egrave
Encoding: 365 232 140
Width: 538
GlyphClass: 2
Flags: HMW
HStem: -14 136<294.5 334> 217 99<206 329 206 504 202 329> 402 136<247.5 295> 604 176<241 254 80 326 241 241>
VStem: 26 180<316 316 316 342>
AnchorPoint: "Anchor-0" 297 0 basechar 0
LayerCount: 2
Fore
SplineSet
80 780 m 1
 254 780 l 1
 326 604 l 1
 241 604 l 1
 80 780 l 1
26 260 m 0
 26 424 110 538 279 538 c 0
 448 538 495 424 502 298 c 0
 504 265 504 244 504 217 c 1
 202 217 l 1
 213 150 250 122 339 122 c 0
 389 122 422 128 470 141 c 1
 490 28 l 1
 427 -3 370 -14 298 -14 c 0
 120 -14 26 67 26 260 c 0
206 316 m 1
 329 316 l 1
 326 360 317 402 273 402 c 0
 222 402 209 366 206 316 c 1
EndSplineSet
Validated: 1
EndChar

StartChar: emacron
Encoding: 366 275 141
Width: 538
GlyphClass: 2
Flags: HMW
HStem: -14 136<294.5 334> 217 99<206 329 206 504 202 329> 402 136<247.5 295> 644 96<134 412 134 412>
VStem: 26 180<316 316 316 342> 134 278<644 740 644 740>
AnchorPoint: "Anchor-0" 297 0 basechar 0
LayerCount: 2
Fore
SplineSet
134 644 m 1xf4
 134 740 l 1
 412 740 l 1
 412 644 l 1
 134 644 l 1xf4
26 260 m 0xf8
 26 424 110 538 279 538 c 0
 448 538 495 424 502 298 c 0
 504 265 504 244 504 217 c 1
 202 217 l 1
 213 150 250 122 339 122 c 0
 389 122 422 128 470 141 c 1
 490 28 l 1
 427 -3 370 -14 298 -14 c 0
 120 -14 26 67 26 260 c 0xf8
206 316 m 1
 329 316 l 1
 326 360 317 402 273 402 c 0
 222 402 209 366 206 316 c 1
EndSplineSet
Validated: 1
EndChar

StartChar: eogonek
Encoding: 367 281 142
Width: 553
GlyphClass: 2
Flags: HMW
HStem: -220 89<342 457> -14 136<294.5 298 298 316> 217 99<206 329 206 504 202 329> 402 136<247.5 295>
VStem: 26 180<316 316 316 342> 253 114<-152 -52.5>
AnchorPoint: "Anchor-0" 297 0 basechar 0
LayerCount: 2
Fore
SplineSet
26 260 m 0
 26 424 110 538 279 538 c 0
 448 538 495 424 502 298 c 0
 504 265 504 244 504 217 c 1
 202 217 l 1
 213 150 250 122 339 122 c 0
 389 122 422 128 470 141 c 1
 490 28 l 2
 489 28 489 27 488 27 c 2
 494 28 l 1
 399 -14 367 -31 367 -74 c 0
 367 -111 398 -131 447 -131 c 0
 467 -131 485 -129 503 -123 c 1
 498 -195 l 1
 463 -212 432 -220 373 -220 c 0
 311 -220 253 -188 253 -116 c 0
 253 -75 271 -40 316 -14 c 1
 298 -14 l 2
 120 -14 26 67 26 260 c 0
206 316 m 1
 329 316 l 1
 326 360 317 402 273 402 c 0
 222 402 209 366 206 316 c 1
EndSplineSet
Validated: 5
EndChar

StartChar: f
Encoding: 102 102 143
Width: 412
GlyphClass: 2
Flags: HMW
HStem: 0 21G<104 284 104 104> 394 130<28 104 28 104 284 381> 628 136<252 369>
VStem: 104 180<0 394 0 394 524 537 537 548 0 549>
LayerCount: 2
Fore
SplineSet
28 394 m 1
 28 524 l 1
 104 524 l 1
 104 537 l 2
 104 561 104 572 106 596 c 0
 115 700 195 764 309 764 c 0
 351 764 396 754 427 737 c 1
 409 624 l 5
 391 627 378 628 360 628 c 0
 316 628 284 601 284 548 c 2
 284 524 l 1
 399 524 l 1
 381 394 l 1
 284 394 l 1
 284 0 l 1
 104 0 l 1
 104 394 l 1
 28 394 l 1
EndSplineSet
Validated: 1
EndChar

StartChar: g
Encoding: 103 103 144
Width: 566
GlyphClass: 2
Flags: HMW
HStem: -220 120<252 297 252 346> 46 82<175 289> 161 115<244.5 263 263 281> 394 130<500 540 500 500> 422 116<245.5 289.5 207 297.5>
VStem: 11 190<-54 -6.5 -54 16> 31 163<325 372 325 408> 347 185<-48 -13.5> 348 163<326 344.5 300.5 373>
AnchorPoint: "Anchor-0" 283 0 basechar 0
LayerCount: 2
Fore
SplineSet
11 -39 m 0xf5
 11 71 107 128 243 128 c 0
 251 128 259 128 267 127 c 1
 270 138 275 150 281 161 c 1
 263 161 l 2
 130 161 31 220 31 345 c 0
 31 471 143 538 271 538 c 0xeb
 308 538 341 534 367 524 c 1
 558 524 l 1xf3
 540 394 l 1
 500 394 l 1
 507 376 511 356 511 333 c 0
 511 268 481 221 425 193 c 1
 423 185 423 179 423 171 c 0xf280
 423 149 438 129 466 102 c 0
 511 60 532 18 532 -30 c 0
 532 -152 428 -220 264 -220 c 0
 117 -220 11 -167 11 -39 c 0xf5
194 348 m 0xea80
 194 302 218 276 271 276 c 0
 323 276 348 302 348 350 c 0
 348 396 324 422 271 422 c 0
 220 422 194 396 194 348 c 0xea80
201 -31 m 0
 201 -77 230 -100 274 -100 c 0xf5
 320 -100 347 -74 347 -22 c 0
 347 -5 341 21 326 43 c 1
 311 45 296 46 282 46 c 0
 226 46 201 18 201 -31 c 0
EndSplineSet
Validated: 1
EndChar

StartChar: gbreve
Encoding: 368 287 145
Width: 566
GlyphClass: 2
Flags: HMW
HStem: -220 120<252 297 252 346> 46 82<175 289> 161 115<244.5 263 263 281> 394 130<500 540 500 500> 422 116<245.5 289.5 207 297.5> 584 106<265.5 300.5 265.5 328.5>
VStem: 11 190<-54 -6.5 -54 16> 31 163<325 372 325 408> 144 86<780 780> 336 86<780 780> 347 185<-48 -13.5> 348 163<326 344.5 300.5 373>
AnchorPoint: "Anchor-0" 283 0 basechar 0
LayerCount: 2
Fore
SplineSet
144 780 m 1xe4c0
 230 780 l 1
 227 714 248 690 283 690 c 0
 318 690 339 714 336 780 c 1
 422 780 l 1
 436 629 374 584 283 584 c 0
 191 584 130 629 144 780 c 1xe4c0
11 -39 m 0xf620
 11 71 107 128 243 128 c 0
 251 128 259 128 267 127 c 1
 270 138 275 150 281 161 c 1
 263 161 l 2
 130 161 31 220 31 345 c 0
 31 471 143 538 271 538 c 0xed
 308 538 341 534 367 524 c 1
 558 524 l 1
 540 394 l 1
 500 394 l 1
 507 376 511 356 511 333 c 0xf510
 511 268 481 221 425 193 c 1
 423 185 423 179 423 171 c 0
 423 149 438 129 466 102 c 0
 511 60 532 18 532 -30 c 0
 532 -152 428 -220 264 -220 c 0
 117 -220 11 -167 11 -39 c 0xf620
194 348 m 0
 194 302 218 276 271 276 c 0
 323 276 348 302 348 350 c 0xed10
 348 396 324 422 271 422 c 0
 220 422 194 396 194 348 c 0
201 -31 m 0xe620
 201 -77 230 -100 274 -100 c 0
 320 -100 347 -74 347 -22 c 0
 347 -5 341 21 326 43 c 1
 311 45 296 46 282 46 c 0
 226 46 201 18 201 -31 c 0xe620
EndSplineSet
Validated: 33
EndChar

StartChar: gcommaaccent
Encoding: 369 291 146
Width: 566
GlyphClass: 2
Flags: HMW
HStem: -220 120<252 297 252 346> 46 82<175 289> 161 115<244.5 263 263 281> 394 130<500 540 500 500> 422 116<245.5 289.5 207 297.5>
VStem: 11 190<-54 -6.5 -54 16> 31 163<325 372 325 408> 205 139 347 185<-48 -13.5> 348 163<326 344.5 300.5 373>
AnchorPoint: "Anchor-0" 283 0 basechar 0
LayerCount: 2
Fore
SplineSet
205 610 m 1xe1
 203 699 238 797 288 858 c 1
 389 858 l 1
 349 754 339 689 344 630 c 1
 323 618 231 608 205 610 c 1xe1
11 -39 m 0xf580
 11 71 107 128 243 128 c 0
 251 128 259 128 267 127 c 1
 270 138 275 150 281 161 c 1
 263 161 l 2
 130 161 31 220 31 345 c 0
 31 471 143 538 271 538 c 0xeb
 308 538 341 534 367 524 c 1
 558 524 l 1
 540 394 l 1
 500 394 l 1
 507 376 511 356 511 333 c 0xf340
 511 268 481 221 425 193 c 1
 423 185 423 179 423 171 c 0
 423 149 438 129 466 102 c 0
 511 60 532 18 532 -30 c 0
 532 -152 428 -220 264 -220 c 0
 117 -220 11 -167 11 -39 c 0xf580
194 348 m 0
 194 302 218 276 271 276 c 0
 323 276 348 302 348 350 c 0xeb40
 348 396 324 422 271 422 c 0
 220 422 194 396 194 348 c 0
201 -31 m 0xe580
 201 -77 230 -100 274 -100 c 0
 320 -100 347 -74 347 -22 c 0
 347 -5 341 21 326 43 c 1
 311 45 296 46 282 46 c 0
 226 46 201 18 201 -31 c 0xe580
EndSplineSet
Validated: 33
EndChar

StartChar: gdotaccent
Encoding: 370 289 147
Width: 566
GlyphClass: 2
Flags: HMW
HStem: -220 120<252 297 252 346> 46 82<175 289> 161 115<244.5 263 263 281> 394 130<500 540 500 500> 422 116<245.5 289.5 207 297.5> 602 154<193 373 193 373> 602 159.25
VStem: 11 190<-54 -6.5 -54 16> 31 163<325 372 325 408> 193 180<602 756 602 756> 347 185<-48 -13.5> 348 163<326 344.5 300.5 373>
AnchorPoint: "Anchor-0" 283 0 basechar 0
LayerCount: 2
Fore
SplineSet
193 602 m 1xf440
 193 756 l 1xf240
 235 763 331 763 373 756 c 1
 373 602 l 1xf440
 331 595 235 595 193 602 c 1xf440
11 -39 m 0xf520
 11 71 107 128 243 128 c 0
 251 128 259 128 267 127 c 1
 270 138 275 150 281 161 c 1
 263 161 l 2
 130 161 31 220 31 345 c 0xec80
 31 471 143 538 271 538 c 0xec40
 308 538 341 534 367 524 c 1
 558 524 l 1
 540 394 l 1
 500 394 l 1
 507 376 511 356 511 333 c 0
 511 268 481 221 425 193 c 1
 423 185 423 179 423 171 c 0xf410
 423 149 438 129 466 102 c 0
 511 60 532 18 532 -30 c 0
 532 -152 428 -220 264 -220 c 0
 117 -220 11 -167 11 -39 c 0xf520
194 348 m 0xec90
 194 302 218 276 271 276 c 0
 323 276 348 302 348 350 c 0
 348 396 324 422 271 422 c 0
 220 422 194 396 194 348 c 0xec90
201 -31 m 0
 201 -77 230 -100 274 -100 c 0xf520
 320 -100 347 -74 347 -22 c 0
 347 -5 341 21 326 43 c 1
 311 45 296 46 282 46 c 0
 226 46 201 18 201 -31 c 0
EndSplineSet
Validated: 33
EndChar

StartChar: h
Encoding: 104 104 148
Width: 624
GlyphClass: 2
Flags: HMW
HStem: 0 21G<59 239 59 59 394 574 394 394> 402 136<299.5 448.5> 725 20G<59 59> 735 20G<239 239>
VStem: 59 180<0 374 0 490 490 745 745 745> 394 180<0 284 0 294 0 332.5>
LayerCount: 2
Fore
SplineSet
59 0 m 1xdc
 59 745 l 1xec
 239 755 l 1
 239 490 l 1
 287 519 340 538 390 538 c 0
 507 538 563 476 572 375 c 0
 574 352 574 318 574 284 c 2
 574 0 l 1
 394 0 l 1
 394 294 l 2
 394 371 373 402 312 402 c 0
 287 402 262 392 239 374 c 1
 239 0 l 1
 59 0 l 1xdc
EndSplineSet
Validated: 1
EndChar

StartChar: hbar
Encoding: 371 295 149
Width: 624
GlyphClass: 2
Flags: HMW
HStem: 0 21G<59 239 59 59 394 574 394 394> 402 136<299.5 448.5> 579 100<-6 59 -6 59 239 364> 579 176<239 239 239 364> 725 20G<59 59>
VStem: 59 180<0 374 0 490 490 579 679 745 745 745> 394 180<0 284 0 294 0 332.5>
LayerCount: 2
Fore
SplineSet
-6 579 m 1xd6
 -6 679 l 1
 59 679 l 1
 59 745 l 1xee
 239 755 l 1xd6
 239 679 l 1
 364 679 l 1xee
 364 579 l 1
 239 579 l 1xd6
 239 490 l 1
 287 519 340 538 390 538 c 0
 507 538 563 476 572 375 c 0xee
 574 352 574 318 574 284 c 2
 574 0 l 1
 394 0 l 1
 394 294 l 2
 394 371 373 402 312 402 c 0
 287 402 262 392 239 374 c 1
 239 0 l 1
 59 0 l 1
 59 579 l 1
 -6 579 l 1xd6
EndSplineSet
Validated: 1
EndChar

StartChar: i
Encoding: 105 105 150
Width: 298
GlyphClass: 2
Flags: MW
HStem: 1.45912 150
LayerCount: 2
Fore
SplineSet
59 602 m 1
 59 756 l 1
 101 763 197 763 239 756 c 1
 239 602 l 1
 197 595 101 595 59 602 c 1
59 0 m 1
 59 519 l 1
 239 529 l 1
 239 0 l 1
 59 0 l 1
EndSplineSet
Validated: 33
EndChar

StartChar: dotlessi
Encoding: 372 305 151
Width: 298
GlyphClass: 2
Flags: MW
HStem: 0 21G<59 59 59 239> 509 20G<239 239>
VStem: 59 180<0 519 519 519>
LayerCount: 2
Fore
SplineSet
59 0 m 5
 59 519 l 5
 239 529 l 5
 239 0 l 5
 59 0 l 5
EndSplineSet
Validated: 1
EndChar

StartChar: iacute
Encoding: 373 237 152
Width: 298
GlyphClass: 2
Flags: MW
HStem: 0 21G<59 59 59 239> 509 20G<239 239> 604 176<81 327 153 166>
VStem: 59 180<0 519 519 519>
LayerCount: 2
Fore
SplineSet
81 604 m 1
 153 780 l 1
 327 780 l 1
 166 604 l 1
 81 604 l 1
59 0 m 1
 59 519 l 1
 239 529 l 1
 239 0 l 1
 59 0 l 1
EndSplineSet
Validated: 1
EndChar

StartChar: icircumflex
Encoding: 374 238 153
Width: 298
GlyphClass: 2
Flags: HMW
HStem: 0 21G<59 59 59 239> 509 20G<239 239> 604 176<-13 212 -13 212 210 210 210 212 86 311>
VStem: 59 180<0 519 519 519>
LayerCount: 2
Fore
SplineSet
-13 604 m 1
 86 780 l 1
 212 780 l 1
 311 604 l 1
 210 604 l 1
 148 689 l 1
 78 604 l 1
 -13 604 l 1
59 0 m 1
 59 519 l 1
 239 529 l 1
 239 0 l 1
 59 0 l 1
EndSplineSet
Validated: 1
EndChar

StartChar: idieresis
Encoding: 375 239 154
Width: 298
GlyphClass: 2
Flags: MW
HStem: 0 21G<59 59 59 239> 509 20G<239 239> 602 154<-56 109 -56 109 189 354 -56 189> 602 159.25
VStem: -56 165<602 756 602 756> 59 180<0 519 519 519> 189 165<602 756 602 756>
LayerCount: 2
Fore
SplineSet
-56 602 m 1xe8
 -56 756 l 1xd8
 -14 763 67 763 109 756 c 1
 109 602 l 1xe4
 67 595 -14 595 -56 602 c 1xe8
189 602 m 1xe4
 189 756 l 1xd4
 231 763 312 763 354 756 c 1
 354 602 l 1xe2
 312 595 231 595 189 602 c 1xe4
59 0 m 1
 59 519 l 1
 239 529 l 1
 239 0 l 1
 59 0 l 1
EndSplineSet
Validated: 33
EndChar

StartChar: igrave
Encoding: 376 236 155
Width: 298
GlyphClass: 2
Flags: HMW
HStem: 0 21G<59 59 59 239> 509 20G<239 239> 604 176<117 117 117 130 -44 202>
VStem: 59 180<0 519 519 519>
LayerCount: 2
Fore
SplineSet
-44 780 m 1
 130 780 l 1
 202 604 l 1
 117 604 l 1
 -44 780 l 1
59 0 m 1
 59 519 l 1
 239 529 l 1
 239 0 l 1
 59 0 l 1
EndSplineSet
Validated: 1
EndChar

StartChar: ij
Encoding: 377 307 156
Width: 610
GlyphClass: 2
Flags: HMW
HStem: 1.45912 150
LayerCount: 2
Fore
SplineSet
59 602 m 1
 59 756 l 1
 101 763 197 763 239 756 c 1
 239 602 l 1
 197 595 101 595 59 602 c 1
371 602 m 1
 371 756 l 1
 413 763 509 763 551 756 c 1
 551 602 l 1
 509 595 413 595 371 602 c 1
59 0 m 1
 59 519 l 1
 239 529 l 1
 239 0 l 1
 59 0 l 1
260 -92 m 1
 345 -90 371 -58 371 40 c 2
 371 519 l 1
 551 529 l 1
 551 90 l 2
 551 43 551 9 549 -33 c 0
 544 -146 480 -225 279 -220 c 1
 260 -92 l 1
EndSplineSet
Validated: 33
EndChar

StartChar: imacron
Encoding: 378 299 157
Width: 298
GlyphClass: 2
Flags: MW
HStem: 0 21G<59 59 59 239> 509 20G<239 239> 644 96<10 288 10 288>
VStem: 59 180<0 519 519 519>
LayerCount: 2
Fore
SplineSet
10 644 m 1
 10 740 l 1
 288 740 l 1
 288 644 l 1
 10 644 l 1
59 0 m 1
 59 519 l 1
 239 529 l 1
 239 0 l 1
 59 0 l 1
EndSplineSet
Validated: 1
EndChar

StartChar: iogonek
Encoding: 379 303 158
Width: 298
GlyphClass: 2
Flags: HMW
HStem: -220 89<75 190> 0 21G<160.5 192 192 239> 509 20G<239 239> 602 154<59 239 59 239>
VStem: 59 180<4 519 519 519 602 756>
LayerCount: 2
Fore
SplineSet
59 602 m 1
 59 756 l 1
 101 763 197 763 239 756 c 1
 239 602 l 1
 197 595 101 595 59 602 c 1
-14 -109 m 0
 -14 -63 7 -17 59 4 c 1
 59 519 l 1
 239 529 l 1
 239 0 l 1
 192 0 l 2
 129 0 100 -27 100 -71 c 0
 100 -107 131 -131 180 -131 c 0
 200 -131 218 -129 236 -123 c 1
 231 -195 l 1
 196 -212 165 -220 106 -220 c 0
 44 -220 -14 -188 -14 -109 c 0
EndSplineSet
Validated: 33
EndChar

StartChar: j
Encoding: 106 106 159
Width: 312
GlyphClass: 2
Flags: HMW
HStem: 1.45912 150
LayerCount: 2
Fore
SplineSet
73 602 m 1
 73 756 l 1
 115 763 211 763 253 756 c 1
 253 602 l 1
 211 595 115 595 73 602 c 1
-38 -92 m 1
 47 -90 73 -58 73 40 c 2
 73 519 l 1
 253 529 l 1
 253 90 l 2
 253 43 253 9 251 -33 c 0
 246 -146 182 -225 -19 -220 c 1
 -38 -92 l 1
EndSplineSet
Validated: 33
EndChar

StartChar: uni0237
Encoding: 380 567 160
Width: 312
GlyphClass: 2
Flags: HMW
HStem: -220 128<-38 -19> 509 20G<253 253>
VStem: 73 180<66.5 90 90 519 519 519>
LayerCount: 2
Fore
SplineSet
-38 -92 m 1
 47 -90 73 -58 73 40 c 2
 73 519 l 1
 253 529 l 1
 253 90 l 2
 253 43 253 9 251 -33 c 0
 246 -146 182 -225 -19 -220 c 1
 -38 -92 l 1
EndSplineSet
Validated: 33
EndChar

StartChar: k
Encoding: 107 107 161
Width: 616
GlyphClass: 2
Flags: HMW
HStem: 0 21G<59 239 59 59 383 610 383 383> 514 20G<408 408> 725 20G<59 59> 735 20G<239 239>
VStem: 59 180<0 234 0 292 292 745 745 745>
AnchorPoint: "Anchor-0" 302 0 basechar 0
LayerCount: 2
Fore
SplineSet
59 0 m 5xd8
 59 745 l 5xe8
 239 755 l 5
 239 292 l 5
 408 534 l 5
 601 520 l 5
 402 288 l 5
 610 0 l 5
 383 0 l 5
 239 234 l 5
 239 0 l 5
 59 0 l 5xd8
EndSplineSet
Validated: 1
EndChar

StartChar: kcommaaccent
Encoding: 381 311 162
Width: 616
GlyphClass: 2
Flags: HMW
HStem: 0 21G<59 239 59 59 383 610 383 383> 514 20G<408 408> 725 20G<59 59> 735 20G<239 239>
VStem: 59 180<0 234 0 292 292 745 745 745>
AnchorPoint: "Anchor-0" 302 0 basechar 0
LayerCount: 2
Fore
SplineSet
59 0 m 1xd8
 59 745 l 1xe8
 239 755 l 1
 239 292 l 1
 408 534 l 1
 601 520 l 1
 402 288 l 1
 610 0 l 1
 383 0 l 1
 239 234 l 1
 239 0 l 1
 59 0 l 1xd8
167 -290 m 1
 210 -196 227 -131 230 -62 c 1
 251 -50 343 -40 369 -42 c 1
 363 -131 328 -229 268 -290 c 1
 167 -290 l 1
EndSplineSet
Validated: 33
EndChar

StartChar: l
Encoding: 108 108 163
Width: 298
GlyphClass: 2
Flags: MW
HStem: 0 21G<59 59 59 239> 725 20G<59 59> 735 20G<239 239>
VStem: 59 180<0 745 745 745>
AnchorPoint: "Anchor-0" 149 0 basechar 0
LayerCount: 2
Fore
SplineSet
59 0 m 5xb0
 59 745 l 5xd0
 239 755 l 5
 239 0 l 5
 59 0 l 5xb0
EndSplineSet
Validated: 1
EndChar

StartChar: lacute
Encoding: 382 314 164
Width: 298
GlyphClass: 2
Flags: MW
HStem: 0 21G<59 59 59 239> 725 20G<59 59> 735 20G<239 239> 824 176<81 327 153 166>
VStem: 59 180<0 745 745 745>
AnchorPoint: "Anchor-0" 149 0 basechar 0
LayerCount: 2
Fore
SplineSet
81 824 m 1xb8
 153 1000 l 1
 327 1000 l 1
 166 824 l 1
 81 824 l 1xb8
59 0 m 1
 59 745 l 1xd8
 239 755 l 1
 239 0 l 1
 59 0 l 1
EndSplineSet
Validated: 1
EndChar

StartChar: lcaron
Encoding: 383 318 165
Width: 449
GlyphClass: 2
Flags: MW
HStem: 0 21G<59 59 59 239> 725 20G<59 59> 735 20G<239 239> 742 20G
VStem: 59 180<0 745 745 745> 342 139
AnchorPoint: "Anchor-0" 149 0 basechar 0
LayerCount: 2
Fore
SplineSet
279 514 m 1x9c
 322 608 339 673 342 742 c 1
 363 754 455 764 481 762 c 1
 475 673 440 575 380 514 c 1
 279 514 l 1x9c
59 0 m 1
 59 745 l 1xcc
 239 755 l 1xac
 239 0 l 1
 59 0 l 1
EndSplineSet
Validated: 33
EndChar

StartChar: lcommaaccent
Encoding: 384 316 166
Width: 298
GlyphClass: 2
Flags: MW
HStem: 0 21G<59 59 59 239> 725 20G<59 59> 735 20G<239 239>
VStem: 59 180<0 745 745 745>
AnchorPoint: "Anchor-0" 149 0 basechar 0
LayerCount: 2
Fore
SplineSet
59 0 m 1xb0
 59 745 l 1xd0
 239 755 l 1
 239 0 l 1
 59 0 l 1xb0
14 -290 m 1
 57 -196 74 -131 77 -62 c 1
 98 -50 190 -40 216 -42 c 1
 210 -131 175 -229 115 -290 c 1
 14 -290 l 1
EndSplineSet
Validated: 33
EndChar

StartChar: ldot
Encoding: 385 320 167
Width: 583
GlyphClass: 2
Flags: MW
HStem: 0 21G<59 59 59 239> 269 164<321 501 321 501> 725 20G<59 59> 735 20G<239 239>
VStem: 59 180<0 745 745 745> 321 180<269 433 269 433>
AnchorPoint: "Anchor-0" 149 0 basechar 0
LayerCount: 2
Fore
SplineSet
59 0 m 1xdc
 59 745 l 1xec
 239 755 l 1
 239 0 l 1
 59 0 l 1xdc
321 269 m 1
 321 433 l 1
 363 440 459 440 501 433 c 1
 501 269 l 1
 459 262 363 262 321 269 c 1
EndSplineSet
Validated: 33
Ligature2: "Ligature Substitution lookup 2 subtable" l periodcentered
EndChar

StartChar: lslash
Encoding: 386 322 168
Width: 298
GlyphClass: 2
Flags: HMW
HStem: 0 21G<59 239 59 59> 725 20G<59 59> 735 20G<239 239>
VStem: 59 180<0 241 241 241 0 502 502 745 745 745>
AnchorPoint: "Anchor-0" 149 0 basechar 0
LayerCount: 2
Fore
SplineSet
-23 194 m 1xb0
 -23 351 l 1
 59 398 l 1
 59 745 l 1xd0
 239 755 l 1
 239 502 l 1
 321 549 l 1
 321 392 l 1
 239 345 l 1
 239 0 l 1
 59 0 l 1
 59 241 l 1
 -23 194 l 1xb0
EndSplineSet
Validated: 1
EndChar

StartChar: m
Encoding: 109 109 169
Width: 959
GlyphClass: 2
Flags: HMW
HStem: 0 21G<59 239 59 59 394 574 394 394 729 909 729 729> 402 136<297.5 428.5> 509 20G<239 239>
VStem: 59 180<0 383 0 485 485 519 519 519> 394 180<0 284 0 294 0 332.5> 729 180<0 284 0 294 0 332.5>
CounterMasks: 1 1c
LayerCount: 2
Fore
SplineSet
59 0 m 5xdc
 59 519 l 5
 239 529 l 5xbc
 239 485 l 5
 287 519 340 538 390 538 c 4
 467 538 518 511 546 464 c 5
 602 511 665 538 725 538 c 4
 842 538 899 476 907 375 c 4
 909 352 909 318 909 284 c 6
 909 0 l 5
 729 0 l 5
 729 294 l 6
 729 371 706 402 645 402 c 4
 622 402 596 393 572 375 c 5
 574 352 574 318 574 284 c 6
 574 0 l 5
 394 0 l 5
 394 294 l 6
 394 371 371 402 310 402 c 4
 285 402 261 396 239 383 c 5
 239 0 l 5
 59 0 l 5xdc
EndSplineSet
Validated: 1
EndChar

StartChar: n
Encoding: 110 110 170
Width: 624
GlyphClass: 2
Flags: HMW
HStem: 0 21G<59 239 59 59 394 574 394 394> 402 136<300.5 448.5> 509 20G<239 239>
VStem: 59 180<0 373 0 488 488 519 519 519> 394 180<0 284 0 294 0 332.5>
AnchorPoint: "Anchor-0" 308 0 basechar 0
LayerCount: 2
Fore
SplineSet
59 0 m 5xd8
 59 519 l 5
 239 529 l 5xb8
 239 488 l 5
 287 519 340 538 390 538 c 4
 507 538 563 476 572 375 c 4
 574 352 574 318 574 284 c 6
 574 0 l 5
 394 0 l 5
 394 294 l 6
 394 371 374 402 313 402 c 4
 288 402 262 392 239 373 c 5
 239 0 l 5
 59 0 l 5xd8
EndSplineSet
Validated: 1
EndChar

StartChar: nacute
Encoding: 387 324 171
Width: 624
GlyphClass: 2
Flags: HMW
HStem: 0 21G<59 239 59 59 394 574 394 394> 402 136<300.5 448.5> 509 20G<239 239> 604 176<321 334 249 495>
VStem: 59 180<0 373 0 488 488 519 519 519> 394 180<0 284 0 294 0 332.5>
AnchorPoint: "Anchor-0" 308 0 basechar 0
LayerCount: 2
Fore
SplineSet
249 604 m 1x9c
 321 780 l 1
 495 780 l 1
 334 604 l 1
 249 604 l 1x9c
59 0 m 1
 59 519 l 1
 239 529 l 1xbc
 239 488 l 1
 287 519 340 538 390 538 c 0
 507 538 563 476 572 375 c 0
 574 352 574 318 574 284 c 2
 574 0 l 1
 394 0 l 1
 394 294 l 2
 394 371 374 402 313 402 c 0xdc
 288 402 262 392 239 373 c 1
 239 0 l 1
 59 0 l 1
EndSplineSet
Validated: 1
EndChar

StartChar: ncaron
Encoding: 388 328 172
Width: 624
GlyphClass: 2
Flags: HMW
HStem: 0 21G<59 239 59 59 394 574 394 394> 402 136<300.5 448.5> 509 20G<239 239> 604 176<254 256 155 380 254 254>
VStem: 59 180<0 373 0 488 488 519 519 519> 394 180<0 284 0 294 0 332.5>
AnchorPoint: "Anchor-0" 308 0 basechar 0
LayerCount: 2
Fore
SplineSet
155 780 m 1x9c
 256 780 l 1
 318 695 l 1
 388 780 l 1
 479 780 l 1
 380 604 l 1
 254 604 l 1
 155 780 l 1x9c
59 0 m 1
 59 519 l 1
 239 529 l 1xbc
 239 488 l 1
 287 519 340 538 390 538 c 0
 507 538 563 476 572 375 c 0
 574 352 574 318 574 284 c 2
 574 0 l 1
 394 0 l 1
 394 294 l 2
 394 371 374 402 313 402 c 0xdc
 288 402 262 392 239 373 c 1
 239 0 l 1
 59 0 l 1
EndSplineSet
Validated: 1
EndChar

StartChar: ncommaaccent
Encoding: 389 326 173
Width: 624
GlyphClass: 2
Flags: HMW
HStem: 0 21G<59 239 59 59 394 574 394 394> 402 136<300.5 448.5> 509 20G<239 239>
VStem: 59 180<0 373 0 488 488 519 519 519> 394 180<0 284 0 294 0 332.5>
AnchorPoint: "Anchor-0" 308 0 basechar 0
LayerCount: 2
Fore
SplineSet
59 0 m 1xd8
 59 519 l 1
 239 529 l 1xb8
 239 488 l 1
 287 519 340 538 390 538 c 0
 507 538 563 476 572 375 c 0
 574 352 574 318 574 284 c 2
 574 0 l 1
 394 0 l 1
 394 294 l 2
 394 371 374 402 313 402 c 0
 288 402 262 392 239 373 c 1
 239 0 l 1
 59 0 l 1xd8
173 -290 m 1
 216 -196 233 -131 236 -62 c 1
 257 -50 349 -40 375 -42 c 1
 369 -131 334 -229 274 -290 c 1
 173 -290 l 1
EndSplineSet
Validated: 33
EndChar

StartChar: eng
Encoding: 390 331 174
Width: 624
GlyphClass: 2
Flags: HMW
HStem: -223 140<299 332> 0 21G<59 239 59 59 574 574> 402 136<300.5 448.5> 509 20G<239 239>
VStem: 59 180<0 373 0 488 488 519 519 519> 394 180<-4 0 0 284>
AnchorPoint: "Anchor-0" 308 0 basechar 0
LayerCount: 2
Fore
SplineSet
59 0 m 1xec
 59 519 l 1
 239 529 l 1xdc
 239 488 l 1
 287 519 340 538 390 538 c 0
 507 538 563 476 572 375 c 0
 574 352 574 318 574 284 c 2
 574 0 l 2
 574 -27 574 -44 572 -68 c 0
 563 -177 494 -231 299 -223 c 1
 299 -83 l 1
 365 -83 394 -65 394 -4 c 2
 394 294 l 2
 394 371 374 402 313 402 c 0
 288 402 262 392 239 373 c 1
 239 0 l 1
 59 0 l 1xec
EndSplineSet
Validated: 33
EndChar

StartChar: ntilde
Encoding: 391 241 175
Width: 624
GlyphClass: 2
Flags: HMW
HStem: 0 21G<59 239 59 59 394 574 394 394> 402 136<300.5 448.5> 509 20G<239 239> 610 112<356 407.5> 662 113<241 241.5 202.5 253.5>
VStem: 59 180<0 373 0 488 488 519 519 519> 394 180<0 284 0 294 0 332.5>
AnchorPoint: "Anchor-0" 308 0 basechar 0
LayerCount: 2
Fore
SplineSet
138 613 m 1x8e
 142 723 175 775 230 775 c 0x8e
 253 775 274 768 310 746 c 0
 336 730 351 722 361 722 c 0
 376 722 385 736 395 781 c 1
 472 772 l 1
 468 662 435 610 380 610 c 0x96
 357 610 337 617 300 639 c 0
 273 655 259 662 248 662 c 0
 234 662 225 650 215 604 c 1
 138 613 l 1x8e
59 0 m 1
 59 519 l 1
 239 529 l 1xa6
 239 488 l 1
 287 519 340 538 390 538 c 0
 507 538 563 476 572 375 c 0
 574 352 574 318 574 284 c 2
 574 0 l 1
 394 0 l 1
 394 294 l 2
 394 371 374 402 313 402 c 0xc6
 288 402 262 392 239 373 c 1
 239 0 l 1
 59 0 l 1
EndSplineSet
Validated: 1
EndChar

StartChar: o
Encoding: 111 111 176
Width: 612
GlyphClass: 2
Flags: HMW
HStem: -18 136<271.5 340.5 271.5 392> 402 136<271.5 340.5>
VStem: 26 180<211 309 211 351> 406 180<211 309>
LayerCount: 2
Fore
SplineSet
26 260 m 4
 26 442 134 538 306 538 c 4
 478 538 586 442 586 260 c 4
 586 78 478 -18 306 -18 c 4
 134 -18 26 78 26 260 c 4
206 260 m 4
 206 162 237 118 306 118 c 4
 375 118 406 162 406 260 c 4
 406 358 375 402 306 402 c 4
 237 402 206 358 206 260 c 4
EndSplineSet
Validated: 1
EndChar

StartChar: oacute
Encoding: 392 243 177
Width: 612
GlyphClass: 2
Flags: HMW
HStem: -18 136<271.5 340.5 271.5 392> 402 136<271.5 340.5> 604 176<310 323 238 484>
VStem: 26 180<211 309 211 351> 406 180<211 309>
LayerCount: 2
Fore
SplineSet
238 604 m 1
 310 780 l 1
 484 780 l 1
 323 604 l 1
 238 604 l 1
26 260 m 0
 26 442 134 538 306 538 c 0
 478 538 586 442 586 260 c 0
 586 78 478 -18 306 -18 c 0
 134 -18 26 78 26 260 c 0
206 260 m 0
 206 162 237 118 306 118 c 0
 375 118 406 162 406 260 c 0
 406 358 375 402 306 402 c 0
 237 402 206 358 206 260 c 0
EndSplineSet
Validated: 1
EndChar

StartChar: ocircumflex
Encoding: 393 244 178
Width: 612
GlyphClass: 2
Flags: HMW
HStem: -18 136<271.5 340.5 271.5 392> 402 136<271.5 340.5> 604 176<144 369 144 369 367 367 367 369 243 468>
VStem: 26 180<211 309 211 351> 406 180<211 309>
LayerCount: 2
Fore
SplineSet
144 604 m 1
 243 780 l 1
 369 780 l 1
 468 604 l 1
 367 604 l 1
 305 689 l 1
 235 604 l 1
 144 604 l 1
26 260 m 0
 26 442 134 538 306 538 c 0
 478 538 586 442 586 260 c 0
 586 78 478 -18 306 -18 c 0
 134 -18 26 78 26 260 c 0
206 260 m 0
 206 162 237 118 306 118 c 0
 375 118 406 162 406 260 c 0
 406 358 375 402 306 402 c 0
 237 402 206 358 206 260 c 0
EndSplineSet
Validated: 1
EndChar

StartChar: odieresis
Encoding: 394 246 179
Width: 612
GlyphClass: 2
Flags: HMW
HStem: -18 136<271.5 340.5 271.5 392> 402 136<271.5 340.5> 602 154<101 266 101 266 101 346 346 511> 602 159.25
VStem: 26 180<211 309 211 351> 101 165<602 756 602 756> 346 165<602 756 602 756> 406 180<211 309>
LayerCount: 2
Fore
SplineSet
101 602 m 1xe6
 101 756 l 1xd6
 143 763 224 763 266 756 c 1
 266 602 l 1xe6
 224 595 143 595 101 602 c 1xe6
346 602 m 1xe6
 346 756 l 1xd6
 388 763 469 763 511 756 c 1
 511 602 l 1
 469 595 388 595 346 602 c 1xe6
26 260 m 0
 26 442 134 538 306 538 c 0xe9
 478 538 586 442 586 260 c 0
 586 78 478 -18 306 -18 c 0
 134 -18 26 78 26 260 c 0
206 260 m 0
 206 162 237 118 306 118 c 0
 375 118 406 162 406 260 c 0
 406 358 375 402 306 402 c 0
 237 402 206 358 206 260 c 0
EndSplineSet
Validated: 33
EndChar

StartChar: ograve
Encoding: 395 242 180
Width: 612
GlyphClass: 2
Flags: HMW
HStem: -18 136<271.5 340.5 271.5 392> 402 136<271.5 340.5> 604 176<274 287 113 359 274 274>
VStem: 26 180<211 309 211 351> 406 180<211 309>
LayerCount: 2
Fore
SplineSet
113 780 m 1
 287 780 l 1
 359 604 l 1
 274 604 l 1
 113 780 l 1
26 260 m 0
 26 442 134 538 306 538 c 0
 478 538 586 442 586 260 c 0
 586 78 478 -18 306 -18 c 0
 134 -18 26 78 26 260 c 0
206 260 m 0
 206 162 237 118 306 118 c 0
 375 118 406 162 406 260 c 0
 406 358 375 402 306 402 c 0
 237 402 206 358 206 260 c 0
EndSplineSet
Validated: 1
EndChar

StartChar: ohungarumlaut
Encoding: 396 337 181
Width: 612
GlyphClass: 2
Flags: HMW
HStem: -18 136<271.5 340.5 271.5 392> 402 136<271.5 340.5> 604 176<218 231 146 392 356 356 356 392 428 441>
VStem: 26 180<211 309 211 351> 406 180<211 309>
LayerCount: 2
Fore
SplineSet
146 604 m 1
 218 780 l 1
 392 780 l 1
 231 604 l 1
 146 604 l 1
356 604 m 1
 428 780 l 1
 602 780 l 1
 441 604 l 1
 356 604 l 1
26 260 m 0
 26 442 134 538 306 538 c 0
 478 538 586 442 586 260 c 0
 586 78 478 -18 306 -18 c 0
 134 -18 26 78 26 260 c 0
206 260 m 0
 206 162 237 118 306 118 c 0
 375 118 406 162 406 260 c 0
 406 358 375 402 306 402 c 0
 237 402 206 358 206 260 c 0
EndSplineSet
Validated: 1
EndChar

StartChar: omacron
Encoding: 397 333 182
Width: 612
GlyphClass: 2
Flags: HMW
HStem: -18 136<271.5 340.5 271.5 392> 402 136<271.5 340.5> 644 96<167 445 167 445>
VStem: 26 180<211 309 211 351> 167 278<644 740 644 740> 406 180<211 309>
LayerCount: 2
Fore
SplineSet
167 644 m 1xe8
 167 740 l 1
 445 740 l 1
 445 644 l 1
 167 644 l 1xe8
26 260 m 0xf4
 26 442 134 538 306 538 c 0
 478 538 586 442 586 260 c 0
 586 78 478 -18 306 -18 c 0
 134 -18 26 78 26 260 c 0xf4
206 260 m 0
 206 162 237 118 306 118 c 0
 375 118 406 162 406 260 c 0
 406 358 375 402 306 402 c 0
 237 402 206 358 206 260 c 0
EndSplineSet
Validated: 1
EndChar

StartChar: oslash
Encoding: 398 248 183
Width: 640
GlyphClass: 2
Flags: HMW
HStem: -18 136<301.5 340.5 301.5 392> -10 21G<82 82> -4 21G<201 201> 402 136<271.5 312.5> 510 20G<542 542>
VStem: 26 180<247 309 247 351> 406 180<211 269.5>
LayerCount: 2
Fore
SplineSet
26 260 m 0x46
 26 442 134 538 306 538 c 0x56
 348 538 387 532 421 521 c 1
 446 560 l 1
 542 530 l 1
 505 472 l 1
 557 426 586 354 586 260 c 0
 586 78 478 -18 306 -18 c 0x8e
 268 -18 233 -13 201 -4 c 1x26
 178 -40 l 1
 82 -10 l 1
 115 41 l 1
 58 88 26 161 26 260 c 0x46
206 260 m 0
 206 234 208 213 212 194 c 1
 342 397 l 1
 331 400 319 402 306 402 c 0
 237 402 206 358 206 260 c 0
280 120 m 1
 288 119 297 118 306 118 c 0x86
 375 118 406 162 406 260 c 0
 406 279 405 296 402 311 c 1
 280 120 l 1
EndSplineSet
Validated: 1
EndChar

StartChar: otilde
Encoding: 399 245 184
Width: 612
GlyphClass: 2
Flags: HMW
HStem: -18 136<271.5 340.5 271.5 392> 402 136<271.5 340.5> 610 112<345 396.5> 662 113<230 230.5 191.5 242.5>
VStem: 26 180<211 309 211 351> 406 180<211 309>
LayerCount: 2
Fore
SplineSet
127 613 m 1xdc
 131 723 164 775 219 775 c 0xdc
 242 775 263 768 299 746 c 0
 325 730 340 722 350 722 c 0
 365 722 374 736 384 781 c 1
 461 772 l 1
 457 662 424 610 369 610 c 0xec
 346 610 326 617 289 639 c 0
 262 655 248 662 237 662 c 0
 223 662 214 650 204 604 c 1
 127 613 l 1xdc
26 260 m 0
 26 442 134 538 306 538 c 0
 478 538 586 442 586 260 c 0
 586 78 478 -18 306 -18 c 0
 134 -18 26 78 26 260 c 0
206 260 m 0
 206 162 237 118 306 118 c 0
 375 118 406 162 406 260 c 0
 406 358 375 402 306 402 c 0
 237 402 206 358 206 260 c 0
EndSplineSet
Validated: 1
EndChar

StartChar: oe
Encoding: 400 339 185
Width: 920
GlyphClass: 2
Flags: HMW
HStem: -18 136<271.5 336.5 271.5 336.5> -14 136<676.5 716> 217 99<588 711 588 886 584 711> 402 136<271.5 336.5 629.5 677>
VStem: 26 180<211 309 211 351>
AnchorPoint: "Anchor-0" 679 0 basechar 0
LayerCount: 2
Fore
SplineSet
26 260 m 0xb8
 26 442 134 538 306 538 c 0
 367 538 431 515 479 469 c 1
 521 513 581 538 661 538 c 0
 830 538 877 424 884 298 c 0
 886 265 886 244 886 217 c 1
 584 217 l 1
 595 150 632 122 721 122 c 0
 771 122 804 128 852 141 c 1
 872 28 l 1
 809 -3 752 -14 680 -14 c 0x78
 591 -14 524 6 478 50 c 1
 430 4 367 -18 306 -18 c 0
 134 -18 26 78 26 260 c 0xb8
206 260 m 0
 206 162 237 118 306 118 c 0xb8
 367 118 408 167 408 260 c 0
 408 353 367 402 306 402 c 0
 237 402 206 358 206 260 c 0
588 316 m 1
 711 316 l 1
 708 360 699 402 655 402 c 0
 604 402 591 366 588 316 c 1
EndSplineSet
Validated: 1
EndChar

StartChar: p
Encoding: 112 112 186
Width: 595
GlyphClass: 2
Flags: HMW
HStem: -211 21G<59 59> -14 136<281.5 308 263.5 383.5> 402 136<262.5 305.5>
VStem: 59 180<-201 -12 -201 124 124 401> 389 180<208 320.5>
LayerCount: 2
Fore
SplineSet
59 -211 m 1
 59 502 l 1
 136 527 218 538 307 538 c 0
 471 538 569 467 569 273 c 0
 569 85 477 -14 290 -14 c 0
 273 -14 256 -13 239 -12 c 1
 239 -201 l 5
 59 -211 l 1
239 124 m 1
 249 122 259 122 268 122 c 0
 348 122 389 149 389 267 c 0
 389 374 350 402 261 402 c 0
 254 402 246 402 239 401 c 1
 239 124 l 1
EndSplineSet
Validated: 1
EndChar

StartChar: thorn
Encoding: 401 254 187
Width: 595
GlyphClass: 2
Flags: HMW
HStem: -211 21G<59 59> -14 136<281.5 308 263.5 383.5> 402 136<295.5 305.5> 725 20G<59 59> 735 20G<239 239>
VStem: 59 180<-201 -12 -201 124 124 401 536 745 745 745> 389 180<208 320.5>
AnchorPoint: "Anchor-0" 149 0 basechar 0
LayerCount: 2
Fore
SplineSet
59 -211 m 1xee
 59 502 l 1
 59 745 l 1xf6
 239 755 l 1
 239 536 l 1
 261 537 284 538 307 538 c 0
 471 538 569 467 569 273 c 0
 569 85 477 -14 290 -14 c 0
 273 -14 256 -13 239 -12 c 1
 239 -201 l 1
 59 -211 l 1xee
239 124 m 1
 249 122 259 122 268 122 c 0
 348 122 389 149 389 267 c 0
 389 374 350 402 261 402 c 0
 254 402 246 402 239 401 c 1
 239 124 l 1
EndSplineSet
Validated: 1
EndChar

StartChar: q
Encoding: 113 113 188
Width: 595
GlyphClass: 2
Flags: HMW
HStem: -211 21G<356 356> -14 136<289.5 299.5> 402 136<287 331.5>
VStem: 26 180<203.5 316 203.5 345> 356 180<-201 -12 -12 -12 123 400 400 400>
LayerCount: 2
Fore
SplineSet
26 251 m 0
 26 439 118 538 305 538 c 0
 390 538 469 525 536 502 c 1
 536 -201 l 1
 356 -211 l 1
 356 -12 l 1
 334 -13 311 -14 288 -14 c 0
 124 -14 26 57 26 251 c 0
206 257 m 0
 206 150 245 122 334 122 c 0
 341 122 349 122 356 123 c 1
 356 400 l 1
 346 402 336 402 327 402 c 0
 247 402 206 375 206 257 c 0
EndSplineSet
Validated: 1
EndChar

StartChar: r
Encoding: 114 114 189
Width: 434
GlyphClass: 2
Flags: MW
HStem: 0 21G<59 59 59 239> 384 154<330 366> 509 20G<239 239> 518 20G<329 370.5>
VStem: 59 180<0 331 437 519 519 519>
AnchorPoint: "Anchor-0" 149 0 basechar 0
LayerCount: 2
Fore
SplineSet
59 0 m 1xc8
 59 519 l 1
 239 529 l 1xa8
 239 437 l 1
 255 511 303 538 355 538 c 0xc8
 386 538 410 528 424 516 c 1x98
 412 377 l 1
 393 382 375 384 357 384 c 0
 303 384 265 366 239 331 c 1
 239 0 l 1
 59 0 l 1xc8
EndSplineSet
Validated: 1
EndChar

StartChar: racute
Encoding: 402 341 190
Width: 434
GlyphClass: 2
Flags: MW
HStem: 0 21G<59 59 59 239> 384 154<330 366> 509 20G<239 239> 518 20G<329 370.5> 604 176<149 395 221 234>
VStem: 59 180<0 331 437 519 519 519>
AnchorPoint: "Anchor-0" 149 0 basechar 0
LayerCount: 2
Fore
SplineSet
149 604 m 1xcc
 221 780 l 1
 395 780 l 1
 234 604 l 1
 149 604 l 1xcc
59 0 m 1
 59 519 l 1
 239 529 l 1xac
 239 437 l 1
 255 511 303 538 355 538 c 0xcc
 386 538 410 528 424 516 c 1x9c
 412 377 l 1
 393 382 375 384 357 384 c 0
 303 384 265 366 239 331 c 1
 239 0 l 1
 59 0 l 1
EndSplineSet
Validated: 1
EndChar

StartChar: rcaron
Encoding: 403 345 191
Width: 434
GlyphClass: 2
Flags: HMW
HStem: 0 21G<59 239 59 59> 384 154<330 366> 509 20G<239 239> 518 20G<329 370.5> 604 176<154 156 55 280 154 154>
VStem: 59 180<0 331 0 437 437 519 519 519>
AnchorPoint: "Anchor-0" 149 0 basechar 0
LayerCount: 2
Fore
SplineSet
55 780 m 1x8c
 156 780 l 1
 218 695 l 1
 288 780 l 1
 379 780 l 1
 280 604 l 1
 154 604 l 1
 55 780 l 1x8c
59 0 m 1
 59 519 l 1
 239 529 l 1xac
 239 437 l 1
 255 511 303 538 355 538 c 0
 386 538 410 528 424 516 c 1
 412 377 l 1
 393 382 375 384 357 384 c 0xcc
 303 384 265 366 239 331 c 1
 239 0 l 1
 59 0 l 1
EndSplineSet
Validated: 1
EndChar

StartChar: rcommaaccent
Encoding: 404 343 192
Width: 434
GlyphClass: 2
Flags: MW
HStem: 0 21G<59 59 59 239> 384 154<330 366> 509 20G<239 239> 518 20G<329 370.5>
VStem: 59 180<0 331 437 519 519 519>
AnchorPoint: "Anchor-0" 149 0 basechar 0
LayerCount: 2
Fore
SplineSet
59 0 m 1xc8
 59 519 l 1
 239 529 l 1xa8
 239 437 l 1
 255 511 303 538 355 538 c 0xc8
 386 538 410 528 424 516 c 1x98
 412 377 l 1
 393 382 375 384 357 384 c 0
 303 384 265 366 239 331 c 1
 239 0 l 1
 59 0 l 1xc8
14 -290 m 1
 57 -196 74 -131 77 -62 c 1
 98 -50 190 -40 216 -42 c 1
 210 -131 175 -229 115 -290 c 1
 14 -290 l 1
EndSplineSet
Validated: 33
EndChar

StartChar: s
Encoding: 115 115 193
Width: 453
GlyphClass: 2
Flags: HMW
HStem: -14 126<172 218.5 172 266.5> 412 126<252 285 201 290.5>
VStem: 48 171<367.5 388.5 367.5 433> 250 173<136 158>
AnchorPoint: "Anchor-0" 227 0 basechar 0
LayerCount: 2
Fore
SplineSet
28 29 m 5
 52 147 l 5
 101 123 144 112 200 112 c 4
 237 112 250 125 250 147 c 4
 250 169 230 187 179 210 c 4
 98 247 48 286 48 379 c 4
 48 487 150 538 252 538 c 4
 318 538 365 525 404 503 c 5
 388 390 l 5
 351 405 313 412 268 412 c 4
 236 412 219 398 219 379 c 4
 219 356 250 339 299 317 c 4
 391 277 423 228 423 149 c 4
 423 34 327 -14 206 -14 c 4
 138 -14 72 2 28 29 c 5
EndSplineSet
Validated: 1
EndChar

StartChar: sacute
Encoding: 405 347 194
Width: 453
GlyphClass: 2
Flags: HMW
HStem: -14 126<172 218.5 172 266.5> 412 126<252 285 201 290.5> 604 176<162 408 234 247>
VStem: 48 171<367.5 388.5 367.5 433> 250 173<136 158>
AnchorPoint: "Anchor-0" 227 0 basechar 0
LayerCount: 2
Fore
SplineSet
162 604 m 1
 234 780 l 1
 408 780 l 1
 247 604 l 1
 162 604 l 1
28 29 m 1
 52 147 l 1
 101 123 144 112 200 112 c 0
 237 112 250 125 250 147 c 0
 250 169 230 187 179 210 c 0
 98 247 48 286 48 379 c 0
 48 487 150 538 252 538 c 0
 318 538 365 525 404 503 c 1
 388 390 l 1
 351 405 313 412 268 412 c 0
 236 412 219 398 219 379 c 0
 219 356 250 339 299 317 c 0
 391 277 423 228 423 149 c 0
 423 34 327 -14 206 -14 c 0
 138 -14 72 2 28 29 c 1
EndSplineSet
Validated: 1
EndChar

StartChar: scaron
Encoding: 406 353 195
Width: 453
GlyphClass: 2
Flags: HMW
HStem: -14 126<172 218.5 172 266.5> 412 126<252 285 201 290.5> 604 176<167 169 68 293 167 167>
VStem: 48 171<367.5 388.5 367.5 433> 250 173<136 158>
AnchorPoint: "Anchor-0" 227 0 basechar 0
LayerCount: 2
Fore
SplineSet
68 780 m 1
 169 780 l 1
 231 695 l 1
 301 780 l 1
 392 780 l 1
 293 604 l 1
 167 604 l 1
 68 780 l 1
28 29 m 1
 52 147 l 1
 101 123 144 112 200 112 c 0
 237 112 250 125 250 147 c 0
 250 169 230 187 179 210 c 0
 98 247 48 286 48 379 c 0
 48 487 150 538 252 538 c 0
 318 538 365 525 404 503 c 1
 388 390 l 1
 351 405 313 412 268 412 c 0
 236 412 219 398 219 379 c 0
 219 356 250 339 299 317 c 0
 391 277 423 228 423 149 c 0
 423 34 327 -14 206 -14 c 0
 138 -14 72 2 28 29 c 1
EndSplineSet
Validated: 1
EndChar

StartChar: scedilla
Encoding: 407 351 196
Width: 453
GlyphClass: 2
Flags: HMW
HStem: -210 63<184 194 170.5 239.5> -14 21G<187 187> -14 126<187 187> 412 126<252 285 201 290.5>
VStem: 48 171<367.5 388.5 367.5 433> 228 108<-125.5 -101.5> 250 173<136 158>
AnchorPoint: "Anchor-0" 227 0 basechar 0
LayerCount: 2
Fore
SplineSet
28 29 m 1xdc
 52 147 l 1
 101 123 144 112 200 112 c 0
 237 112 250 125 250 147 c 0
 250 169 230 187 179 210 c 0
 98 247 48 286 48 379 c 0
 48 487 150 538 252 538 c 0
 318 538 365 525 404 503 c 1
 388 390 l 1
 351 405 313 412 268 412 c 0
 236 412 219 398 219 379 c 0
 219 356 250 339 299 317 c 0
 391 277 423 228 423 149 c 0xba
 423 52 354 2 260 -11 c 1
 247 -31 l 1
 304 -40 336 -68 336 -114 c 0
 336 -173 276 -210 203 -210 c 0
 165 -210 133 -202 110 -187 c 1
 133 -140 l 1
 146 -145 160 -147 181 -147 c 0
 207 -147 228 -137 228 -114 c 0
 228 -89 201 -73 153 -78 c 1
 187 -14 l 1
 126 -11 68 5 28 29 c 1xdc
EndSplineSet
Validated: 33
EndChar

StartChar: germandbls
Encoding: 408 223 197
Width: 657
GlyphClass: 2
Flags: HMW
HStem: -14 21G<376 457> -14 140<376 387.5 356.5 457> 0 21G<59 239 59 59> 620 144<294.5 337>
VStem: 59 180<0 417 417 452> 385 177<558 569> 438 180<168.5 202.5>
LayerCount: 2
Fore
SplineSet
59 0 m 1x3c
 59 417 l 2
 59 487 60 535 65 576 c 0
 78 680 160 764 317 764 c 0
 483 764 562 687 562 575 c 0x3c
 562 541 554 507 539 476 c 1
 515 466 486 453 486 433 c 0
 486 412 498 393 535 352 c 0
 599 283 618 232 618 177 c 0
 618 37 518 -14 396 -14 c 0x9a
 356 -14 317 -6 281 8 c 1
 307 135 l 1
 331 128 348 126 365 126 c 0
 410 126 438 149 438 188 c 0x5a
 438 217 424 245 383 290 c 0
 334 344 315 369 315 406 c 0
 315 440 334 471 377 493 c 1
 383 515 385 531 385 547 c 0
 385 591 358 620 316 620 c 0
 273 620 239 595 239 524 c 2
 239 0 l 1
 59 0 l 1x3c
EndSplineSet
Validated: 1
EndChar

StartChar: t
Encoding: 116 116 198
Width: 444
GlyphClass: 2
Flags: HMW
HStem: -15 136<206 365> 394 130<23 99 23 99 279 411>
VStem: 99 180<233 394 185 394 524 629 629 629>
AnchorPoint: "Anchor-0" 245 0 basechar 0
LayerCount: 2
Fore
SplineSet
23 394 m 1
 23 524 l 1
 99 524 l 1
 99 629 l 1
 279 680 l 1
 279 524 l 1
 429 524 l 1
 411 394 l 1
 279 394 l 1
 279 224 l 2
 279 146 296 121 355 121 c 0
 375 121 390 123 412 128 c 1
 426 19 l 1
 383 -1 322 -15 255 -15 c 0
 157 -15 111 31 104 101 c 0
 100 138 99 165 99 233 c 2
 99 394 l 1
 23 394 l 1
EndSplineSet
Validated: 1
EndChar

StartChar: tbar
Encoding: 409 359 199
Width: 444
GlyphClass: 2
Flags: HMW
HStem: -15 136<206 365> 220 100<30 99 30 99 279 400> 394 130<23 99 23 99 279 411>
VStem: 99 180<190.5 220 320 394 220 394 524 629 629 629>
AnchorPoint: "Anchor-0" 245 0 basechar 0
LayerCount: 2
Fore
SplineSet
23 394 m 1
 23 524 l 1
 99 524 l 1
 99 629 l 1
 279 680 l 1
 279 524 l 1
 429 524 l 1
 411 394 l 1
 279 394 l 1
 279 320 l 1
 400 320 l 1
 400 220 l 1
 279 220 l 1
 280 145 297 121 355 121 c 0
 375 121 390 123 412 128 c 1
 426 19 l 1
 383 -1 322 -15 255 -15 c 0
 157 -15 111 31 104 101 c 0
 100 136 99 161 99 220 c 1
 30 220 l 1
 30 320 l 1
 99 320 l 1
 99 394 l 1
 23 394 l 1
EndSplineSet
Validated: 1
EndChar

StartChar: tcaron
Encoding: 410 357 200
Width: 452
GlyphClass: 2
Flags: HMW
HStem: -15 136<206 365> 394 130<23 99 23 99 279 411> 742 20G
VStem: 99 180<233 394 185 394 524 629 629 629>
AnchorPoint: "Anchor-0" 245 0 basechar 0
LayerCount: 2
Fore
SplineSet
318 551 m 1
 358 627 375 683 378 742 c 1
 399 754 491 764 517 762 c 1
 505 683 471 615 419 551 c 1
 318 551 l 1
23 394 m 1
 23 524 l 1
 99 524 l 1
 99 629 l 1
 279 680 l 1
 279 524 l 1
 429 524 l 1
 411 394 l 1
 279 394 l 1
 279 224 l 2
 279 146 296 121 355 121 c 0
 375 121 390 123 412 128 c 1
 426 19 l 1
 383 -1 322 -15 255 -15 c 0
 157 -15 111 31 104 101 c 0
 100 138 99 165 99 233 c 2
 99 394 l 1
 23 394 l 1
EndSplineSet
Validated: 33
EndChar

StartChar: uni0163
Encoding: 411 355 201
Width: 444
GlyphClass: 2
Flags: HMW
HStem: -210 63<202 212 188.5 257.5> -11 21G<207 207> 394 130<23 99 23 99 279 411>
VStem: 99 180<233 394 185 394 524 629 629 629> 246 108<-125.5 -101.5>
AnchorPoint: "Anchor-0" 245 0 basechar 0
LayerCount: 2
Fore
SplineSet
23 394 m 1xf0
 23 524 l 1
 99 524 l 1
 99 629 l 1
 279 680 l 1
 279 524 l 1
 429 524 l 1
 411 394 l 1
 279 394 l 1
 279 224 l 2xf0
 279 146 296 121 355 121 c 0
 375 121 390 123 412 128 c 1
 426 19 l 1
 387 1 334 -12 275 -15 c 1
 265 -31 l 1
 322 -40 354 -68 354 -114 c 0
 354 -173 294 -210 221 -210 c 0
 183 -210 151 -202 128 -187 c 1
 151 -140 l 1
 164 -145 178 -147 199 -147 c 0
 225 -147 246 -137 246 -114 c 0xe8
 246 -89 219 -73 171 -78 c 1
 207 -11 l 1
 142 3 110 44 104 101 c 0
 100 138 99 165 99 233 c 2
 99 394 l 1
 23 394 l 1xf0
EndSplineSet
Validated: 33
EndChar

StartChar: u
Encoding: 117 117 202
Width: 618
GlyphClass: 2
Flags: HMW
HStem: -10 136<169.5 316> 0 126<275 559 275 379> 509 20G<224 224 559 559>
VStem: 44 180<244 519 519 519> 379 180<0 43 43 43 157 519 519 519>
LayerCount: 2
Fore
SplineSet
44 244 m 2xb8
 44 519 l 1
 224 529 l 1
 224 234 l 2
 224 157 247 126 303 126 c 0xb8
 329 126 355 137 379 157 c 1
 379 519 l 1
 559 529 l 1
 559 0 l 1
 379 0 l 1x78
 379 43 l 1
 331 9 278 -10 228 -10 c 0
 111 -10 54 52 46 153 c 0
 44 176 44 210 44 244 c 2xb8
EndSplineSet
Validated: 1
EndChar

StartChar: uacute
Encoding: 412 250 203
Width: 618
GlyphClass: 2
Flags: HMW
HStem: -10 136<169.5 316> 0 126<275 559 275 379> 509 20G<224 224 559 559> 604 176<313 326 241 487>
VStem: 44 180<244 519 519 519> 379 180<0 43 43 43 157 519 519 519>
LayerCount: 2
Fore
SplineSet
241 604 m 1x3c
 313 780 l 1
 487 780 l 1
 326 604 l 1
 241 604 l 1x3c
44 244 m 2
 44 519 l 1
 224 529 l 1
 224 234 l 2
 224 157 247 126 303 126 c 0xbc
 329 126 355 137 379 157 c 1
 379 519 l 1
 559 529 l 1
 559 0 l 1
 379 0 l 1x7c
 379 43 l 1
 331 9 278 -10 228 -10 c 0xbc
 111 -10 54 52 46 153 c 0
 44 176 44 210 44 244 c 2
EndSplineSet
Validated: 1
EndChar

StartChar: ucircumflex
Encoding: 413 251 204
Width: 618
GlyphClass: 2
Flags: HMW
HStem: -10 136<169.5 316> 0 126<275 559 275 379> 509 20G<224 224 559 559> 604 176<147 372 147 372 370 370 370 372 246 471>
VStem: 44 180<244 519 519 519> 379 180<0 43 43 43 157 519 519 519>
LayerCount: 2
Fore
SplineSet
147 604 m 1x3c
 246 780 l 1
 372 780 l 1
 471 604 l 1
 370 604 l 1
 308 689 l 1
 238 604 l 1
 147 604 l 1x3c
44 244 m 2
 44 519 l 1
 224 529 l 1
 224 234 l 2
 224 157 247 126 303 126 c 0xbc
 329 126 355 137 379 157 c 1
 379 519 l 1
 559 529 l 1
 559 0 l 1
 379 0 l 1x7c
 379 43 l 1
 331 9 278 -10 228 -10 c 0xbc
 111 -10 54 52 46 153 c 0
 44 176 44 210 44 244 c 2
EndSplineSet
Validated: 1
EndChar

StartChar: udieresis
Encoding: 414 252 205
Width: 618
GlyphClass: 2
Flags: HMW
HStem: -10 136<169.5 316> 0 126<275 559 275 379> 509 20G<224 224 559 559> 602 154<104 269 104 269 104 349 349 514> 602 159.25
VStem: 44 180<244 519 519 519> 104 165<602 756 602 756> 349 165<602 756 602 756> 379 180<0 43 43 43 157 519 519 519>
LayerCount: 2
Fore
SplineSet
104 602 m 1x7280
 104 756 l 1x6a80
 146 763 227 763 269 756 c 1
 269 602 l 1x7280
 227 595 146 595 104 602 c 1x7280
349 602 m 1x75
 349 756 l 1x6d
 391 763 472 763 514 756 c 1
 514 602 l 1x75
 472 595 391 595 349 602 c 1x75
44 244 m 2
 44 519 l 1
 224 529 l 1
 224 234 l 2
 224 157 247 126 303 126 c 0
 329 126 355 137 379 157 c 1
 379 519 l 1x7480
 559 529 l 1
 559 0 l 1
 379 0 l 1x7480
 379 43 l 1
 331 9 278 -10 228 -10 c 0xb480
 111 -10 54 52 46 153 c 0
 44 176 44 210 44 244 c 2
EndSplineSet
Validated: 33
EndChar

StartChar: ugrave
Encoding: 415 249 206
Width: 618
GlyphClass: 2
Flags: HMW
HStem: -10 136<169.5 316> 0 126<275 559 275 379> 509 20G<224 224 559 559> 604 176<277 290 116 362 277 277>
VStem: 44 180<244 519 519 519> 379 180<0 43 43 43 157 519 519 519>
LayerCount: 2
Fore
SplineSet
116 780 m 1x3c
 290 780 l 1
 362 604 l 1
 277 604 l 1
 116 780 l 1x3c
44 244 m 2
 44 519 l 1
 224 529 l 1
 224 234 l 2
 224 157 247 126 303 126 c 0xbc
 329 126 355 137 379 157 c 1
 379 519 l 1
 559 529 l 1
 559 0 l 1
 379 0 l 1x7c
 379 43 l 1
 331 9 278 -10 228 -10 c 0xbc
 111 -10 54 52 46 153 c 0
 44 176 44 210 44 244 c 2
EndSplineSet
Validated: 1
EndChar

StartChar: uhungarumlaut
Encoding: 416 369 207
Width: 618
GlyphClass: 2
Flags: HMW
HStem: -10 136<169.5 316> 0 126<275 559 275 379> 509 20G<224 224 559 559> 604 176<221 234 149 395 359 359 359 395 431 444>
VStem: 44 180<244 519 519 519> 379 180<0 43 43 43 157 519 519 519>
LayerCount: 2
Fore
SplineSet
149 604 m 1x3c
 221 780 l 1
 395 780 l 1
 234 604 l 1
 149 604 l 1x3c
359 604 m 1
 431 780 l 1
 605 780 l 1
 444 604 l 1
 359 604 l 1
44 244 m 2
 44 519 l 1
 224 529 l 1
 224 234 l 2
 224 157 247 126 303 126 c 0xbc
 329 126 355 137 379 157 c 1
 379 519 l 1
 559 529 l 1
 559 0 l 1
 379 0 l 1x7c
 379 43 l 1
 331 9 278 -10 228 -10 c 0xbc
 111 -10 54 52 46 153 c 0
 44 176 44 210 44 244 c 2
EndSplineSet
Validated: 1
EndChar

StartChar: umacron
Encoding: 417 363 208
Width: 618
GlyphClass: 2
Flags: HMW
HStem: -10 136<169.5 316> 0 126<275 559 275 379> 509 20G<224 224 559 559> 644 96<170 448 170 448>
VStem: 44 180<244 519 519 519> 379 180<0 43 43 43 157 519 519 519>
LayerCount: 2
Fore
SplineSet
170 644 m 1x3c
 170 740 l 1
 448 740 l 1
 448 644 l 1
 170 644 l 1x3c
44 244 m 2
 44 519 l 1
 224 529 l 1
 224 234 l 2
 224 157 247 126 303 126 c 0xbc
 329 126 355 137 379 157 c 1
 379 519 l 1
 559 529 l 1
 559 0 l 1
 379 0 l 1x7c
 379 43 l 1
 331 9 278 -10 228 -10 c 0xbc
 111 -10 54 52 46 153 c 0
 44 176 44 210 44 244 c 2
EndSplineSet
Validated: 1
EndChar

StartChar: uogonek
Encoding: 418 371 209
Width: 618
GlyphClass: 2
Flags: HMW
HStem: -220 89<393 508> -10 136<169.5 316> 0 21G<478.5 510 510 559> 509 20G<224 224 559 559>
VStem: 44 180<244 519 519 519> 304 114<-89 -85.5> 379 180<5 43 43 43 157 519 519 519>
LayerCount: 2
Fore
SplineSet
44 244 m 2xda
 44 519 l 1
 224 529 l 1
 224 234 l 2
 224 157 247 126 303 126 c 0xda
 329 126 355 137 379 157 c 1
 379 519 l 1
 559 529 l 1
 559 0 l 1xba
 510 0 l 2
 447 0 418 -27 418 -71 c 0
 418 -107 449 -131 498 -131 c 0
 518 -131 536 -129 554 -123 c 1
 549 -195 l 1
 514 -212 483 -220 424 -220 c 0
 362 -220 304 -188 304 -109 c 0xbc
 304 -62 326 -16 379 5 c 1
 379 43 l 1
 331 9 278 -10 228 -10 c 0
 111 -10 54 52 46 153 c 0
 44 176 44 210 44 244 c 2xda
EndSplineSet
Validated: 1
EndChar

StartChar: uring
Encoding: 419 367 210
Width: 618
GlyphClass: 2
Flags: HMW
HStem: -10 136<169.5 316> 0 126<275 559 275 379> 509 20G<224 224 559 559> 590 55<297 321 297 342.5> 739 55<297 321>
VStem: 44 180<244 519 519 519> 197 72<677 706.5 677 722> 349 72<677 706.5> 379 180<0 43 43 43 157 519 519 519>
LayerCount: 2
Fore
SplineSet
197 692 m 0x3b
 197 752 242 794 309 794 c 0
 376 794 421 752 421 692 c 0
 421 632 376 590 309 590 c 0
 242 590 197 632 197 692 c 0x3b
269 692 m 0
 269 662 285 645 309 645 c 0
 333 645 349 662 349 692 c 0
 349 721 333 739 309 739 c 0
 285 739 269 721 269 692 c 0
44 244 m 2xbc80
 44 519 l 1
 224 529 l 1
 224 234 l 2
 224 157 247 126 303 126 c 0xbc80
 329 126 355 137 379 157 c 1
 379 519 l 1
 559 529 l 1
 559 0 l 1
 379 0 l 1x7c80
 379 43 l 1
 331 9 278 -10 228 -10 c 0
 111 -10 54 52 46 153 c 0
 44 176 44 210 44 244 c 2xbc80
EndSplineSet
Validated: 1
EndChar

StartChar: v
Encoding: 118 118 211
Width: 576
GlyphClass: 2
Flags: HMW
HStem: 0 21G<207 361 207 207> 504 20G<-2 207 207 207 383 582 582 582>
VStem: -2 584<524 524>
LayerCount: 2
Fore
SplineSet
-2 524 m 5
 207 524 l 5
 290 172 l 5
 383 524 l 5
 582 524 l 5
 361 0 l 5
 207 0 l 5
 -2 524 l 5
EndSplineSet
Validated: 1
EndChar

StartChar: w
Encoding: 119 119 212
Width: 830
GlyphClass: 2
Flags: HMW
HStem: 0 21G<152 326 152 152 501 674 501 501> 504 20G<2 186 186 186 661 832 832 832>
VStem: 2 830<524 524>
LayerCount: 2
Fore
SplineSet
2 524 m 5
 186 524 l 5
 247 181 l 5
 336 516 l 5
 501 516 l 5
 588 182 l 5
 661 524 l 5
 832 524 l 5
 674 0 l 5
 501 0 l 5
 413 326 l 5
 326 0 l 5
 152 0 l 5
 2 524 l 5
EndSplineSet
Validated: 1
EndChar

StartChar: wacute
Encoding: 420 7811 213
Width: 830
GlyphClass: 2
Flags: HMW
HStem: 0 21G<152 326 152 152 501 674 501 501> 504 20G<2 186 186 186 661 832 832 832> 604 176<422 435 350 596>
VStem: 2 830<524 524>
LayerCount: 2
Fore
SplineSet
350 604 m 1
 422 780 l 1
 596 780 l 1
 435 604 l 1
 350 604 l 1
2 524 m 1
 186 524 l 1
 247 181 l 1
 336 516 l 1
 501 516 l 1
 588 182 l 1
 661 524 l 1
 832 524 l 1
 674 0 l 1
 501 0 l 1
 413 326 l 1
 326 0 l 1
 152 0 l 1
 2 524 l 1
EndSplineSet
Validated: 1
EndChar

StartChar: wcircumflex
Encoding: 421 373 214
Width: 830
GlyphClass: 2
Flags: HMW
HStem: 0 21G<152 326 152 152 501 674 501 501> 504 20G<2 186 186 186 661 832 832 832> 604 176<256 481 256 481 479 479 479 481 355 580>
VStem: 2 830<524 524>
LayerCount: 2
Fore
SplineSet
256 604 m 1
 355 780 l 1
 481 780 l 1
 580 604 l 1
 479 604 l 1
 417 689 l 1
 347 604 l 1
 256 604 l 1
2 524 m 1
 186 524 l 1
 247 181 l 1
 336 516 l 1
 501 516 l 1
 588 182 l 1
 661 524 l 1
 832 524 l 1
 674 0 l 1
 501 0 l 1
 413 326 l 1
 326 0 l 1
 152 0 l 1
 2 524 l 1
EndSplineSet
Validated: 1
EndChar

StartChar: wdieresis
Encoding: 422 7813 215
Width: 830
GlyphClass: 2
Flags: HMW
HStem: 0 21G<152 326 152 152 501 674 501 501> 504 20G<2 186 186 186 661 832 832 832> 602 154<213 378 213 378 213 458 458 623> 602 159.25
VStem: 213 165<602 756 602 756> 458 165<602 756 602 756>
LayerCount: 2
Fore
SplineSet
213 602 m 1xec
 213 756 l 1xdc
 255 763 336 763 378 756 c 1
 378 602 l 1xec
 336 595 255 595 213 602 c 1xec
458 602 m 1xec
 458 756 l 1xdc
 500 763 581 763 623 756 c 1
 623 602 l 1
 581 595 500 595 458 602 c 1xec
2 524 m 1
 186 524 l 1
 247 181 l 1
 336 516 l 1
 501 516 l 1
 588 182 l 1
 661 524 l 1
 832 524 l 1
 674 0 l 1
 501 0 l 1
 413 326 l 1
 326 0 l 1
 152 0 l 1
 2 524 l 1
EndSplineSet
Validated: 33
EndChar

StartChar: wgrave
Encoding: 423 7809 216
Width: 830
GlyphClass: 2
Flags: HMW
HStem: 0 21G<152 326 152 152 501 674 501 501> 504 20G<2 186 186 186 661 832 832 832> 604 176<386 399 225 471 386 386>
VStem: 2 830<524 524>
LayerCount: 2
Fore
SplineSet
225 780 m 1
 399 780 l 1
 471 604 l 1
 386 604 l 1
 225 780 l 1
2 524 m 1
 186 524 l 1
 247 181 l 1
 336 516 l 1
 501 516 l 1
 588 182 l 1
 661 524 l 1
 832 524 l 1
 674 0 l 1
 501 0 l 1
 413 326 l 1
 326 0 l 1
 152 0 l 1
 2 524 l 1
EndSplineSet
Validated: 1
EndChar

StartChar: x
Encoding: 120 120 217
Width: 569
GlyphClass: 2
Flags: HMW
HStem: 0 21G<-7 198 -7 -7 351 561 351 351> 505 20G<5 216 216 216 353 562 562 562>
VStem: -7 569<0 525>
LayerCount: 2
Fore
SplineSet
-7 0 m 5
 184 258 l 5
 5 525 l 5
 216 525 l 5
 282 377 l 5
 353 525 l 5
 562 525 l 5
 379 268 l 5
 561 0 l 5
 351 0 l 5
 276 154 l 5
 198 0 l 5
 -7 0 l 5
EndSplineSet
Validated: 1
EndChar

StartChar: y
Encoding: 121 121 218
Width: 576
GlyphClass: 2
Flags: HMW
HStem: -220 21G<52 52> 504 20G<-2 210 210 210 386 582 582 582>
VStem: -2 584<524 524>
LayerCount: 2
Fore
SplineSet
-2 524 m 5
 210 524 l 5
 288 181 l 5
 386 524 l 5
 582 524 l 5
 382 64 l 6
 308 -107 216 -201 52 -220 c 5
 28 -69 l 5
 105 -49 154 -26 191 31 c 5
 -2 524 l 5
EndSplineSet
Validated: 1
EndChar

StartChar: yacute
Encoding: 424 253 219
Width: 576
GlyphClass: 2
Flags: HMW
HStem: -220 21G<52 52> 504 20G<-2 210 210 210 386 582 582 582> 604 176<294 307 222 468>
VStem: -2 584<524 524>
LayerCount: 2
Fore
SplineSet
222 604 m 1
 294 780 l 1
 468 780 l 1
 307 604 l 1
 222 604 l 1
-2 524 m 1
 210 524 l 1
 288 181 l 1
 386 524 l 1
 582 524 l 1
 382 64 l 2
 308 -107 216 -201 52 -220 c 1
 28 -69 l 1
 105 -49 154 -26 191 31 c 1
 -2 524 l 1
EndSplineSet
Validated: 1
EndChar

StartChar: ycircumflex
Encoding: 425 375 220
Width: 576
GlyphClass: 2
Flags: HMW
HStem: -220 21G<52 52> 504 20G<-2 210 210 210 386 582 582 582> 604 176<128 353 128 353 351 351 351 353 227 452>
VStem: -2 584<524 524>
LayerCount: 2
Fore
SplineSet
128 604 m 1
 227 780 l 1
 353 780 l 1
 452 604 l 1
 351 604 l 1
 289 689 l 1
 219 604 l 1
 128 604 l 1
-2 524 m 1
 210 524 l 1
 288 181 l 1
 386 524 l 1
 582 524 l 1
 382 64 l 2
 308 -107 216 -201 52 -220 c 1
 28 -69 l 1
 105 -49 154 -26 191 31 c 1
 -2 524 l 1
EndSplineSet
Validated: 1
EndChar

StartChar: ydieresis
Encoding: 426 255 221
Width: 576
GlyphClass: 2
Flags: HMW
HStem: -220 21G<52 52> 504 20G<-2 210 210 210 386 582 582 582> 602 154<85 250 85 250 85 330 330 495> 602 159.25
VStem: 85 165<602 756 602 756> 330 165<602 756 602 756>
LayerCount: 2
Fore
SplineSet
85 602 m 1xec
 85 756 l 1xdc
 127 763 208 763 250 756 c 1
 250 602 l 1xec
 208 595 127 595 85 602 c 1xec
330 602 m 1xec
 330 756 l 1xdc
 372 763 453 763 495 756 c 1
 495 602 l 1
 453 595 372 595 330 602 c 1xec
-2 524 m 1
 210 524 l 1
 288 181 l 1
 386 524 l 1
 582 524 l 1
 382 64 l 2
 308 -107 216 -201 52 -220 c 1
 28 -69 l 1
 105 -49 154 -26 191 31 c 1
 -2 524 l 1
EndSplineSet
Validated: 33
EndChar

StartChar: ygrave
Encoding: 427 7923 222
Width: 576
GlyphClass: 2
Flags: HMW
HStem: -220 21G<52 52> 504 20G<-2 210 210 210 386 582 582 582> 604 176<258 271 97 343 258 258>
VStem: -2 584<524 524>
LayerCount: 2
Fore
SplineSet
97 780 m 1
 271 780 l 1
 343 604 l 1
 258 604 l 1
 97 780 l 1
-2 524 m 1
 210 524 l 1
 288 181 l 1
 386 524 l 1
 582 524 l 1
 382 64 l 2
 308 -107 216 -201 52 -220 c 1
 28 -69 l 1
 105 -49 154 -26 191 31 c 1
 -2 524 l 1
EndSplineSet
Validated: 1
EndChar

StartChar: z
Encoding: 122 122 223
Width: 509
GlyphClass: 2
Flags: HMW
HStem: 0 130<253 473> 394 130<46 245 46 459>
VStem: 32 459<0 130 84 130>
LayerCount: 2
Fore
SplineSet
32 0 m 1
 32 84 l 1
 245 394 l 1
 46 394 l 1
 46 524 l 1
 459 524 l 1
 459 432 l 1
 253 130 l 1
 491 130 l 1
 473 0 l 1
 32 0 l 1
EndSplineSet
Validated: 1
EndChar

StartChar: zacute
Encoding: 428 378 224
Width: 509
GlyphClass: 2
Flags: HMW
HStem: 0 130<253 473> 394 130<46 245 46 459> 604 176<263 276 191 437>
VStem: 32 459<0 130 84 130>
LayerCount: 2
Fore
SplineSet
191 604 m 1
 263 780 l 1
 437 780 l 1
 276 604 l 1
 191 604 l 1
32 0 m 1
 32 84 l 1
 245 394 l 1
 46 394 l 1
 46 524 l 1
 459 524 l 1
 459 432 l 1
 253 130 l 1
 491 130 l 1
 473 0 l 1
 32 0 l 1
EndSplineSet
Validated: 1
EndChar

StartChar: zcaron
Encoding: 429 382 225
Width: 509
GlyphClass: 2
Flags: HMW
HStem: 0 130<253 473> 394 130<46 245 46 459> 604 176<196 198 97 322 196 196>
VStem: 32 459<0 130 84 130>
LayerCount: 2
Fore
SplineSet
97 780 m 1
 198 780 l 1
 260 695 l 1
 330 780 l 1
 421 780 l 1
 322 604 l 1
 196 604 l 1
 97 780 l 1
32 0 m 1
 32 84 l 1
 245 394 l 1
 46 394 l 1
 46 524 l 1
 459 524 l 1
 459 432 l 1
 253 130 l 1
 491 130 l 1
 473 0 l 1
 32 0 l 1
EndSplineSet
Validated: 1
EndChar

StartChar: zdotaccent
Encoding: 430 380 226
Width: 509
GlyphClass: 2
Flags: HMW
HStem: 0 130<253 473> 394 130<46 245 46 459> 602 154<169 349 169 349> 602 159.25
VStem: 169 180<602 756 602 756>
LayerCount: 2
Fore
SplineSet
169 602 m 1xe8
 169 756 l 1xd8
 211 763 307 763 349 756 c 1
 349 602 l 1xe8
 307 595 211 595 169 602 c 1xe8
32 0 m 1
 32 84 l 1
 245 394 l 1
 46 394 l 1
 46 524 l 1
 459 524 l 1
 459 432 l 1
 253 130 l 1
 491 130 l 1
 473 0 l 1
 32 0 l 1
EndSplineSet
Validated: 33
EndChar

StartChar: fi
Encoding: 431 64257 227
Width: 710
GlyphClass: 3
Flags: HMW
HStem: 1.45912 150
LayerCount: 2
Fore
SplineSet
28 394 m 1
 28 524 l 1
 104 524 l 1
 104 537 l 2
 104 561 104 572 106 596 c 0
 115 700 195 764 309 764 c 0
 351 764 396 754 427 737 c 1
 409 624 l 1
 391 627 378 628 360 628 c 0
 316 628 284 601 284 548 c 2
 284 524 l 1
 399 524 l 1
 381 394 l 1
 284 394 l 1
 284 0 l 1
 104 0 l 1
 104 394 l 1
 28 394 l 1
471 602 m 1
 471 756 l 1
 513 763 609 763 651 756 c 1
 651 602 l 1
 609 595 513 595 471 602 c 1
471 0 m 1
 471 519 l 1
 651 529 l 1
 651 0 l 1
 471 0 l 1
EndSplineSet
Validated: 33
Ligature2: "'liga' Standard Ligatures in Latin lookup 1 subtable" f i
EndChar

StartChar: fl
Encoding: 432 64258 228
Width: 725
GlyphClass: 3
Flags: HMW
HStem: 0 21G<104 284 104 104 486 486 486 666> 394 130<28 104 28 104 284 381> 628 136<252 369> 725 20G<486 486> 735 20G<666 666>
VStem: 104 180<0 394 0 394 524 537 537 548 0 549> 486 180<0 745 745 745>
LayerCount: 2
Fore
SplineSet
28 394 m 1xe6
 28 524 l 1
 104 524 l 1
 104 537 l 2
 104 561 104 572 106 596 c 0
 115 700 195 764 309 764 c 0
 351 764 396 754 427 737 c 1
 409 624 l 1
 391 627 378 628 360 628 c 0
 316 628 284 601 284 548 c 2
 284 524 l 1
 399 524 l 1
 381 394 l 1
 284 394 l 1
 284 0 l 1
 104 0 l 1
 104 394 l 1
 28 394 l 1xe6
486 0 m 1
 486 745 l 1xd6
 666 755 l 1xce
 666 0 l 1
 486 0 l 1
EndSplineSet
Validated: 1
Ligature2: "'liga' Standard Ligatures in Latin lookup 1 subtable" f l
EndChar

StartChar: zero
Encoding: 48 48 229
Width: 640
Flags: HMW
HStem: -14 140<284 346 284 400> 614 140<284 346>
VStem: 33 185<284.5 455.5 284.5 503> 412 185<284.5 455.5>
LayerCount: 2
Fore
SplineSet
33 370 m 0
 33 636 145 754 315 754 c 0
 487 754 597 636 597 370 c 0
 597 104 485 -14 315 -14 c 0
 143 -14 33 104 33 370 c 0
218 370 m 0
 218 199 253 126 315 126 c 0
 377 126 412 199 412 370 c 0
 412 541 377 614 315 614 c 0
 253 614 218 541 218 370 c 0
EndSplineSet
Validated: 1
EndChar

StartChar: one
Encoding: 49 49 230
Width: 640
Flags: HMW
HStem: 0 21G<340 524 340 340> 720 20G<357 524 524 524>
VStem: 340 184<0 557 557 557>
LayerCount: 2
Fore
SplineSet
69 592 m 1
 357 740 l 1
 524 740 l 1
 524 0 l 1
 340 0 l 1
 340 557 l 1
 115 469 l 1
 69 592 l 1
EndSplineSet
Validated: 1
EndChar

StartChar: two
Encoding: 50 50 231
Width: 640
Flags: HMW
HStem: 0 136.5 614 140<282.5 304>
VStem: 380 185<496 546>
LayerCount: 2
Fore
SplineSet
67 0 m 1
 67 68 l 1
 255 288 l 2
 346 395 380 449 380 512 c 0
 380 580 340 614 268 614 c 0
 222 614 174 600 121 567 c 1
 96 686 l 1
 159 727 241 754 324 754 c 0
 474 754 565 670 565 540 c 0
 565 452 523 383 377 210 c 2
 315 137 l 1
 591 136 l 1
 571 0 l 1
 67 0 l 1
EndSplineSet
Validated: 1
EndChar

StartChar: three
Encoding: 51 51 232
Width: 640
Flags: HMW
HStem: -14 140<219 289 216.5 353.5> 328 130.5 614 140<268.5 303.5>
VStem: 375 184<516.5 562.5> 390 189<197.5 254>
LayerCount: 2
Fore
SplineSet
62 30 m 5xe8
 88 155 l 5
 136 135 194 126 239 126 c 4
 339 126 390 167 390 228 c 4xe8
 390 280 354 325 269 327 c 6
 197 329 l 5
 197 457 l 5
 284 460 l 6
 339 462 375 495 375 538 c 4
 375 587 338 614 269 614 c 4
 223 614 160 602 116 577 c 5
 94 695 l 5
 142 727 224 754 313 754 c 4
 469 754 559 673 559 558 c 4xf0
 559 467 502 415 427 395 c 5
 536 371 579 296 579 216 c 4
 579 73 448 -14 259 -14 c 4
 179 -14 104 2 62 30 c 5xe8
EndSplineSet
Validated: 1
EndChar

StartChar: four
Encoding: 52 52 233
Width: 640
Flags: HMW
HStem: 0 21G<356 541 356 356> 176 136<224 356 541 614> 720 20G<334 541 541 541>
VStem: 359.5 181.5
LayerCount: 2
Fore
SplineSet
26 176 m 1
 26 244 l 1
 334 740 l 1
 541 740 l 1
 541 312 l 1
 624 312 l 1
 614 176 l 1
 541 176 l 1
 541 0 l 1
 356 0 l 1
 356 176 l 1
 26 176 l 1
224 312 m 1
 357 312 l 1
 362 540 l 1
 224 312 l 1
EndSplineSet
Validated: 1
EndChar

StartChar: five
Encoding: 53 53 234
Width: 640
Flags: HMW
HStem: -14 140<237 304 237 356.5> 342 136<136 307> 604 136<306 551 306 306>
VStem: 390 184<197.5 266>
LayerCount: 2
Fore
SplineSet
63 40 m 1
 95 162 l 1
 159 134 207 126 267 126 c 0
 341 126 390 163 390 232 c 0
 390 300 337 342 229 342 c 2
 136 342 l 1
 98 381 l 1
 157 740 l 1
 569 740 l 1
 551 604 l 1
 306 604 l 1
 285 478 l 1
 307 478 l 2
 457 478 574 403 574 243 c 0
 574 75 438 -14 275 -14 c 0
 191 -14 123 3 63 40 c 1
EndSplineSet
Validated: 1
EndChar

StartChar: six
Encoding: 54 54 235
Width: 640
Flags: HMW
HStem: -15 141<299.5 356.5 299.5 409.5> 358 141<347.5 352.5> 613 141<346.5 426 275 429.5>
VStem: 46 184<230.5 285 230.5 466.5> 423 184<200.5 275>
LayerCount: 2
Fore
SplineSet
46 347 m 0
 46 586 159 754 391 754 c 0
 461 754 525 738 565 707 c 1
 536 590 l 1
 502 605 454 613 405 613 c 0
 288 613 247 532 238 442 c 1
 269 481 317 499 378 499 c 0
 510 499 607 400 607 249 c 0
 607 83 488 -15 331 -15 c 0
 162 -15 46 85 46 347 c 0
230 279 m 0
 230 182 270 126 329 126 c 0
 384 126 423 166 423 235 c 0
 423 315 388 358 317 358 c 0
 282 358 253 348 232 327 c 1
 230 308 230 291 230 279 c 0
EndSplineSet
Validated: 1
EndChar

StartChar: seven
Encoding: 55 55 236
Width: 640
Flags: HMW
HStem: 0 21G<135 327 135 135> 599 141<76 399 56 622>
VStem: 56 566<599 740>
LayerCount: 2
Fore
SplineSet
56 599 m 1
 76 740 l 1
 622 740 l 1
 622 675 l 1
 448 461 361 252 327 0 c 1
 135 0 l 1
 180 239 249 413 399 599 c 1
 56 599 l 1
EndSplineSet
Validated: 1
EndChar

StartChar: eight
Encoding: 56 56 237
Width: 640
Flags: HMW
HStem: -15 141<296.5 349.5 296.5 399.5> 614 140<301 339.5>
VStem: 50 184<196.5 244.5> 79 179<526 565 526 606> 388 177<522.5 559> 406 184<178 221>
LayerCount: 2
Fore
SplineSet
50 200 m 0xe4
 50 289 100 346 174 373 c 1
 123 406 79 469 79 549 c 0
 79 663 166 754 327 754 c 0
 487 754 565 666 565 563 c 0xd8
 565 482 521 430 457 404 c 1xe4
 531 366 590 309 590 211 c 0
 590 71 481 -15 318 -15 c 0
 163 -15 50 52 50 200 c 0xe4
258 547 m 0
 258 505 289 472 344 449 c 1
 375 470 388 502 388 536 c 0
 388 582 360 614 319 614 c 0xd8
 283 614 258 583 258 547 c 0
234 224 m 0
 234 169 270 126 323 126 c 0xe4
 376 126 406 155 406 201 c 0
 406 241 384 272 279 323 c 1
 249 297 234 266 234 224 c 0
EndSplineSet
Validated: 1
EndChar

StartChar: nine
Encoding: 57 57 238
Width: 640
Flags: HMW
HStem: -14 141<214 293.5 210.5 365> 241 141<287.5 292.5> 614 141<283.5 340.5>
VStem: 33 184<465 539.5 465 574> 410 184<455 509.5>
LayerCount: 2
Fore
SplineSet
33 491 m 0
 33 657 152 755 309 755 c 0
 478 755 594 655 594 393 c 0
 594 154 481 -14 249 -14 c 0
 179 -14 115 2 75 33 c 1
 104 150 l 1
 138 135 186 127 235 127 c 0
 352 127 393 208 402 298 c 1
 371 259 323 241 262 241 c 0
 130 241 33 340 33 491 c 0
217 505 m 0
 217 425 252 382 323 382 c 0
 358 382 387 392 408 413 c 1
 410 432 410 449 410 461 c 0
 410 558 370 614 311 614 c 0
 256 614 217 574 217 505 c 0
EndSplineSet
Validated: 1
EndChar

StartChar: fraction
Encoding: 433 8260 239
Width: 679
Flags: MW
HStem: 730 20G<593 739 739 739>
VStem: -60 799<-30 750>
LayerCount: 2
Fore
SplineSet
-60 -30 m 1
 593 750 l 1
 739 750 l 1
 86 -30 l 1
 -60 -30 l 1
EndSplineSet
Validated: 1
EndChar

StartChar: asterisk
Encoding: 42 42 240
Width: 542
Flags: HMW
HStem: 101 408<195 328 214 347>
VStem: 221 100
LayerCount: 2
Fore
SplineSet
56 312 m 1
 91 419 l 1
 228 361 l 1
 214 509 l 1
 328 509 l 1
 314 361 l 1
 451 419 l 1
 486 312 l 1
 340 279 l 1
 439 168 l 1
 347 101 l 1
 271 229 l 1
 195 101 l 1
 103 168 l 1
 202 279 l 1
 56 312 l 1
EndSplineSet
Validated: 1
EndChar

StartChar: backslash
Encoding: 92 92 241
Width: 387
Flags: HMW
HStem: 730 20G<24 140 140 140>
VStem: 24 339
LayerCount: 2
Fore
SplineSet
24 750 m 1
 140 750 l 1
 363 -30 l 1
 247 -30 l 1
 24 750 l 1
EndSplineSet
Validated: 1
EndChar

StartChar: periodcentered
Encoding: 434 183 242
Width: 260
Flags: MW
HStem: 188 164<40 220 40 220>
VStem: 40 180<188 352 188 352>
LayerCount: 2
Fore
SplineSet
40 188 m 1
 40 352 l 1
 82 359 178 359 220 352 c 1
 220 188 l 1
 178 181 82 181 40 188 c 1
EndSplineSet
Validated: 33
EndChar

StartChar: bullet
Encoding: 435 8226 243
Width: 344
Flags: MW
HStem: 259.75 220.5
VStem: 62 220<268 472 268 472>
LayerCount: 2
Fore
SplineSet
62 268 m 1
 62 472 l 1
 114 483 230 483 282 472 c 1
 282 268 l 1
 230 257 114 257 62 268 c 1
EndSplineSet
Validated: 33
EndChar

StartChar: colon
Encoding: 58 58 244
Width: 339
Flags: MW
HStem: -5.25 169.25 0 164<60 240 60 240> 360 164<60 240 60 240> 360 169.25
VStem: 60 180<0 164 0 164 360 524>
LayerCount: 2
Fore
SplineSet
60 360 m 1x68
 60 524 l 1x58
 102 531 198 531 240 524 c 1
 240 360 l 1
 198 353 102 353 60 360 c 1x68
60 0 m 1
 60 164 l 1
 102 171 198 171 240 164 c 1x68
 240 0 l 1xa8
 198 -7 102 -7 60 0 c 1
EndSplineSet
Validated: 33
EndChar

StartChar: comma
Encoding: 44 44 245
Width: 339
Flags: MW
HStem: -206 21G<-9 -9 -9 126>
VStem: 69.04 174.96
LayerCount: 2
Fore
SplineSet
-9 -206 m 1
 63 -72 77 31 66 134 c 1
 105 150 207 165 244 164 c 1
 253 -2 203 -113 126 -206 c 1
 -9 -206 l 1
EndSplineSet
Validated: 33
EndChar

StartChar: ellipsis
Encoding: 436 8230 246
Width: 959
Flags: MW
HStem: -5.25 169.25 0 164<60 240 60 240 370 550 60 370 680 860>
VStem: 60 180<0 164 0 164> 370 180<0 164 0 164> 680 180<0 164 0 164>
LayerCount: 2
Fore
SplineSet
60 0 m 1x78
 60 164 l 1
 102 171 198 171 240 164 c 1x78
 240 0 l 1xb8
 198 -7 102 -7 60 0 c 1x78
370 0 m 1
 370 164 l 1
 412 171 508 171 550 164 c 1x78
 550 0 l 1xb8
 508 -7 412 -7 370 0 c 1
680 0 m 1
 680 164 l 1
 722 171 818 171 860 164 c 1x78
 860 0 l 1xb8
 818 -7 722 -7 680 0 c 1
EndSplineSet
Validated: 33
EndChar

StartChar: exclam
Encoding: 33 33 247
Width: 272
Flags: HMW
HStem: -5.25 169.25 0 164<46 226 46 226> 720 20G<45 227 227 227>
VStem: 46 180<0 164 0 164> 50 172
LayerCount: 2
Fore
SplineSet
45 740 m 1x20
 227 740 l 1
 217 250 l 1
 55 250 l 1
 45 740 l 1x20
46 0 m 1x70
 46 164 l 1
 88 171 184 171 226 164 c 1
 226 0 l 1
 184 -7 88 -7 46 0 c 1x70
EndSplineSet
Validated: 33
EndChar

StartChar: exclamdown
Encoding: 437 161 248
Width: 272
Flags: HMW
HStem: -216 21G<45 227 45 45> 360 164<46 226 46 226> 360 169.25
VStem: 46 180<360 524 360 524> 50 172
LayerCount: 2
Fore
SplineSet
46 360 m 1xd0
 46 524 l 1xb0
 88 531 184 531 226 524 c 1xd0
 226 360 l 1
 184 353 88 353 46 360 c 1xd0
45 -216 m 1
 55 274 l 1
 217 274 l 1xc8
 227 -216 l 1
 45 -216 l 1
EndSplineSet
Validated: 33
EndChar

StartChar: numbersign
Encoding: 35 35 249
Width: 646
Flags: HMW
HStem: 0 21G<109 223 109 109 274 388 274 274> 198 104<81 150 81 172 280 315 81 264 451 541> 388 104<106 189 106 211 106 298 325 361 490 566>
VStem: 81 485<198 388 302 388>
LayerCount: 2
Fore
SplineSet
81 198 m 1
 81 302 l 1
 172 302 l 1
 189 388 l 1
 106 388 l 1
 106 492 l 1
 211 492 l 1
 252 690 l 1
 366 690 l 1
 325 492 l 1
 376 492 l 1
 417 690 l 1
 531 690 l 1
 490 492 l 1
 566 492 l 1
 566 388 l 1
 468 388 l 1
 451 302 l 1
 541 302 l 1
 541 198 l 1
 429 198 l 1
 388 0 l 1
 274 0 l 1
 315 198 l 1
 264 198 l 1
 223 0 l 1
 109 0 l 1
 150 198 l 1
 81 198 l 1
280 302 m 1
 343 302 l 1
 361 388 l 1
 298 388 l 1
 280 302 l 1
EndSplineSet
Validated: 1
EndChar

StartChar: period
Encoding: 46 46 250
Width: 339
Flags: MW
HStem: -5.25 169.25 0 164<60 240 60 240>
VStem: 60 180<0 164 0 164>
LayerCount: 2
Fore
SplineSet
60 0 m 1x60
 60 164 l 1
 102 171 198 171 240 164 c 1x60
 240 0 l 1xa0
 198 -7 102 -7 60 0 c 1x60
EndSplineSet
Validated: 33
EndChar

StartChar: question
Encoding: 63 63 251
Width: 521
Flags: HMW
HStem: -5.25 169.25 0 164<138 318 138 318> 250 131<141 309 141 145> 619 140<196.5 231.5>
VStem: 138 180<0 164 0 164> 143 169 311 184<486 549.5>
LayerCount: 2
Fore
SplineSet
4 682 m 1x32
 67 733 153 759 240 759 c 0
 418 759 495 653 495 533 c 0
 495 439 433 342 315 315 c 1
 309 250 l 1
 145 250 l 1
 141 381 l 1
 272 392 311 455 311 516 c 0
 311 583 264 619 199 619 c 0
 154 619 112 603 67 568 c 1
 4 682 l 1x32
138 0 m 1x78
 138 164 l 1
 180 171 276 171 318 164 c 1
 318 0 l 1
 276 -7 180 -7 138 0 c 1x78
EndSplineSet
Validated: 33
EndChar

StartChar: questiondown
Encoding: 438 191 252
Width: 456
Flags: HMW
HStem: -235 140<289.5 324.5> 143 131<212 380> 360 164<203 383 203 383> 360 169.25
VStem: 26 184<-25.5 38> 203 180<360 524 360 524> 209 169
LayerCount: 2
Fore
SplineSet
203 360 m 1xe4
 203 524 l 1xd4
 245 531 341 531 383 524 c 1
 383 360 l 1xe4
 341 353 245 353 203 360 c 1xe4
26 -9 m 0xe8
 26 85 88 182 206 209 c 1
 212 274 l 1
 376 274 l 1xe2
 380 143 l 1
 249 132 210 69 210 8 c 0xe8
 210 -59 257 -95 322 -95 c 0
 367 -95 409 -79 454 -44 c 1
 517 -158 l 1
 454 -209 368 -235 281 -235 c 0
 103 -235 26 -129 26 -9 c 0xe8
EndSplineSet
Validated: 33
EndChar

StartChar: quotedbl
Encoding: 34 34 253
Width: 508
Flags: HMW
HStem: 422 298<46 46 46 212 296 462 296 296>
VStem: 42.5 173 292.5 173
LayerCount: 2
Fore
SplineSet
39 720 m 1
 63 726 195 726 219 720 c 1
 212 422 l 1
 46 422 l 1
 39 720 l 1
289 720 m 1
 313 726 445 726 469 720 c 1
 462 422 l 1
 296 422 l 1
 289 720 l 1
EndSplineSet
Validated: 33
EndChar

StartChar: quotesingle
Encoding: 39 39 254
Width: 258
Flags: HMW
HStem: 422 298<46 46 46 212>
VStem: 42.5 173
LayerCount: 2
Fore
SplineSet
39 720 m 1
 63 726 195 726 219 720 c 1
 212 422 l 1
 46 422 l 1
 39 720 l 1
EndSplineSet
Validated: 33
EndChar

StartChar: semicolon
Encoding: 59 59 255
Width: 339
Flags: MW
HStem: -206 21G<-27 -27 -27 108> 360 164<48 228 48 228> 360 169.25
VStem: 48 180<360 524 360 524> 51.04 174.96
LayerCount: 2
Fore
SplineSet
48 360 m 1xd0
 48 524 l 1xb0
 90 531 186 531 228 524 c 1
 228 360 l 1
 186 353 90 353 48 360 c 1xd0
-27 -206 m 1xc8
 45 -72 59 31 48 134 c 1
 87 150 189 165 226 164 c 1
 235 -2 185 -113 108 -206 c 1
 -27 -206 l 1xc8
EndSplineSet
Validated: 33
EndChar

StartChar: slash
Encoding: 47 47 256
Width: 387
Flags: MW
HStem: 730 20G<247 363 363 363>
VStem: 24 339
LayerCount: 2
Fore
SplineSet
24 -30 m 1
 247 750 l 1
 363 750 l 1
 140 -30 l 1
 24 -30 l 1
EndSplineSet
Validated: 1
EndChar

StartChar: underscore
Encoding: 95 95 257
Width: 500
Flags: HMW
HStem: -134 104<92 408 92 408>
VStem: 92 316<-134 -30 -134 -30>
LayerCount: 2
Fore
SplineSet
92 -30 m 1
 408 -30 l 1
 408 -134 l 1
 92 -134 l 1
 92 -30 l 1
EndSplineSet
Validated: 1
EndChar

StartChar: braceleft
Encoding: 123 123 258
Width: 394
Flags: HMW
HStem: -89 104<336 337 337 348> 281 104<90 90> 651 104<306.5 348 337 348 337 348>
VStem: 154 194<-16.5 15 -89 39.5 651 682.5> 169 113<429.5 441 400.5 461>
CounterMasks: 1 e0
LayerCount: 2
Fore
SplineSet
90 281 m 1xe8
 90 385 l 1
 154 391 169 407 169 452 c 0xe8
 169 470 167 493 161 548 c 0
 155 599 154 619 154 634 c 0
 154 731 211 755 337 755 c 2
 348 755 l 1
 348 651 l 1xf0
 336 651 l 2
 277 651 266 636 266 606 c 0
 266 590 268 571 272 538 c 0
 278 488 282 457 282 425 c 0xe8
 282 376 252 340 204 333 c 1
 252 326 280 290 280 241 c 0
 280 209 276 178 270 128 c 0
 266 95 264 76 264 60 c 0
 264 30 277 15 336 15 c 2
 348 15 l 1
 348 -89 l 1
 337 -89 l 2
 211 -89 154 -65 154 32 c 0xf0
 154 47 155 67 161 118 c 0
 167 173 169 196 169 214 c 0
 169 259 154 275 90 281 c 1xe8
EndSplineSet
Validated: 1
EndChar

StartChar: braceright
Encoding: 125 125 259
Width: 394
Flags: HMW
HStem: -89 104<46 57 46 58> 281 104<304 304> 651 104<46 57 57 58 46 57>
VStem: 46 194<-16.5 15 15 15 651 682.5> 112 113<225 236.5 205 265.5>
CounterMasks: 1 e0
LayerCount: 2
Fore
SplineSet
46 15 m 1xf0
 58 15 l 2
 117 15 128 30 128 60 c 0
 128 76 126 95 122 128 c 0
 116 178 112 209 112 241 c 0xe8
 112 290 142 326 190 333 c 1
 142 340 114 376 114 425 c 0
 114 457 118 488 124 538 c 0
 128 571 130 590 130 606 c 0
 130 636 117 651 58 651 c 2
 46 651 l 1
 46 755 l 1
 57 755 l 2
 183 755 240 731 240 634 c 0xf0
 240 619 239 599 233 548 c 0
 227 493 225 470 225 452 c 0
 225 407 240 391 304 385 c 1
 304 281 l 1
 240 275 225 259 225 214 c 0xe8
 225 196 227 173 233 118 c 0
 239 67 240 47 240 32 c 0
 240 -65 183 -89 57 -89 c 2
 46 -89 l 1
 46 15 l 1xf0
EndSplineSet
Validated: 1
EndChar

StartChar: bracketleft
Encoding: 91 91 260
Width: 450
Flags: HMW
HStem: -80 104<234 406 234 406> 642 104<122 406 234 406 234 234>
VStem: 122 112<24 642 24 642 24 746 24 746>
LayerCount: 2
Fore
SplineSet
122 -80 m 1
 122 642 l 1
 122 746 l 1
 406 746 l 1
 406 642 l 1
 234 642 l 1
 234 24 l 1
 406 24 l 1
 406 -80 l 1
 122 -80 l 1
EndSplineSet
Validated: 1
EndChar

StartChar: bracketright
Encoding: 93 93 261
Width: 450
Flags: HMW
HStem: -80 104<44 216 44 328 44 216> 642 104<44 216 44 328>
VStem: 216 112<24 642 642 642>
LayerCount: 2
Fore
SplineSet
44 24 m 1
 216 24 l 1
 216 642 l 1
 44 642 l 1
 44 746 l 1
 328 746 l 1
 328 24 l 1
 328 -80 l 1
 44 -80 l 1
 44 24 l 1
EndSplineSet
Validated: 1
EndChar

StartChar: parenleft
Encoding: 40 40 262
Width: 377
Flags: HMW
HStem: 740 20G<253 253>
VStem: 83 116<245 435 245 449>
LayerCount: 2
Fore
SplineSet
83 340 m 0
 83 558 154 667 253 760 c 1
 333 695 l 1
 255 630 199 530 199 340 c 0
 199 150 255 50 333 -15 c 1
 253 -80 l 1
 154 13 83 122 83 340 c 0
EndSplineSet
Validated: 1
EndChar

StartChar: parenright
Encoding: 41 41 263
Width: 377
Flags: HMW
HStem: 740 20G<124 124>
VStem: 178 116<245 435>
LayerCount: 2
Fore
SplineSet
44 -15 m 1
 122 50 178 150 178 340 c 0
 178 530 122 630 44 695 c 1
 124 760 l 1
 223 667 294 558 294 340 c 0
 294 122 223 13 124 -80 c 1
 44 -15 l 1
EndSplineSet
Validated: 1
EndChar

StartChar: emdash
Encoding: 439 8212 264
Width: 1000
Flags: MW
HStem: 238 104<92 908 92 908>
VStem: 92 816<238 342 238 342>
LayerCount: 2
Fore
SplineSet
92 238 m 1
 92 342 l 1
 908 342 l 1
 908 238 l 1
 92 238 l 1
EndSplineSet
Validated: 1
EndChar

StartChar: endash
Encoding: 440 8211 265
Width: 500
Flags: MW
HStem: 238 104<92 408 92 408>
VStem: 92 316<238 342 238 342>
LayerCount: 2
Fore
SplineSet
92 238 m 1
 92 342 l 1
 408 342 l 1
 408 238 l 1
 92 238 l 1
EndSplineSet
Validated: 1
EndChar

StartChar: hyphen
Encoding: 45 45 266
Width: 418
Flags: HMW
HStem: 238 104<92 326 92 326>
VStem: 92 234<238 342 238 342>
LayerCount: 2
Fore
SplineSet
92 238 m 5
 92 342 l 5
 326 342 l 5
 326 238 l 5
 92 238 l 5
EndSplineSet
Validated: 1
EndChar

StartChar: guillemotleft
Encoding: 441 171 267
Width: 605
Flags: HMW
HStem: 72 352<266 266 266 486>
VStem: 95 456<122 248>
LayerCount: 2
Fore
SplineSet
95 248 m 1
 266 424 l 1
 331 374 l 1
 228 248 l 1
 331 122 l 1
 266 72 l 1
 95 248 l 1
315 248 m 1
 486 424 l 1
 551 374 l 1
 448 248 l 1
 551 122 l 1
 486 72 l 1
 315 248 l 1
EndSplineSet
Validated: 1
EndChar

StartChar: guillemotright
Encoding: 442 187 268
Width: 605
Flags: HMW
HStem: 72 352<119 119 119 339>
VStem: 54 456<122 248 248 374>
LayerCount: 2
Fore
SplineSet
54 122 m 1
 157 248 l 1
 54 374 l 1
 119 424 l 1
 290 248 l 1
 119 72 l 1
 54 122 l 1
274 122 m 1
 377 248 l 1
 274 374 l 1
 339 424 l 1
 510 248 l 1
 339 72 l 1
 274 122 l 1
EndSplineSet
Validated: 1
EndChar

StartChar: guilsinglleft
Encoding: 443 8249 269
Width: 385
Flags: HMW
HStem: 72 352<266 266>
VStem: 95 236<122 248>
LayerCount: 2
Fore
SplineSet
95 248 m 1
 266 424 l 1
 331 374 l 1
 228 248 l 1
 331 122 l 1
 266 72 l 1
 95 248 l 1
EndSplineSet
Validated: 1
EndChar

StartChar: guilsinglright
Encoding: 444 8250 270
Width: 385
Flags: HMW
HStem: 72 352<119 119>
VStem: 54 236<122 248 248 374>
LayerCount: 2
Fore
SplineSet
54 122 m 1
 157 248 l 1
 54 374 l 1
 119 424 l 1
 290 248 l 1
 119 72 l 1
 54 122 l 1
EndSplineSet
Validated: 1
EndChar

StartChar: quotedblbase
Encoding: 445 8222 271
Width: 609
Flags: MW
HStem: -206 21G<-9 -9 -9 126 261 396 261 261>
VStem: 69.04 174.96 339.04 174.96
LayerCount: 2
Fore
SplineSet
-9 -206 m 1
 63 -72 77 31 66 134 c 1
 105 150 207 165 244 164 c 1
 253 -2 203 -113 126 -206 c 1
 -9 -206 l 1
261 -206 m 1
 333 -72 347 31 336 134 c 1
 375 150 477 165 514 164 c 1
 523 -2 473 -113 396 -206 c 1
 261 -206 l 1
EndSplineSet
Validated: 33
EndChar

StartChar: quotedblleft
Encoding: 446 8220 272
Width: 630
Flags: HMW
HStem: 740 20G<208 343 343 343 468 603 603 603>
VStem: 90 174.95 350 174.95
LayerCount: 2
Fore
SplineSet
90 390 m 1
 81 556 131 667 208 760 c 1
 343 760 l 1
 271 626 257 523 268 420 c 1
 229 404 127 389 90 390 c 1
350 390 m 1
 341 556 391 667 468 760 c 1
 603 760 l 1
 531 626 517 523 528 420 c 1
 489 404 387 389 350 390 c 1
EndSplineSet
Validated: 33
EndChar

StartChar: quotedblright
Encoding: 447 8221 273
Width: 630
Flags: MW
HStem: 735 20G
VStem: 105.04 174.96 365.04 174.96
LayerCount: 2
Fore
SplineSet
27 385 m 1
 99 519 113 622 102 725 c 1
 141 741 243 756 280 755 c 1
 289 589 239 478 162 385 c 1
 27 385 l 1
287 385 m 1
 359 519 373 622 362 725 c 1
 401 741 503 756 540 755 c 1
 549 589 499 478 422 385 c 1
 287 385 l 1
EndSplineSet
Validated: 33
EndChar

StartChar: quoteleft
Encoding: 448 8216 274
Width: 370
Flags: HMW
HStem: 726 20G<208 343 343 343>
VStem: 90 174.95
LayerCount: 2
Fore
SplineSet
90 376 m 1
 81 542 131 653 208 746 c 1
 343 746 l 1
 271 612 257 509 268 406 c 1
 229 390 127 375 90 376 c 1
EndSplineSet
Validated: 33
EndChar

StartChar: quoteright
Encoding: 449 8217 275
Width: 370
Flags: MW
HStem: 735 20G
VStem: 105.04 174.96
LayerCount: 2
Fore
SplineSet
27 385 m 1
 99 519 113 622 102 725 c 1
 141 741 243 756 280 755 c 1
 289 589 239 478 162 385 c 1
 27 385 l 1
EndSplineSet
Validated: 33
EndChar

StartChar: quotesinglbase
Encoding: 450 8218 276
Width: 339
Flags: MW
HStem: -206 21G<-9 -9 -9 126>
VStem: 69.04 174.96
LayerCount: 2
Fore
SplineSet
-9 -206 m 1
 63 -72 77 31 66 134 c 1
 105 150 207 165 244 164 c 1
 253 -2 203 -113 126 -206 c 1
 -9 -206 l 1
EndSplineSet
Validated: 33
EndChar

StartChar: cent
Encoding: 451 162 278
Width: 640
GlyphClass: 2
Flags: HMW
HStem: 24 138<390 390> 398 139<395 395 395 416> 398 222<357 395 283 416> 509 20G<283 283>
VStem: 98 180<240 322.5> 278 112<-64 24 -64 29 -64 29> 283 112<537 620 537 620 537 620>
LayerCount: 2
Fore
SplineSet
98 278 m 0x98
 98 420 174 503 283 529 c 1x92
 283 620 l 1
 395 620 l 1xa2
 395 537 l 1xc2
 454 534 497 521 527 505 c 1
 498 384 l 1
 465 394 435 398 397 398 c 0
 317 398 278 360 278 285 c 0xc8
 278 195 322 162 400 162 c 0
 430 162 452 165 496 179 c 1x94
 524 63 l 1
 475 39 435 28 390 24 c 1
 390 -64 l 1
 278 -64 l 1
 278 29 l 1x94
 175 52 98 133 98 278 c 0x98
EndSplineSet
Validated: 1
EndChar

StartChar: currency
Encoding: 452 164 279
Width: 640
GlyphClass: 2
Flags: HMW
HStem: 121 94<302 338> 387 94<302 338 302 343>
VStem: 140 104<283.5 318.5> 396 104<283.5 318.5 283.5 327>
LayerCount: 2
Fore
SplineSet
115 154 m 1
 167 206 l 1
 150 233 140 266 140 301 c 0
 140 336 150 369 167 396 c 1
 115 448 l 1
 172 505 l 1
 224 453 l 1
 251 471 284 481 320 481 c 0
 356 481 389 471 416 453 c 1
 468 505 l 1
 525 448 l 1
 473 396 l 1
 490 369 500 336 500 301 c 0
 500 266 490 233 473 206 c 1
 525 154 l 1
 468 97 l 1
 416 149 l 1
 389 131 356 121 320 121 c 0
 284 121 251 131 224 149 c 1
 172 97 l 1
 115 154 l 1
244 301 m 0
 244 249 274 215 320 215 c 0
 366 215 396 249 396 301 c 0
 396 353 366 387 320 387 c 0
 274 387 244 353 244 301 c 0
EndSplineSet
Validated: 1
EndChar

StartChar: dollar
Encoding: 36 36 280
Width: 640
GlyphClass: 2
Flags: HMW
HStem: 23 140<263 263> 583 143<379 379 379 413.5>
VStem: 106 184<507.5 544.5 507.5 561.5> 263 114<-73 23 23 23> 376 189<206 244>
LayerCount: 2
Fore
SplineSet
76 69 m 1xd0
 109 195 l 1
 172 173 225 163 291 163 c 0
 341 163 376 186 376 226 c 0
 376 262 356 283 250 327 c 0
 159 365 106 421 106 513 c 0
 106 610 170 684 265 713 c 1
 265 819 l 1
 379 819 l 1
 379 726 l 1
 452 723 512 709 557 690 c 1
 519 565 l 1
 482 577 442 583 385 583 c 0
 335 583 290 564 290 525 c 0
 290 490 320 467 383 443 c 0
 509 394 565 332 565 239 c 0xe8
 565 125 480 53 377 30 c 1
 377 -73 l 1
 263 -73 l 1
 263 23 l 1
 193 26 133 38 76 69 c 1xd0
EndSplineSet
Validated: 1
EndChar

StartChar: Euro
Encoding: 453 8364 281
Width: 640
GlyphClass: 2
Flags: HMW
HStem: -15 141<405 451.5> 233 106<36 92 36 102 26 92 290 488 290 290> 389 106<54 93 44 108 293 506> 613 141<415 462.5 344.5 482.5>
VStem: 92 185<339 358 358 363.5>
LayerCount: 2
Fore
SplineSet
26 233 m 1
 36 339 l 1
 92 339 l 1
 92 358 l 2
 92 369 92 379 93 389 c 1
 44 389 l 1
 54 495 l 1
 108 495 l 1
 150 658 268 754 421 754 c 0
 504 754 563 739 617 703 c 1
 586 586 l 1
 553 602 507 613 458 613 c 0
 372 613 318 574 293 495 c 1
 517 495 l 1
 506 389 l 1
 277 389 l 1
 277 367 l 2
 277 357 277 348 277 339 c 1
 498 339 l 1
 488 233 l 1
 290 233 l 1
 313 148 365 126 445 126 c 0
 503 126 556 143 601 172 c 1
 596 37 l 1
 539 2 489 -15 414 -15 c 0
 270 -15 139 32 102 233 c 1
 26 233 l 1
EndSplineSet
Validated: 1
EndChar

StartChar: sterling
Encoding: 454 163 282
Width: 640
GlyphClass: 2
Flags: HMW
HStem: 0 116<287 587 287 587> 299 106<60 143 60 162 60 143 340 340 340 508> 620 134<407.5 457 346 467>
VStem: 135 184<484 531.5 476.5 580.5> 168 174<226 237.5>
LayerCount: 2
Fore
SplineSet
60 299 m 1xe8
 60 405 l 1
 143 405 l 1
 136 451 135 472 135 496 c 0
 135 665 268 754 424 754 c 0
 490 754 546 738 587 710 c 1
 561 597 l 1
 519 615 490 620 444 620 c 0
 371 620 319 574 319 489 c 0xf0
 319 464 321 439 325 405 c 1
 508 405 l 1
 508 299 l 1
 340 299 l 1
 341 281 342 266 342 254 c 0
 342 198 325 149 287 116 c 1
 587 116 l 1
 587 0 l 1
 63 0 l 1
 63 58 l 1
 131 91 168 160 168 229 c 0
 168 246 167 266 162 299 c 1
 60 299 l 1xe8
EndSplineSet
Validated: 1
EndChar

StartChar: yen
Encoding: 455 165 283
Width: 634
GlyphClass: 2
Flags: HMW
HStem: 0 21G<222 406 222 222> 137 106<95 222 95 222 406 539> 305 106<95 186 95 222 95 186 445 539> 720 20G<10 193 193 193 441 624 624 624>
VStem: 222 184<0 137 0 137 243 305 0 305>
LayerCount: 2
Fore
SplineSet
10 740 m 1
 193 740 l 1
 316 430 l 1
 441 740 l 1
 624 740 l 1
 445 411 l 1
 539 411 l 1
 539 305 l 1
 406 305 l 1
 406 243 l 1
 539 243 l 1
 539 137 l 1
 406 137 l 1
 406 0 l 1
 222 0 l 1
 222 137 l 1
 95 137 l 1
 95 243 l 1
 222 243 l 1
 222 305 l 1
 95 305 l 1
 95 411 l 1
 186 411 l 1
 10 740 l 1
EndSplineSet
Validated: 1
EndChar

StartChar: approxequal
Encoding: 456 8776 284
Width: 592
GlyphClass: 2
Flags: HMW
HStem: 74 118<380.5 398.5 380.5 428> 149 118<193.5 211.5> 313 118<380.5 398.5 380.5 428> 388 118<193.5 211.5>
VStem: 57 478<128 213 213 367>
LayerCount: 2
Fore
SplineSet
57 367 m 1x18
 91 474 127 506 201 506 c 0x18
 232 506 257 497 313 463 c 0
 351 440 373 431 388 431 c 0
 409 431 423 441 444 488 c 1
 535 452 l 1
 501 345 465 313 391 313 c 0x28
 360 313 335 322 279 356 c 0
 241 379 219 388 204 388 c 0
 183 388 169 378 148 331 c 1
 57 367 l 1x18
57 128 m 1
 91 235 127 267 201 267 c 0x48
 232 267 257 258 313 224 c 0
 351 201 373 192 388 192 c 0
 409 192 423 202 444 249 c 1
 535 213 l 1
 501 106 465 74 391 74 c 0x88
 360 74 335 83 279 117 c 0
 241 140 219 149 204 149 c 0x48
 183 149 169 139 148 92 c 1
 57 128 l 1
EndSplineSet
Validated: 1
EndChar

StartChar: asciitilde
Encoding: 126 126 285
Width: 600
GlyphClass: 2
Flags: HMW
HStem: 178 175<436 462.5> 186 175<116.5 143 39 179>
VStem: 39 104<186 209.5 186 251> 436 104<329.5 353>
LayerCount: 2
Fore
SplineSet
39 186 m 1x70
 39 316 76 361 157 361 c 0x70
 201 361 234 351 299 321 c 0
 339 302 374 290 397 290 c 0
 425 290 436 306 436 353 c 1
 540 353 l 1
 540 223 503 178 422 178 c 0xb0
 378 178 345 188 280 218 c 0
 240 237 205 249 182 249 c 0
 154 249 143 233 143 186 c 1
 39 186 l 1x70
EndSplineSet
Validated: 1
EndChar

StartChar: divide
Encoding: 457 247 286
Width: 690
GlyphClass: 2
Flags: MW
HStem: 8 164<255 435 255 435> 247 104<80 610 80 610> 426 164<255 435 255 435>
VStem: 255 180<8 172 8 172 426 590>
LayerCount: 2
Fore
SplineSet
255 426 m 1
 255 590 l 1
 287 596 403 596 435 590 c 1
 435 426 l 1
 403 420 287 420 255 426 c 1
80 247 m 1
 80 351 l 1
 610 351 l 1
 610 247 l 1
 80 247 l 1
255 8 m 1
 255 172 l 1
 287 178 403 178 435 172 c 1
 435 8 l 1
 403 2 287 2 255 8 c 1
EndSplineSet
Validated: 33
EndChar

StartChar: emptyset
Encoding: 458 8709 287
Width: 878
GlyphClass: 2
Flags: HMW
HStem: -53 97<408 520 408 549> -4 21G<31 31> 666 96<358 475> 723 20G<778 778>
VStem: 33 108<318.5 444.5 318.5 470.5> 737 108<265.5 386>
LayerCount: 2
Fore
SplineSet
31 -4 m 1x4c
 128 93 l 1
 69 163 33 254 33 355 c 0
 33 586 219 762 439 762 c 0
 538 762 630 726 701 666 c 1x6c
 778 743 l 1
 847 674 l 1
 768 595 l 1
 816 528 845 446 845 355 c 0
 845 124 659 -53 439 -53 c 0x9c
 350 -53 267 -24 199 26 c 1
 100 -73 l 1
 31 -4 l 1x4c
141 355 m 0
 141 282 163 217 201 166 c 1
 630 595 l 1
 578 640 511 666 439 666 c 0
 277 666 141 534 141 355 c 0
270 97 m 1
 319 63 377 44 439 44 c 0x8c
 601 44 737 176 737 355 c 0
 737 417 721 473 693 520 c 1
 270 97 l 1
EndSplineSet
Validated: 1
EndChar

StartChar: equal
Encoding: 61 61 288
Width: 622
GlyphClass: 2
Flags: MW
HStem: 146 104<118 504 118 504> 330 104<118 504 118 504>
VStem: 118 386<146 250 146 250 330 434 146 434>
LayerCount: 2
Fore
SplineSet
118 330 m 1
 118 434 l 1
 504 434 l 1
 504 330 l 1
 118 330 l 1
118 146 m 1
 118 250 l 1
 504 250 l 1
 504 146 l 1
 118 146 l 1
EndSplineSet
Validated: 1
EndChar

StartChar: greater
Encoding: 62 62 289
Width: 452
GlyphClass: 2
Flags: HMW
HStem: 30 470<66 66>
VStem: 66 331<30 309 154 309 221 500 221 500>
LayerCount: 2
Fore
SplineSet
66 30 m 1
 66 154 l 1
 283 265 l 1
 66 375 l 1
 66 500 l 1
 397 309 l 1
 397 221 l 1
 66 30 l 1
EndSplineSet
Validated: 1
EndChar

StartChar: greaterequal
Encoding: 459 8805 290
Width: 481
GlyphClass: 2
Flags: HMW
HStem: 0 104<66 426 66 426>
VStem: 66 360<0 104 0 104 0 251 0 251 0 513>
LayerCount: 2
Fore
SplineSet
66 143 m 1
 66 251 l 1
 317 328 l 1
 66 405 l 1
 66 513 l 1
 426 382 l 1
 426 274 l 1
 66 143 l 1
66 0 m 1
 66 104 l 1
 426 104 l 1
 426 0 l 1
 66 0 l 1
EndSplineSet
Validated: 1
EndChar

StartChar: infinity
Encoding: 460 8734 291
Width: 979
GlyphClass: 2
Flags: HMW
HStem: 26 140<290.5 319 649 688> 370 140<291 330 660 688.5>
VStem: 56 180<238.5 302 238.5 339.5> 743 180<234 297.5>
LayerCount: 2
Fore
SplineSet
56 268 m 0
 56 411 153 510 293 510 c 0
 378 510 447 481 502 404 c 1
 554 481 614 510 706 510 c 0
 826 510 923 411 923 268 c 0
 923 125 826 26 686 26 c 0
 601 26 532 55 477 132 c 1
 425 55 365 26 273 26 c 0
 153 26 56 125 56 268 c 0
236 272 m 0
 236 205 269 166 312 166 c 0
 343 166 386 189 405 251 c 1
 393 334 348 370 312 370 c 0
 270 370 236 332 236 272 c 0
574 285 m 1
 586 202 631 166 667 166 c 0
 709 166 743 204 743 264 c 0
 743 331 710 370 667 370 c 0
 636 370 593 347 574 285 c 1
EndSplineSet
Validated: 1
EndChar

StartChar: integral
Encoding: 461 8747 292
Width: 521
GlyphClass: 2
Flags: HMW
HStem: -160 96<193.5 218 186.5 265> 658 96<303 327.5 256 334.5> 734 20G<256 327.5>
VStem: 141 108<555.5 610.5 555.5 628.5> 272 108<-16.5 38.5>
LayerCount: 2
Fore
SplineSet
119 -138 m 1xd8
 134 -48 l 1
 155 -60 174 -64 199 -64 c 0
 237 -64 272 -43 272 10 c 0
 272 67 266 119 206 290 c 0
 154 439 141 505 141 579 c 0
 141 678 204 754 308 754 c 0
 347 754 376 749 402 732 c 1
 387 642 l 1
 366 654 347 658 322 658 c 0
 284 658 249 637 249 584 c 0
 249 527 255 475 315 304 c 0
 367 155 380 89 380 15 c 0
 380 -84 317 -160 213 -160 c 0
 174 -160 145 -155 119 -138 c 1xd8
EndSplineSet
Validated: 1
EndChar

StartChar: less
Encoding: 60 60 293
Width: 452
GlyphClass: 2
Flags: HMW
HStem: 30 470<386 386>
VStem: 55 331<30 309 30 309>
LayerCount: 2
Fore
SplineSet
55 221 m 1
 55 309 l 1
 386 500 l 1
 386 376 l 1
 169 266 l 1
 386 155 l 1
 386 30 l 1
 55 221 l 1
EndSplineSet
Validated: 1
EndChar

StartChar: lessequal
Encoding: 462 8804 294
Width: 481
GlyphClass: 2
Flags: HMW
HStem: 0 104<55 415 55 415>
VStem: 55 360<0 104 0 104 0 382 0 382>
LayerCount: 2
Fore
SplineSet
55 274 m 1
 55 382 l 1
 415 513 l 1
 415 405 l 1
 164 328 l 1
 415 251 l 1
 415 143 l 1
 55 274 l 1
55 0 m 1
 55 104 l 1
 415 104 l 1
 415 0 l 1
 55 0 l 1
EndSplineSet
Validated: 1
EndChar

StartChar: logicalnot
Encoding: 463 172 295
Width: 600
GlyphClass: 2
Flags: HMW
HStem: 309 104<100 405 100 517>
VStem: 405 112<210 309 309 309>
LayerCount: 2
Fore
SplineSet
100 309 m 1
 100 413 l 1
 517 413 l 1
 517 210 l 1
 405 210 l 1
 405 309 l 1
 100 309 l 1
EndSplineSet
Validated: 1
EndChar

StartChar: minus
Encoding: 464 8722 296
Width: 600
GlyphClass: 2
Flags: MW
HStem: 248 104<80 500 80 500>
VStem: 80 420<248 352 248 352>
LayerCount: 2
Fore
SplineSet
80 248 m 1
 80 352 l 1
 500 352 l 1
 500 248 l 1
 80 248 l 1
EndSplineSet
Validated: 1
EndChar

StartChar: multiply
Encoding: 465 215 297
Width: 600
GlyphClass: 2
Flags: HMW
HStem: 102 396<188 189 189 429>
VStem: 110 397<180 180>
LayerCount: 2
Fore
SplineSet
110 180 m 1
 231 301 l 1
 111 420 l 1
 189 498 l 1
 309 379 l 1
 428 498 l 1
 506 420 l 1
 387 301 l 1
 507 180 l 1
 429 102 l 1
 309 223 l 1
 188 102 l 1
 110 180 l 1
EndSplineSet
Validated: 1
EndChar

StartChar: notequal
Encoding: 466 8800 298
Width: 600
GlyphClass: 2
Flags: HMW
HStem: 146 104<118 184 118 230 356 504 118 310> 330 104<118 266 118 312 438 504 118 392> 330 195<118 479 392 479 353 504 392 392>
VStem: 118 386<146 250 146 250 330 434 146 434>
LayerCount: 2
Fore
SplineSet
118 146 m 1xd0
 118 250 l 1
 230 250 l 1
 266 330 l 1
 118 330 l 1
 118 434 l 1
 312 434 l 1xd0
 353 525 l 1
 479 525 l 1xb0
 438 434 l 1
 504 434 l 1
 504 330 l 1
 392 330 l 1
 356 250 l 1
 504 250 l 1
 504 146 l 1
 310 146 l 1
 269 55 l 1
 143 55 l 1
 184 146 l 1
 118 146 l 1xd0
EndSplineSet
Validated: 1
EndChar

StartChar: partialdiff
Encoding: 467 8706 299
Width: 674
GlyphClass: 2
Flags: HMW
HStem: -14 140<296.5 352.5 296.5 403> 352 140<300.5 329.5 225.5 351> 618 140<257 311>
VStem: 51 184<206.5 276.5 206.5 319.5> 428 189
LayerCount: 2
Fore
SplineSet
51 243 m 0
 51 396 160 492 291 492 c 0
 368 492 412 464 437 412 c 1
 427 575 357 618 265 618 c 0
 212 618 157 601 117 579 c 1
 99 702 l 1
 150 739 221 758 293 758 c 0
 506 758 617 633 617 353 c 0
 617 121 496 -14 310 -14 c 0
 165 -14 51 73 51 243 c 0
235 241 m 0
 235 172 264 126 329 126 c 0
 376 126 424 159 428 290 c 1
 404 331 375 352 327 352 c 0
 274 352 235 312 235 241 c 0
EndSplineSet
Validated: 1
EndChar

StartChar: percent
Encoding: 37 37 300
Width: 814
GlyphClass: 2
Flags: HMW
HStem: -14 104<583 613 583 646.5> 220 104<583 613> 416 104<201 231 201 264.5> 650 104<201 231>
VStem: 53 112<563 607.5 563 634> 267 112<563 607.5> 435 112<133 177.5 133 204> 649 112<133 177.5>
LayerCount: 2
Fore
SplineSet
53 585 m 0
 53 683 119 754 216 754 c 0
 313 754 379 683 379 585 c 0
 379 488 313 416 216 416 c 0
 119 416 53 488 53 585 c 0
95 -14 m 1
 583 754 l 1
 719 754 l 1
 231 -14 l 1
 95 -14 l 1
165 585 m 0
 165 541 186 520 216 520 c 0
 246 520 267 541 267 585 c 0
 267 630 246 650 216 650 c 0
 186 650 165 630 165 585 c 0
435 155 m 0
 435 253 501 324 598 324 c 0
 695 324 761 253 761 155 c 0
 761 58 695 -14 598 -14 c 0
 501 -14 435 58 435 155 c 0
547 155 m 0
 547 111 568 90 598 90 c 0
 628 90 649 111 649 155 c 0
 649 200 628 220 598 220 c 0
 568 220 547 200 547 155 c 0
EndSplineSet
Validated: 1
EndChar

StartChar: perthousand
Encoding: 468 8240 301
Width: 1194
GlyphClass: 2
Flags: HMW
HStem: -14 104<583 613 583 646.5 963 993> 220 104<583 613 963 993> 416 104<201 231 201 264.5> 650 104<201 231>
VStem: 53 112<563 607.5 563 634> 267 112<563 607.5> 435 112<133 177.5 133 204> 649 112<133 177.5> 815 112<133 177.5 133 204> 1029 112<133 177.5>
LayerCount: 2
Fore
SplineSet
53 585 m 0
 53 683 119 754 216 754 c 0
 313 754 379 683 379 585 c 0
 379 488 313 416 216 416 c 0
 119 416 53 488 53 585 c 0
95 -14 m 1
 583 754 l 1
 719 754 l 1
 231 -14 l 1
 95 -14 l 1
165 585 m 0
 165 541 186 520 216 520 c 0
 246 520 267 541 267 585 c 0
 267 630 246 650 216 650 c 0
 186 650 165 630 165 585 c 0
435 155 m 0
 435 253 501 324 598 324 c 0
 695 324 761 253 761 155 c 0
 761 58 695 -14 598 -14 c 0
 501 -14 435 58 435 155 c 0
815 155 m 0
 815 253 881 324 978 324 c 0
 1075 324 1141 253 1141 155 c 0
 1141 58 1075 -14 978 -14 c 0
 881 -14 815 58 815 155 c 0
547 155 m 0
 547 111 568 90 598 90 c 0
 628 90 649 111 649 155 c 0
 649 200 628 220 598 220 c 0
 568 220 547 200 547 155 c 0
927 155 m 0
 927 111 948 90 978 90 c 0
 1008 90 1029 111 1029 155 c 0
 1029 200 1008 220 978 220 c 0
 948 220 927 200 927 155 c 0
EndSplineSet
Validated: 1
EndChar

StartChar: plus
Encoding: 43 43 302
Width: 622
GlyphClass: 2
Flags: HMW
HStem: 281 104<71 255 71 255 367 551>
VStem: 255 112<78 281 78 281 385 588>
LayerCount: 2
Fore
SplineSet
71 281 m 1
 71 385 l 1
 255 385 l 1
 255 588 l 1
 367 588 l 1
 367 385 l 1
 551 385 l 1
 551 281 l 1
 367 281 l 1
 367 78 l 1
 255 78 l 1
 255 281 l 1
 71 281 l 1
EndSplineSet
Validated: 1
EndChar

StartChar: plusminus
Encoding: 469 177 303
Width: 562
GlyphClass: 2
Flags: HMW
HStem: 0 104<81 481 81 481> 296 104<81 225 81 225 337 481>
VStem: 225 112<146 296 146 296 400 550>
LayerCount: 2
Fore
SplineSet
81 296 m 1
 81 400 l 1
 225 400 l 1
 225 550 l 1
 337 550 l 1
 337 400 l 1
 481 400 l 1
 481 296 l 1
 337 296 l 1
 337 146 l 1
 225 146 l 1
 225 296 l 1
 81 296 l 1
81 0 m 1
 81 104 l 1
 481 104 l 1
 481 0 l 1
 81 0 l 1
EndSplineSet
Validated: 1
EndChar

StartChar: product
Encoding: 470 8719 304
Width: 622
GlyphClass: 2
Flags: HMW
HStem: 586 104<31 110 31 222 222 400 31 222 512 591>
VStem: 110 112<-110 586 -110 586> 400 112<-110 586 -110 586>
LayerCount: 2
Fore
SplineSet
31 586 m 1
 31 690 l 1
 222 690 l 1
 512 690 l 1
 591 690 l 1
 591 586 l 1
 512 586 l 1
 512 -110 l 1
 400 -110 l 1
 400 586 l 1
 222 586 l 1
 222 -110 l 1
 110 -110 l 1
 110 586 l 1
 31 586 l 1
EndSplineSet
Validated: 1
EndChar

StartChar: radical
Encoding: 471 8730 305
Width: 600
GlyphClass: 2
Flags: HMW
HStem: 206 104<59 153 59 236>
VStem: 59 556<206 800 310 800>
LayerCount: 2
Fore
SplineSet
59 206 m 1
 59 310 l 1
 236 310 l 1
 322 -17 l 1
 501 800 l 1
 615 800 l 1
 383 -160 l 1
 264 -160 l 1
 153 206 l 1
 59 206 l 1
EndSplineSet
Validated: 1
EndChar

StartChar: summation
Encoding: 472 8721 306
Width: 680
GlyphClass: 2
Flags: HMW
HStem: -110 136<286 628 286 628> 604 136<312 622 312 312>
VStem: 49 579<-110 -42 -42 -42>
LayerCount: 2
Fore
SplineSet
49 -42 m 1
 233 326 l 1
 79 672 l 1
 79 740 l 1
 622 740 l 1
 622 604 l 1
 312 604 l 1
 438 325 l 1
 286 26 l 1
 628 26 l 1
 628 -110 l 1
 49 -110 l 1
 49 -42 l 1
EndSplineSet
Validated: 1
EndChar

StartChar: lozenge
Encoding: 473 9674 307
Width: 602
GlyphClass: 2
Flags: HMW
HStem: 0 21G<213 389 213 213>
VStem: 56 490<345 345>
LayerCount: 2
Fore
SplineSet
56 345 m 1
 213 690 l 1
 389 690 l 1
 546 345 l 1
 389 0 l 1
 213 0 l 1
 56 345 l 1
233 345 m 1
 301 159 l 1
 369 345 l 1
 301 531 l 1
 233 345 l 1
EndSplineSet
Validated: 1
EndChar

StartChar: bar
Encoding: 124 124 308
Width: 410
GlyphClass: 2
Flags: MW
HStem: -200 1000<149 261 149 261>
VStem: 149 112<-200 800 -200 800>
LayerCount: 2
Fore
SplineSet
149 -200 m 1
 149 800 l 1
 261 800 l 1
 261 -200 l 1
 149 -200 l 1
EndSplineSet
Validated: 1
EndChar

StartChar: brokenbar
Encoding: 474 166 309
Width: 410
GlyphClass: 2
Flags: MW
HStem: -160 850<149 261 149 261>
VStem: 149 112<-160 180 -160 180 350 690>
LayerCount: 2
Fore
SplineSet
149 350 m 1
 149 690 l 1
 261 690 l 1
 261 350 l 1
 149 350 l 1
149 -160 m 1
 149 180 l 1
 261 180 l 1
 261 -160 l 1
 149 -160 l 1
EndSplineSet
Validated: 1
EndChar

StartChar: at
Encoding: 64 64 310
Width: 1050
GlyphClass: 2
Flags: HMW
HStem: -163 104<421.5 551> 54 120<636 787> 54 140<411.5 530.5 499.5 735.5> 374 140<499.5 531.5> 627 104<445 646.5>
VStem: 68 112<151 374 151 390> 283 172<254 311 254 350.5> 567 166<210 362 362 362> 856 112<288 419.5>
LayerCount: 2
Fore
SplineSet
68 255 m 0xdf80
 68 525 279 731 546 731 c 0
 797 731 968 561 968 345 c 0
 968 129 814 54 657 54 c 0xdf80
 615 54 590 74 577 112 c 1
 541 70 498 54 453 54 c 0xbf80
 370 54 283 117 283 267 c 0
 283 434 404 514 539 514 c 0
 608 514 681 493 733 458 c 1
 733 210 l 2
 733 185 741 174 759 174 c 0
 815 174 856 238 856 338 c 0
 856 501 747 627 546 627 c 0
 344 627 180 488 180 260 c 0
 180 42 332 -59 511 -59 c 0
 596 -59 694 -36 767 7 c 1
 802 -73 l 1
 706 -132 600 -163 502 -163 c 0
 278 -163 68 -18 68 255 c 0xdf80
455 283 m 0
 455 225 477 194 522 194 c 0xbf80
 539 194 553 198 567 210 c 1
 567 362 l 1
 553 371 539 374 524 374 c 0
 475 374 455 339 455 283 c 0
EndSplineSet
Validated: 1
EndChar

StartChar: ampersand
Encoding: 38 38 311
Width: 831
GlyphClass: 2
Flags: HMW
HStem: -14 140<337.5 378.5> 618 136<368 390>
VStem: 66 184<189 242.5 189 245> 178 164<569.5 591.5 569.5 632> 416 164<562.5 590>
LayerCount: 2
Fore
SplineSet
66 195 m 0xe8
 66 295 125 364 245 428 c 1
 195 491 178 532 178 580 c 0xd8
 178 684 261 754 381 754 c 0
 505 754 580 681 580 587 c 0
 580 522 552 467 469 411 c 1
 561 300 l 1
 574 333 585 370 591 411 c 1
 748 385 l 1
 734 297 706 226 669 169 c 1
 788 25 l 1xe8
 618 -50 l 1
 545 44 l 1
 482 4 412 -14 345 -14 c 0
 190 -14 66 44 66 195 c 0xe8
342 580 m 0
 342 559 352 538 380 503 c 1
 401 522 416 547 416 578 c 0
 416 602 401 618 379 618 c 0xd8
 357 618 342 603 342 580 c 0
250 223 m 0xe8
 250 155 305 126 370 126 c 0
 399 126 429 137 458 157 c 1
 323 330 l 1
 268 296 250 262 250 223 c 0xe8
EndSplineSet
Validated: 1
EndChar

StartChar: paragraph
Encoding: 475 182 312
Width: 638
GlyphClass: 2
Flags: HMW
HStem: 586 104<392 460 392 392>
VStem: 280 112<-110 320 320 320> 460 112<-110 586 586 586>
LayerCount: 2
Fore
SplineSet
44 505 m 0
 44 600 99 683 201 689 c 0
 218 690 239 690 257 690 c 2
 572 690 l 1
 572 -110 l 1
 460 -110 l 1
 460 586 l 1
 392 586 l 1
 392 -110 l 1
 280 -110 l 1
 280 320 l 1
 257 320 l 2
 239 320 218 320 201 321 c 0
 99 327 44 410 44 505 c 0
EndSplineSet
Validated: 1
EndChar

StartChar: copyright
Encoding: 476 169 313
Width: 838
GlyphClass: 2
Flags: HMW
HStem: -64 104<340.5 497.5 340.5 526.5> 104 104<418 455.5> 448 104<415.5 467 386.5 471> 610 104<340.5 497.5>
VStem: 36 112<243 406.5 243 437> 209 120<282 365 282 403.5> 690 112<243 406.5>
LayerCount: 2
Fore
SplineSet
36 325 m 0
 36 549 204 714 419 714 c 0
 634 714 802 549 802 325 c 0
 802 101 634 -64 419 -64 c 0
 204 -64 36 101 36 325 c 0
148 325 m 0
 148 161 262 40 419 40 c 0
 576 40 690 161 690 325 c 0
 690 488 576 610 419 610 c 0
 262 610 148 488 148 325 c 0
209 324 m 0
 209 483 331 552 442 552 c 0
 492 552 530 541 563 514 c 1
 550 428 l 1
 524 441 489 448 453 448 c 0
 378 448 329 404 329 326 c 0
 329 238 385 208 451 208 c 0
 487 208 523 212 551 224 c 1
 562 141 l 1
 524 115 475 104 436 104 c 0
 326 104 209 170 209 324 c 0
EndSplineSet
Validated: 1
EndChar

StartChar: registered
Encoding: 477 174 314
Width: 838
GlyphClass: 2
Flags: HMW
HStem: -64 104<340.5 497.5 340.5 526.5> 271 87<378 400 378 419> 458 92<378 379 379 392.5 266 420 378 378> 610 104<340.5 497.5>
VStem: 36 112<243 406.5 243 437> 266 112<127 271 127 358 358 458> 468 115<390 424> 690 112<243 406.5>
LayerCount: 2
Fore
SplineSet
36 325 m 0
 36 549 204 714 419 714 c 0
 634 714 802 549 802 325 c 0
 802 101 634 -64 419 -64 c 0
 204 -64 36 101 36 325 c 0
148 325 m 0
 148 161 262 40 419 40 c 0
 576 40 690 161 690 325 c 0
 690 488 576 610 419 610 c 0
 262 610 148 488 148 325 c 0
266 127 m 1
 266 550 l 1
 379 550 l 2
 406 550 423 550 461 547 c 0
 535 540 583 486 583 413 c 0
 583 352 550 316 509 298 c 1
 596 127 l 1
 465 127 l 1
 400 271 l 1
 378 271 l 1
 378 127 l 1
 266 127 l 1
378 358 m 1
 419 358 l 2
 442 358 468 373 468 407 c 0
 468 441 447 458 420 458 c 2
 378 458 l 1
 378 358 l 1
EndSplineSet
Validated: 1
EndChar

StartChar: section
Encoding: 253 167 315
Width: 645
GlyphClass: 2
Flags: HMW
HStem: -195 140<262 313.5 261 364.5> 534 140<331.5 383 280.5 384>
VStem: 39 174<271.5 288.5> 101 184<477 506.5 476 555.5> 360 184<-27.5 2 -83 3> 432 174<190.5 207.5>
LayerCount: 2
Fore
SplineSet
39 252 m 0xe8
 39 325 70 369 131 401 c 1
 111 426 101 457 101 497 c 0
 101 614 218 674 343 674 c 0
 423 674 498 651 539 614 c 1
 511 498 l 1
 459 522 408 534 360 534 c 0
 303 534 285 520 285 493 c 0
 285 459 312 449 411 416 c 0
 554 368 606 316 606 227 c 0xd4
 606 154 575 110 514 78 c 1
 534 53 544 22 544 -18 c 0
 544 -148 427 -195 302 -195 c 0
 222 -195 147 -172 106 -135 c 1
 132 -19 l 1
 186 -43 237 -55 285 -55 c 0
 342 -55 360 -41 360 -14 c 0
 360 20 333 30 234 63 c 0
 91 111 39 163 39 252 c 0xe8
213 297 m 0xe4
 213 246 241 219 356 175 c 0
 380 166 403 156 423 147 c 1
 429 157 432 169 432 182 c 0
 432 233 404 260 289 304 c 0
 265 313 242 323 222 332 c 1
 216 322 213 310 213 297 c 0xe4
EndSplineSet
Validated: 1
EndChar

